<?xml version="1.0" encoding="utf-8"?>
<!-- Generator: Adobe Illustrator 24.0.2, SVG Export Plug-In . SVG Version: 6.00 Build 0)  -->
<svg version="1.1" id="Layer_1" xmlns="http://www.w3.org/2000/svg" xmlns:xlink="http://www.w3.org/1999/xlink" x="0px" y="0px"
	 viewBox="0 0 63.87 20.89" style="enable-background:new 0 0 63.87 20.89;" xml:space="preserve">
<style type="text/css">
	.st0{fill:#FFFFFF;}
</style>
<g>
	<path d="M63.87,18.07c0,1.56-1.26,2.82-2.82,2.82H2.82C1.26,20.89,0,19.63,0,18.07V2.82C0,1.26,1.26,0,2.82,0h58.23
		c1.56,0,2.82,1.26,2.82,2.82V18.07z"/>
	<g>
		<path class="st0" d="M16.66,13.81c-0.34,0.75-0.5,1.08-0.94,1.75c-0.61,0.92-1.46,2.08-2.52,2.09c-0.94,0.01-1.18-0.61-2.46-0.61
			c-1.28,0.01-1.55,0.62-2.49,0.61c-1.06-0.01-1.87-1.05-2.48-1.97c-1.7-2.59-1.88-5.62-0.83-7.23c0.74-1.15,1.92-1.82,3.02-1.82
			c1.12,0,1.83,0.62,2.76,0.62c0.9,0,1.45-0.62,2.75-0.62c0.98,0,2.02,0.53,2.77,1.46C13.81,9.41,14.2,12.88,16.66,13.81z"/>
		<g>
			<path class="st0" d="M12.48,5.59c0.47-0.61,0.83-1.46,0.7-2.34c-0.77,0.05-1.67,0.54-2.2,1.18c-0.48,0.58-0.87,1.44-0.72,2.28
				C11.11,6.74,11.98,6.24,12.48,5.59z"/>
		</g>
	</g>
	<g>
		<g>
			<path class="st0" d="M21.83,8.4l-2.43,7.16h1.11l0.73-2.2h2.36l0.75,2.2h1.15L23.04,8.4H21.83z M22.41,9.58
				c0.08,0.32,0.17,0.65,0.28,1.01l0.66,1.9h-1.87l0.65-1.91C22.23,10.26,22.32,9.93,22.41,9.58z"/>
			<path class="st0" d="M28.64,10.25c-0.74,0-1.33,0.28-1.72,0.83l-0.04-0.71h-0.99l0.01,0.09c0.03,0.44,0.04,0.93,0.04,1.63v5.52
				h1.08v-2.58c0.34,0.4,0.87,0.64,1.48,0.64c0.63,0,1.22-0.25,1.64-0.7c0.47-0.5,0.73-1.22,0.73-2.08c0-0.76-0.22-1.42-0.63-1.9
				C29.83,10.52,29.26,10.25,28.64,10.25z M28.37,11.15c0.97,0,1.4,0.89,1.4,1.78c0,1.14-0.55,1.85-1.44,1.85
				c-0.61,0-1.13-0.41-1.28-1.01c-0.03-0.09-0.04-0.21-0.04-0.35v-0.87c0-0.08,0.02-0.17,0.03-0.27c0.01-0.03,0.01-0.06,0.02-0.09
				C27.22,11.58,27.76,11.15,28.37,11.15z"/>
			<path class="st0" d="M34.22,10.25c-0.74,0-1.33,0.28-1.72,0.83l-0.04-0.71h-0.99l0.01,0.09c0.03,0.44,0.04,0.93,0.04,1.63v5.52
				h1.08v-2.58c0.34,0.4,0.87,0.64,1.48,0.64c0.63,0,1.22-0.25,1.64-0.7c0.47-0.5,0.72-1.22,0.72-2.08c0-0.76-0.22-1.42-0.63-1.9
				C35.41,10.52,34.84,10.25,34.22,10.25z M33.95,11.15c0.97,0,1.4,0.89,1.4,1.78c0,1.14-0.55,1.85-1.44,1.85
				c-0.61,0-1.13-0.41-1.28-1.01c-0.03-0.09-0.04-0.21-0.04-0.35v-0.87c0-0.08,0.02-0.18,0.03-0.27c0.01-0.03,0.01-0.06,0.02-0.09
				C32.8,11.58,33.34,11.15,33.95,11.15z"/>
			<path class="st0" d="M41.21,11.43c-1.01-0.39-1.34-0.7-1.34-1.27c0-0.48,0.38-0.96,1.23-0.96c0.7,0,1.15,0.24,1.27,0.32
				l0.09,0.06l0.31-0.9l-0.06-0.04c-0.18-0.11-0.7-0.35-1.58-0.35c-1.38,0-2.35,0.82-2.35,1.98c0,0.94,0.6,1.6,1.9,2.07
				c0.92,0.34,1.26,0.7,1.26,1.3c0,0.68-0.53,1.11-1.38,1.11c-0.55,0-1.12-0.16-1.56-0.44l-0.09-0.06l-0.29,0.93l0.05,0.04
				c0.41,0.27,1.18,0.47,1.83,0.47c1.86,0,2.52-1.14,2.52-2.11C43.04,12.56,42.51,11.95,41.21,11.43z"/>
			<path class="st0" d="M44.99,9.14l-1.06,0.33v0.9h-0.78v0.87h0.78v2.65c0,0.64,0.12,1.09,0.38,1.37c0.24,0.27,0.61,0.41,1.05,0.41
				c0.41,0,0.7-0.08,0.84-0.13l0.06-0.02l-0.05-0.87l-0.1,0.03c-0.14,0.04-0.28,0.06-0.5,0.06c-0.42,0-0.6-0.27-0.6-0.89v-2.62h1.31
				v-0.87h-1.31V9.14z"/>
			<path class="st0" d="M48.98,10.25c-1.52,0-2.58,1.13-2.58,2.75c0,1.57,1.02,2.67,2.49,2.67h0.01c1.24,0,2.58-0.86,2.58-2.76
				c0-0.77-0.24-1.43-0.69-1.92C50.34,10.51,49.71,10.25,48.98,10.25z M48.95,11.11c0.97,0,1.42,0.95,1.42,1.83
				c0,1.09-0.61,1.87-1.44,1.87h-0.01c-0.82,0-1.42-0.78-1.42-1.84C47.5,12.05,47.95,11.11,48.95,11.11z"/>
			<path class="st0" d="M54.8,10.31l-0.07-0.02c-0.1-0.02-0.17-0.03-0.27-0.03c-0.57,0-1.08,0.33-1.36,0.87l-0.03-0.76H52.1
				l0.01,0.09c0.03,0.43,0.04,0.91,0.04,1.56l-0.01,3.54h1.08V12.8c0-0.15,0.01-0.29,0.03-0.42c0.12-0.66,0.57-1.09,1.14-1.09
				c0.11,0,0.2,0.01,0.29,0.02l0.12,0.01V10.31z"/>
			<path class="st0" d="M57.24,10.24c-1.44,0-2.45,1.15-2.45,2.8c0,1.59,1,2.62,2.55,2.62c0.82,0,1.38-0.18,1.72-0.33l0.07-0.03
				l-0.21-0.81l-0.09,0.04c-0.3,0.12-0.69,0.24-1.36,0.24c-0.47,0-1.56-0.16-1.62-1.57l3.5,0.01l0.01-0.07
				c0.02-0.11,0.03-0.26,0.03-0.45C59.39,11.56,58.82,10.24,57.24,10.24z M57.17,11.07c0.33,0,0.6,0.1,0.8,0.3
				c0.31,0.32,0.37,0.78,0.37,1.01h-2.47C55.96,11.76,56.35,11.07,57.17,11.07z"/>
		</g>
		<g>
			<path class="st0" d="M19.4,3.51c0.3-0.04,0.65-0.07,1.04-0.07c0.7,0,1.2,0.14,1.53,0.42c0.34,0.28,0.54,0.67,0.54,1.22
				c0,0.55-0.2,1.01-0.54,1.32c-0.36,0.32-0.94,0.49-1.67,0.49c-0.35,0-0.64-0.01-0.89-0.04V3.51z M19.89,6.51
				c0.12,0.02,0.3,0.02,0.49,0.02c1.04,0,1.6-0.52,1.6-1.44c0.01-0.81-0.5-1.31-1.53-1.31c-0.25,0-0.44,0.02-0.57,0.05V6.51z"/>
			<path class="st0" d="M24.24,6.91c-0.73,0-1.3-0.48-1.3-1.25c0-0.81,0.6-1.29,1.34-1.29c0.78,0,1.3,0.51,1.3,1.25
				C25.59,6.51,24.89,6.91,24.24,6.91L24.24,6.91z M24.26,6.57c0.47,0,0.82-0.4,0.82-0.95c0-0.41-0.23-0.93-0.81-0.93
				c-0.58,0-0.83,0.48-0.83,0.95C23.44,6.17,23.78,6.57,24.26,6.57L24.26,6.57z"/>
			<path class="st0" d="M26.37,4.42l0.36,1.23c0.07,0.27,0.15,0.53,0.2,0.78h0.02c0.06-0.25,0.15-0.51,0.24-0.77l0.44-1.24h0.41
				l0.42,1.22c0.1,0.29,0.18,0.55,0.24,0.79h0.02c0.04-0.25,0.12-0.5,0.21-0.79l0.39-1.22h0.49l-0.87,2.43h-0.45l-0.41-1.16
				c-0.09-0.28-0.17-0.52-0.24-0.8h-0.01c-0.07,0.29-0.15,0.55-0.25,0.81l-0.44,1.16h-0.45l-0.82-2.43H26.37z"/>
			<path class="st0" d="M30.29,5.07c0-0.26-0.01-0.46-0.02-0.66h0.44l0.03,0.4h0.01c0.13-0.23,0.45-0.45,0.89-0.45
				c0.37,0,0.96,0.2,0.96,1.04v1.45H32.1v-1.4c0-0.39-0.16-0.72-0.63-0.72c-0.32,0-0.57,0.21-0.66,0.45
				c-0.02,0.06-0.03,0.14-0.03,0.21v1.47h-0.49V5.07z"/>
			<path class="st0" d="M33.39,3.28h0.49v3.57h-0.49V3.28z"/>
			<path class="st0" d="M35.8,6.91c-0.73,0-1.3-0.48-1.3-1.25c0-0.81,0.6-1.29,1.34-1.29c0.78,0,1.3,0.51,1.3,1.25
				C37.14,6.51,36.44,6.91,35.8,6.91L35.8,6.91z M35.81,6.57c0.47,0,0.82-0.4,0.82-0.95c0-0.41-0.23-0.93-0.81-0.93
				C35.25,4.69,35,5.18,35,5.64C35,6.17,35.33,6.57,35.81,6.57L35.81,6.57z"/>
			<path class="st0" d="M39.67,6.27c0,0.21,0.01,0.42,0.04,0.58h-0.44l-0.04-0.31h-0.02c-0.15,0.19-0.44,0.36-0.83,0.36
				c-0.55,0-0.83-0.35-0.83-0.7c0-0.59,0.58-0.91,1.63-0.91V5.25c0-0.2-0.06-0.57-0.61-0.56c-0.26,0-0.52,0.07-0.71,0.18l-0.11-0.3
				c0.22-0.13,0.55-0.21,0.89-0.21c0.83,0,1.03,0.51,1.03,1V6.27z M39.19,5.61c-0.54-0.01-1.15,0.08-1.15,0.55
				c0,0.29,0.21,0.42,0.46,0.42c0.36,0,0.59-0.2,0.66-0.41c0.02-0.05,0.02-0.1,0.02-0.14V5.61z"/>
			<path class="st0" d="M42.79,3.28v2.94c0,0.22,0.01,0.46,0.02,0.63h-0.44l-0.02-0.42h-0.01c-0.15,0.27-0.48,0.48-0.92,0.48
				c-0.65,0-1.16-0.5-1.16-1.24c-0.01-0.81,0.56-1.31,1.21-1.31c0.42,0,0.7,0.18,0.82,0.37h0.01V3.28H42.79z M42.3,5.41
				c0-0.06-0.01-0.13-0.02-0.19c-0.07-0.28-0.34-0.51-0.71-0.51c-0.51,0-0.81,0.4-0.81,0.94c0,0.5,0.27,0.91,0.8,0.91
				c0.33,0,0.63-0.2,0.72-0.53C42.3,5.96,42.3,5.9,42.3,5.83V5.41z"/>
			<path class="st0" d="M45.9,6.91c-0.73,0-1.3-0.48-1.3-1.25c0-0.81,0.6-1.29,1.34-1.29c0.78,0,1.3,0.51,1.3,1.25
				C47.24,6.51,46.54,6.91,45.9,6.91L45.9,6.91z M45.91,6.57c0.47,0,0.82-0.4,0.82-0.95c0-0.41-0.23-0.93-0.81-0.93
				c-0.58,0-0.83,0.48-0.83,0.95C45.1,6.17,45.43,6.57,45.91,6.57L45.91,6.57z"/>
			<path class="st0" d="M47.86,5.07c0-0.26-0.01-0.46-0.02-0.66h0.44l0.03,0.4h0.01c0.13-0.23,0.45-0.45,0.89-0.45
				c0.37,0,0.96,0.2,0.96,1.04v1.45h-0.49v-1.4c0-0.39-0.16-0.72-0.63-0.72c-0.32,0-0.57,0.21-0.66,0.45
				c-0.02,0.06-0.03,0.14-0.03,0.21v1.47h-0.49V5.07z"/>
			<path class="st0" d="M52.74,3.83v0.58h0.7v0.34h-0.7v1.31c0,0.3,0.1,0.47,0.37,0.47c0.13,0,0.21-0.01,0.29-0.03l0.02,0.34
				c-0.09,0.03-0.25,0.06-0.44,0.06c-0.23,0-0.41-0.07-0.53-0.19c-0.13-0.14-0.19-0.35-0.19-0.64V4.75h-0.42V4.42h0.42V3.97
				L52.74,3.83z"/>
			<path class="st0" d="M54,3.28h0.49V4.8h0.01c0.08-0.13,0.2-0.24,0.35-0.31c0.15-0.08,0.32-0.13,0.5-0.13
				c0.36,0,0.94,0.2,0.94,1.04v1.45h-0.49v-1.4c0-0.4-0.16-0.72-0.63-0.72c-0.32,0-0.56,0.2-0.66,0.44
				c-0.03,0.06-0.03,0.13-0.03,0.21v1.47H54V3.28z"/>
			<path class="st0" d="M57.38,5.71c0.01,0.6,0.43,0.85,0.92,0.85c0.35,0,0.57-0.06,0.75-0.12l0.09,0.31
				c-0.17,0.07-0.48,0.16-0.91,0.16c-0.83,0-1.33-0.5-1.33-1.23c0-0.74,0.49-1.32,1.27-1.32c0.88,0,1.11,0.7,1.11,1.15
				c0,0.09-0.01,0.16-0.02,0.21L57.38,5.71z M58.82,5.39c0.01-0.28-0.13-0.72-0.68-0.72c-0.5,0-0.72,0.41-0.75,0.72H58.82z"/>
		</g>
	</g>
</g>
</svg>
