<?xml version="1.0" encoding="utf-8"?>
<!-- Generator: Adobe Illustrator 24.0.2, SVG Export Plug-In . SVG Version: 6.00 Build 0)  -->
<svg version="1.1" id="Layer_1" xmlns="http://www.w3.org/2000/svg" xmlns:xlink="http://www.w3.org/1999/xlink" x="0px" y="0px"
	 viewBox="0 0 63.87 20.89" style="enable-background:new 0 0 63.87 20.89;" xml:space="preserve">
<style type="text/css">
	.st0{clip-path:url(#SVGID_2_);fill:url(#SVGID_3_);}
	.st1{clip-path:url(#SVGID_2_);fill:url(#SVGID_4_);}
	.st2{clip-path:url(#SVGID_2_);fill:url(#SVGID_5_);}
	.st3{clip-path:url(#SVGID_2_);fill:url(#SVGID_6_);}
	.st4{fill:#F9F9F9;}
	.st5{fill:#F9F9FA;}
	.st6{display:none;}
	.st7{display:inline;}
	.st8{fill:#FFFFFF;}
</style>
<g>
	<path d="M63.87,17.92c0,1.53-1.26,2.77-2.82,2.77H2.82C1.26,20.69,0,19.45,0,17.92V2.97C0,1.44,1.26,0.2,2.82,0.2h58.23
		c1.56,0,2.82,1.24,2.82,2.77V17.92z"/>
	<g id="PLAY_2_">
		<defs>
			<path id="SVGID_1_" d="M13.84,9.22l-2.88-1.63c0,0-5.25-2.97-5.56-3.14C5.1,4.27,4.79,4.38,4.79,4.74c0,0.61,0,6.34,0,6.34
				s0,6.2,0,6.47c0,0.27,0.22,0.39,0.49,0.24c0.27-0.15,5.68-3.22,5.68-3.22l2.88-1.63c0,0,2.44-1.38,2.77-1.57
				c0.32-0.18,0.29-0.44,0.02-0.58C16.36,10.65,13.84,9.22,13.84,9.22z"/>
		</defs>
		<clipPath id="SVGID_2_">
			<use xlink:href="#SVGID_1_"  style="overflow:visible;"/>
		</clipPath>
		<linearGradient id="SVGID_3_" gradientUnits="userSpaceOnUse" x1="8.3587" y1="4.1485" x2="8.3587" y2="18.0203">
			<stop  offset="0" style="stop-color:#257CB0"/>
			<stop  offset="0.2863" style="stop-color:#4A93B5"/>
			<stop  offset="0.767" style="stop-color:#78BCBB"/>
			<stop  offset="1" style="stop-color:#89CFBD"/>
		</linearGradient>
		<polygon class="st0" points="4.79,4.15 4.79,11.08 4.79,18.02 11.93,11.08 		"/>
		<linearGradient id="SVGID_4_" gradientUnits="userSpaceOnUse" x1="4.7913" y1="7.5913" x2="13.8424" y2="7.5913">
			<stop  offset="0" style="stop-color:#52C1AD"/>
			<stop  offset="1" style="stop-color:#DEE89A"/>
		</linearGradient>
		<polygon class="st1" points="13.84,9.22 10.96,7.59 4.79,4.1 4.79,4.15 11.93,11.08 		"/>
		<linearGradient id="SVGID_5_" gradientUnits="userSpaceOnUse" x1="9.3168" y1="11.0845" x2="9.3168" y2="18.0708">
			<stop  offset="0" style="stop-color:#EC413D"/>
			<stop  offset="0.1668" style="stop-color:#DA4452"/>
			<stop  offset="0.5748" style="stop-color:#B0487A"/>
			<stop  offset="0.8619" style="stop-color:#954A92"/>
			<stop  offset="1" style="stop-color:#8A4A9D"/>
		</linearGradient>
		<polygon class="st2" points="4.79,18.02 4.79,18.07 10.96,14.58 13.84,12.95 11.93,11.08 		"/>
		<linearGradient id="SVGID_6_" gradientUnits="userSpaceOnUse" x1="14.5299" y1="9.2215" x2="14.5299" y2="12.9473">
			<stop  offset="0" style="stop-color:#F58879"/>
			<stop  offset="0.1194" style="stop-color:#F69079"/>
			<stop  offset="0.7128" style="stop-color:#FCB877"/>
			<stop  offset="1" style="stop-color:#FEC874"/>
		</linearGradient>
		<polygon class="st3" points="13.84,9.22 11.93,11.08 13.84,12.95 17.13,11.08 		"/>
	</g>
	<g>
		<path class="st4" d="M49.71,13.8c-0.27,0-0.51-0.05-0.73-0.15c-0.22-0.1-0.41-0.25-0.56-0.45h-0.04c0.03,0.24,0.04,0.46,0.04,0.67
			v1.66h-0.62V9.69h0.51l0.09,0.55h0.03c0.16-0.22,0.35-0.38,0.56-0.48c0.21-0.1,0.46-0.15,0.73-0.15c0.55,0,0.97,0.18,1.26,0.55
			c0.3,0.37,0.45,0.88,0.45,1.54c0,0.66-0.15,1.18-0.45,1.54C50.66,13.61,50.25,13.8,49.71,13.8z M49.62,10.13
			c-0.42,0-0.72,0.11-0.91,0.34c-0.19,0.23-0.28,0.59-0.29,1.09v0.14c0,0.57,0.1,0.97,0.29,1.22c0.19,0.24,0.5,0.37,0.93,0.37
			c0.36,0,0.63-0.14,0.84-0.42c0.2-0.28,0.3-0.67,0.3-1.17c0-0.5-0.1-0.89-0.3-1.16C50.27,10.27,49.98,10.13,49.62,10.13z"/>
		<path class="st4" d="M52.86,13.72h-0.62V8h0.62V13.72z"/>
		<path class="st4" d="M56.44,13.72l-0.12-0.57h-0.03c-0.21,0.25-0.41,0.42-0.61,0.51c-0.2,0.09-0.46,0.13-0.76,0.13
			c-0.41,0-0.73-0.1-0.96-0.31c-0.23-0.21-0.35-0.5-0.35-0.88c0-0.81,0.66-1.24,1.99-1.28l0.7-0.02v-0.25c0-0.32-0.07-0.55-0.21-0.7
			c-0.14-0.15-0.36-0.23-0.67-0.23c-0.34,0-0.73,0.1-1.16,0.31l-0.19-0.47c0.2-0.11,0.42-0.19,0.67-0.25
			c0.24-0.06,0.48-0.09,0.73-0.09c0.49,0,0.85,0.11,1.09,0.32c0.24,0.21,0.35,0.56,0.35,1.03v2.75H56.44z M55.04,13.29
			c0.39,0,0.69-0.1,0.91-0.31c0.22-0.21,0.33-0.5,0.33-0.88v-0.36l-0.62,0.03c-0.5,0.02-0.85,0.09-1.07,0.23
			c-0.22,0.13-0.33,0.34-0.33,0.62c0,0.22,0.07,0.39,0.2,0.5C54.6,13.23,54.79,13.29,55.04,13.29z"/>
		<path class="st4" d="M57.27,9.69h0.67l0.9,2.3c0.2,0.53,0.32,0.9,0.37,1.14h0.03c0.03-0.13,0.1-0.34,0.2-0.64
			c0.1-0.3,0.44-1.23,1.02-2.8h0.67l-1.77,4.59c-0.18,0.45-0.38,0.78-0.61,0.97c-0.23,0.19-0.52,0.28-0.86,0.28
			c-0.19,0-0.38-0.02-0.56-0.06v-0.49c0.14,0.03,0.29,0.04,0.46,0.04c0.43,0,0.73-0.24,0.92-0.71l0.23-0.57L57.27,9.69z"/>
	</g>
	<g>
		<path class="st4" d="M38.16,10.06c0.2,0.16,0.61,0.5,0.61,1.14c0,0.62-0.36,0.92-0.72,1.2c-0.11,0.11-0.24,0.23-0.24,0.41
			c0,0.19,0.13,0.29,0.22,0.36l0.31,0.24c0.38,0.31,0.72,0.6,0.72,1.18c0,0.79-0.78,1.59-2.26,1.59c-1.25,0-1.85-0.58-1.85-1.21
			c0-0.3,0.15-0.73,0.66-1.03c0.53-0.32,1.26-0.36,1.64-0.39C37.14,13.41,37,13.25,37,12.99c0-0.14,0.04-0.23,0.09-0.33
			c-0.1,0.01-0.19,0.02-0.28,0.02c-0.91,0-1.43-0.67-1.43-1.32c0-0.39,0.18-0.82,0.55-1.13c0.49-0.4,1.08-0.46,1.54-0.46h1.77
			l-0.55,0.3H38.16z M37.55,13.81c-0.07-0.01-0.11-0.01-0.2-0.01c-0.08,0-0.54,0.02-0.9,0.14c-0.19,0.07-0.74,0.27-0.74,0.87
			c0,0.6,0.59,1.03,1.52,1.03c0.83,0,1.27-0.39,1.27-0.91C38.49,14.49,38.21,14.27,37.55,13.81z M37.8,12.21
			c0.2-0.19,0.21-0.46,0.21-0.62c0-0.61-0.37-1.55-1.08-1.55c-0.22,0-0.46,0.11-0.6,0.28c-0.15,0.18-0.19,0.4-0.19,0.62
			c0,0.57,0.34,1.5,1.08,1.5C37.43,12.44,37.66,12.34,37.8,12.21z"/>
		<path class="st4" d="M32.75,13.67c-1.37,0-2.1-1.04-2.1-1.99c0-1.1,0.92-2.05,2.23-2.05c1.26,0,2.05,0.97,2.05,1.99
			C34.93,12.62,34.15,13.67,32.75,13.67z M33.82,12.99c0.21-0.27,0.26-0.61,0.26-0.94c0-0.74-0.36-2.16-1.43-2.16
			c-0.28,0-0.57,0.11-0.77,0.29c-0.34,0.29-0.4,0.67-0.4,1.03c0,0.83,0.42,2.21,1.46,2.21C33.28,13.42,33.62,13.26,33.82,12.99z"/>
		<path class="st4" d="M28.09,13.67c-1.37,0-2.1-1.04-2.1-1.99c0-1.1,0.92-2.05,2.23-2.05c1.26,0,2.05,0.97,2.05,1.99
			C30.27,12.62,29.49,13.67,28.09,13.67z M29.16,12.99c0.21-0.27,0.26-0.61,0.26-0.94c0-0.74-0.36-2.16-1.43-2.16
			c-0.28,0-0.57,0.11-0.77,0.29c-0.34,0.29-0.4,0.67-0.4,1.03c0,0.83,0.42,2.21,1.46,2.21C28.62,13.42,28.97,13.26,29.16,12.99z"/>
		<path class="st4" d="M25.34,13.54l-1.24,0.28c-0.5,0.08-0.95,0.14-1.43,0.14c-2.38,0-3.29-1.72-3.29-3.07
			c0-1.64,1.29-3.17,3.49-3.17c0.47,0,0.92,0.07,1.32,0.18c0.65,0.18,0.95,0.4,1.14,0.53L24.62,9.1l-0.3,0.07l0.22-0.34
			c-0.29-0.28-0.83-0.8-1.85-0.8c-1.37,0-2.39,1.02-2.39,2.5c0,1.59,1.18,3.09,3.06,3.09c0.55,0,0.84-0.11,1.1-0.21v-1.36l-1.3,0.07
			l0.69-0.36h1.83l-0.22,0.21c-0.06,0.05-0.07,0.07-0.09,0.14c-0.01,0.08-0.02,0.32-0.02,0.41V13.54z"/>
		<path class="st4" d="M40.89,13.3c-0.29-0.03-0.34-0.08-0.34-0.41V12.8V8.1c0-0.02,0-0.04,0-0.05c0.03-0.3,0.12-0.35,0.39-0.5
			h-1.24l-0.65,0.31h0.66v0l0,0v4.95v0.28c0,0.17-0.03,0.19-0.23,0.45h1.53l0.32-0.19C41.19,13.32,41.04,13.32,40.89,13.3z"/>
		<path class="st4" d="M44.41,13.38c-0.09,0.05-0.19,0.11-0.28,0.15c-0.28,0.13-0.58,0.16-0.83,0.16c-0.27,0-0.7-0.02-1.14-0.33
			c-0.61-0.42-0.87-1.14-0.87-1.77c0-1.3,1.08-1.94,1.96-1.94c0.31,0,0.63,0.08,0.88,0.24c0.43,0.28,0.54,0.64,0.6,0.83l-2.02,0.8
			l-0.66,0.05c0.21,1.07,0.95,1.69,1.77,1.69c0.44,0,0.76-0.15,1.05-0.29L44.41,13.38z M43.6,10.87c0.16-0.06,0.25-0.11,0.25-0.23
			c0-0.34-0.39-0.72-0.85-0.72c-0.34,0-0.99,0.26-0.99,1.17c0,0.14,0.02,0.29,0.03,0.45L43.6,10.87z"/>
		<g>
			<path class="st4" d="M45.24,9.7v0.56h-0.07V9.7h-0.19V9.64h0.44V9.7H45.24z"/>
			<path class="st4" d="M46.01,10.25V9.69h0l-0.17,0.56h-0.05L45.6,9.69h0v0.56h-0.06V9.64h0.11l0.16,0.5h0l0.16-0.5h0.11v0.61
				H46.01z"/>
		</g>
	</g>
	<g>
		<path class="st5" d="M21.1,6.08h-0.43c0-0.06-0.04-0.22-0.12-0.49h-0.62c-0.08,0.27-0.13,0.43-0.13,0.49h-0.4
			c0-0.03,0.1-0.31,0.31-0.84c0.21-0.53,0.31-0.82,0.31-0.87h0.51c0,0.05,0.09,0.34,0.28,0.86C21,5.75,21.1,6.04,21.1,6.08z
			 M20.48,5.34c-0.15-0.45-0.23-0.7-0.23-0.73h-0.02c0,0.03-0.08,0.28-0.24,0.73H20.48z"/>
		<path class="st5" d="M22.83,6.08H22.5c0-0.04-0.12-0.23-0.37-0.57c-0.26-0.36-0.4-0.61-0.44-0.74h-0.02
			c0.02,0.19,0.03,0.37,0.03,0.52c0,0.22,0.01,0.48,0.02,0.79h-0.33c0.01-0.27,0.02-0.57,0.02-0.9c0-0.32-0.01-0.59-0.02-0.82h0.4
			c0,0.05,0.11,0.23,0.33,0.56c0.24,0.34,0.37,0.58,0.41,0.7h0.02c-0.02-0.2-0.03-0.37-0.03-0.53c0-0.24-0.01-0.48-0.02-0.73h0.34
			c-0.01,0.22-0.02,0.49-0.02,0.82C22.81,5.52,22.82,5.82,22.83,6.08z"/>
		<path class="st5" d="M24.77,5.17c0,0.25-0.08,0.47-0.24,0.65c-0.16,0.19-0.39,0.28-0.68,0.28c-0.13,0-0.31-0.01-0.55-0.02
			c0.01-0.26,0.02-0.56,0.02-0.9c0-0.32-0.01-0.59-0.02-0.82h0.23c0.04,0,0.1,0,0.17,0c0.08,0,0.13,0,0.15,0
			c0.32,0,0.56,0.08,0.7,0.24C24.7,4.76,24.77,4.95,24.77,5.17z M24.41,5.22c0-0.17-0.05-0.31-0.15-0.43
			C24.16,4.68,24,4.63,23.8,4.63c-0.04,0-0.09,0-0.16,0.01c0.01,0.18,0.01,0.36,0.01,0.55c0,0.21,0,0.42,0.01,0.62
			c0.06,0.01,0.12,0.02,0.17,0.02c0.19,0,0.33-0.06,0.43-0.18C24.36,5.54,24.41,5.39,24.41,5.22z"/>
		<path class="st5" d="M26.57,6.08h-0.4c-0.1-0.31-0.18-0.5-0.24-0.57c-0.06-0.07-0.14-0.11-0.27-0.11c-0.05,0-0.1,0-0.15,0
			c0,0.23,0,0.45,0.01,0.68h-0.37c0.01-0.26,0.02-0.56,0.02-0.9c0-0.32-0.01-0.59-0.02-0.82h0.23c0.03,0,0.08,0,0.17,0
			c0.09,0,0.16,0,0.24,0c0.41,0,0.62,0.14,0.62,0.41c0,0.22-0.12,0.37-0.35,0.46v0.02c0.09,0.02,0.17,0.09,0.24,0.21
			C26.36,5.57,26.45,5.78,26.57,6.08z M26.06,4.87c0-0.17-0.11-0.26-0.34-0.26c-0.08,0-0.16,0.01-0.22,0.02
			c0.01,0.14,0.01,0.31,0.01,0.53c0.05,0,0.09,0,0.12,0C25.92,5.16,26.06,5.07,26.06,4.87z"/>
		<path class="st5" d="M28.49,5.2c0,0.27-0.08,0.49-0.25,0.67c-0.17,0.18-0.38,0.27-0.62,0.27c-0.24,0-0.43-0.08-0.59-0.24
			c-0.16-0.16-0.24-0.37-0.24-0.62c0-0.27,0.08-0.49,0.25-0.67c0.17-0.18,0.38-0.27,0.62-0.27c0.24,0,0.43,0.08,0.59,0.24
			C28.41,4.74,28.49,4.94,28.49,5.2z M28.12,5.23c0-0.18-0.05-0.33-0.14-0.45c-0.1-0.11-0.21-0.17-0.35-0.17
			c-0.13,0-0.24,0.06-0.33,0.17c-0.09,0.11-0.14,0.26-0.14,0.44c0,0.18,0.05,0.33,0.14,0.45c0.1,0.11,0.21,0.17,0.35,0.17
			c0.13,0,0.24-0.06,0.33-0.17C28.07,5.55,28.12,5.41,28.12,5.23z"/>
		<path class="st5" d="M29.25,6.08h-0.38c0.01-0.27,0.02-0.57,0.02-0.9c0-0.32-0.01-0.59-0.02-0.82h0.38
			c-0.01,0.22-0.02,0.49-0.02,0.82C29.23,5.52,29.24,5.82,29.25,6.08z"/>
		<path class="st5" d="M31.19,5.17c0,0.25-0.08,0.47-0.24,0.65c-0.16,0.19-0.39,0.28-0.68,0.28c-0.13,0-0.31-0.01-0.55-0.02
			c0.01-0.26,0.02-0.56,0.02-0.9c0-0.32-0.01-0.59-0.02-0.82h0.23c0.04,0,0.1,0,0.17,0c0.08,0,0.13,0,0.15,0
			c0.32,0,0.56,0.08,0.7,0.24C31.12,4.76,31.19,4.95,31.19,5.17z M30.83,5.22c0-0.17-0.05-0.31-0.15-0.43
			c-0.1-0.12-0.25-0.17-0.46-0.17c-0.04,0-0.09,0-0.16,0.01c0.01,0.18,0.01,0.36,0.01,0.55c0,0.21,0,0.42,0.01,0.62
			c0.06,0.01,0.12,0.02,0.17,0.02c0.19,0,0.33-0.06,0.43-0.18C30.78,5.54,30.83,5.39,30.83,5.22z"/>
		<path class="st5" d="M33.77,6.08h-0.43c0-0.06-0.04-0.22-0.12-0.49H32.6c-0.08,0.27-0.13,0.43-0.13,0.49h-0.4
			c0-0.03,0.1-0.31,0.31-0.84c0.21-0.53,0.31-0.82,0.31-0.87h0.51c0,0.05,0.09,0.34,0.28,0.86C33.68,5.75,33.77,6.04,33.77,6.08z
			 M33.15,5.34c-0.15-0.45-0.23-0.7-0.23-0.73H32.9c0,0.03-0.08,0.28-0.24,0.73H33.15z"/>
		<path class="st5" d="M35.34,4.82c0,0.21-0.08,0.36-0.24,0.46c-0.16,0.1-0.35,0.15-0.58,0.15c-0.04,0-0.07,0-0.09,0
			c0,0.16,0,0.38,0.01,0.65h-0.38c0.01-0.25,0.02-0.55,0.02-0.9c0-0.32-0.01-0.59-0.02-0.82h0.23c0.03,0,0.1,0,0.19,0
			c0.09,0,0.18,0,0.24,0c0.17,0,0.31,0.04,0.43,0.11C35.28,4.55,35.34,4.67,35.34,4.82z M34.99,4.89c0-0.19-0.13-0.28-0.38-0.28
			c-0.06,0-0.13,0.01-0.2,0.02c0.01,0.17,0.01,0.35,0.01,0.56c0.02,0,0.05,0,0.08,0C34.83,5.2,34.99,5.09,34.99,4.89z"/>
		<path class="st5" d="M36.95,4.82c0,0.21-0.08,0.36-0.24,0.46c-0.16,0.1-0.35,0.15-0.58,0.15c-0.04,0-0.07,0-0.09,0
			c0,0.16,0,0.38,0.01,0.65h-0.38c0.01-0.25,0.02-0.55,0.02-0.9c0-0.32-0.01-0.59-0.02-0.82h0.23c0.03,0,0.1,0,0.19,0
			c0.09,0,0.18,0,0.24,0c0.17,0,0.31,0.04,0.43,0.11C36.89,4.55,36.95,4.67,36.95,4.82z M36.6,4.89c0-0.19-0.13-0.28-0.38-0.28
			c-0.06,0-0.13,0.01-0.2,0.02c0.01,0.17,0.01,0.35,0.01,0.56c0.02,0,0.05,0,0.08,0C36.44,5.2,36.6,5.09,36.6,4.89z"/>
		<path class="st5" d="M39.58,5.2c0,0.27-0.08,0.49-0.25,0.67c-0.17,0.18-0.38,0.27-0.62,0.27c-0.24,0-0.43-0.08-0.59-0.24
			c-0.16-0.16-0.24-0.37-0.24-0.62c0-0.27,0.08-0.49,0.25-0.67c0.17-0.18,0.38-0.27,0.62-0.27c0.24,0,0.43,0.08,0.59,0.24
			C39.5,4.74,39.58,4.94,39.58,5.2z M39.21,5.23c0-0.18-0.05-0.33-0.14-0.45c-0.1-0.11-0.21-0.17-0.35-0.17
			c-0.13,0-0.24,0.06-0.33,0.17c-0.09,0.11-0.14,0.26-0.14,0.44c0,0.18,0.05,0.33,0.14,0.45c0.1,0.11,0.21,0.17,0.35,0.17
			c0.13,0,0.24-0.06,0.33-0.17C39.16,5.55,39.21,5.41,39.21,5.23z"/>
		<path class="st5" d="M41.39,6.08h-0.33c0-0.04-0.12-0.23-0.37-0.57c-0.26-0.36-0.4-0.61-0.44-0.74h-0.02
			c0.02,0.19,0.03,0.37,0.03,0.52c0,0.22,0.01,0.48,0.02,0.79h-0.33c0.01-0.27,0.02-0.57,0.02-0.9c0-0.32-0.01-0.59-0.02-0.82h0.4
			c0,0.05,0.11,0.23,0.33,0.56c0.24,0.34,0.37,0.58,0.41,0.7h0.02c-0.02-0.2-0.03-0.37-0.03-0.53c0-0.24-0.01-0.48-0.02-0.73h0.34
			c-0.01,0.22-0.02,0.49-0.02,0.82C41.38,5.52,41.38,5.82,41.39,6.08z"/>
	</g>
</g>
<g class="st6">
	<path class="st7" d="M63.87,18.07c0,1.56-1.26,2.82-2.82,2.82H2.82C1.26,20.89,0,19.63,0,18.07V2.82C0,1.26,1.26,0,2.82,0h58.23
		c1.56,0,2.82,1.26,2.82,2.82V18.07z"/>
	<g class="st7">
		<path class="st8" d="M16.66,13.81c-0.34,0.75-0.5,1.08-0.94,1.75c-0.61,0.92-1.46,2.08-2.52,2.09c-0.94,0.01-1.18-0.61-2.46-0.61
			c-1.28,0.01-1.55,0.62-2.49,0.61c-1.06-0.01-1.87-1.05-2.48-1.97c-1.7-2.59-1.88-5.62-0.83-7.23c0.74-1.15,1.92-1.82,3.02-1.82
			c1.12,0,1.83,0.62,2.76,0.62c0.9,0,1.45-0.62,2.75-0.62c0.98,0,2.02,0.53,2.77,1.46C13.81,9.41,14.2,12.88,16.66,13.81z"/>
		<g>
			<path class="st8" d="M12.48,5.59c0.47-0.61,0.83-1.46,0.7-2.34c-0.77,0.05-1.67,0.54-2.2,1.18c-0.48,0.58-0.87,1.44-0.72,2.28
				C11.11,6.74,11.98,6.24,12.48,5.59z"/>
		</g>
	</g>
	<g class="st7">
		<g>
			<path class="st8" d="M21.83,8.4l-2.43,7.16h1.11l0.73-2.2h2.36l0.75,2.2h1.15L23.04,8.4H21.83z M22.41,9.58
				c0.08,0.32,0.17,0.65,0.28,1.01l0.66,1.9h-1.87l0.65-1.91C22.23,10.26,22.32,9.93,22.41,9.58z"/>
			<path class="st8" d="M28.64,10.25c-0.74,0-1.33,0.28-1.72,0.83l-0.04-0.71h-0.99l0.01,0.09c0.03,0.44,0.04,0.93,0.04,1.63v5.52
				h1.08v-2.58c0.34,0.4,0.87,0.64,1.48,0.64c0.63,0,1.22-0.25,1.64-0.7c0.47-0.5,0.73-1.22,0.73-2.08c0-0.76-0.22-1.42-0.63-1.9
				C29.83,10.52,29.26,10.25,28.64,10.25z M28.37,11.15c0.97,0,1.4,0.89,1.4,1.78c0,1.14-0.55,1.85-1.44,1.85
				c-0.61,0-1.13-0.41-1.28-1.01c-0.03-0.09-0.04-0.21-0.04-0.35v-0.87c0-0.08,0.02-0.17,0.03-0.27c0.01-0.03,0.01-0.06,0.02-0.09
				C27.22,11.58,27.76,11.15,28.37,11.15z"/>
			<path class="st8" d="M34.22,10.25c-0.74,0-1.33,0.28-1.72,0.83l-0.04-0.71h-0.99l0.01,0.09c0.03,0.44,0.04,0.93,0.04,1.63v5.52
				h1.08v-2.58c0.34,0.4,0.87,0.64,1.48,0.64c0.63,0,1.22-0.25,1.64-0.7c0.47-0.5,0.72-1.22,0.72-2.08c0-0.76-0.22-1.42-0.63-1.9
				C35.41,10.52,34.84,10.25,34.22,10.25z M33.95,11.15c0.97,0,1.4,0.89,1.4,1.78c0,1.14-0.55,1.85-1.44,1.85
				c-0.61,0-1.13-0.41-1.28-1.01c-0.03-0.09-0.04-0.21-0.04-0.35v-0.87c0-0.08,0.02-0.18,0.03-0.27c0.01-0.03,0.01-0.06,0.02-0.09
				C32.8,11.58,33.34,11.15,33.95,11.15z"/>
			<path class="st8" d="M41.21,11.43c-1.01-0.39-1.34-0.7-1.34-1.27c0-0.48,0.38-0.96,1.23-0.96c0.7,0,1.15,0.24,1.27,0.32
				l0.09,0.06l0.31-0.9l-0.06-0.04c-0.18-0.11-0.7-0.35-1.58-0.35c-1.38,0-2.35,0.82-2.35,1.98c0,0.94,0.6,1.6,1.9,2.07
				c0.92,0.34,1.26,0.7,1.26,1.3c0,0.68-0.53,1.11-1.38,1.11c-0.55,0-1.12-0.16-1.56-0.44l-0.09-0.06l-0.29,0.93l0.05,0.04
				c0.41,0.27,1.18,0.47,1.83,0.47c1.86,0,2.52-1.14,2.52-2.11C43.04,12.56,42.51,11.95,41.21,11.43z"/>
			<path class="st8" d="M44.99,9.14l-1.06,0.33v0.9h-0.78v0.87h0.78v2.65c0,0.64,0.12,1.09,0.38,1.37c0.24,0.27,0.61,0.41,1.05,0.41
				c0.41,0,0.7-0.08,0.84-0.13l0.06-0.02l-0.05-0.87l-0.1,0.03c-0.14,0.04-0.28,0.06-0.5,0.06c-0.42,0-0.6-0.27-0.6-0.89v-2.62h1.31
				v-0.87h-1.31V9.14z"/>
			<path class="st8" d="M48.98,10.25c-1.52,0-2.58,1.13-2.58,2.75c0,1.57,1.02,2.67,2.49,2.67h0.01c1.24,0,2.58-0.86,2.58-2.76
				c0-0.77-0.24-1.43-0.69-1.92C50.34,10.51,49.71,10.25,48.98,10.25z M48.95,11.11c0.97,0,1.42,0.95,1.42,1.83
				c0,1.09-0.61,1.87-1.44,1.87h-0.01c-0.82,0-1.42-0.78-1.42-1.84C47.5,12.05,47.95,11.11,48.95,11.11z"/>
			<path class="st8" d="M54.8,10.31l-0.07-0.02c-0.1-0.02-0.17-0.03-0.27-0.03c-0.57,0-1.08,0.33-1.36,0.87l-0.03-0.76H52.1
				l0.01,0.09c0.03,0.43,0.04,0.91,0.04,1.56l-0.01,3.54h1.08V12.8c0-0.15,0.01-0.29,0.03-0.42c0.12-0.66,0.57-1.09,1.14-1.09
				c0.11,0,0.2,0.01,0.29,0.02l0.12,0.01V10.31z"/>
			<path class="st8" d="M57.24,10.24c-1.44,0-2.45,1.15-2.45,2.8c0,1.59,1,2.62,2.55,2.62c0.82,0,1.38-0.18,1.72-0.33l0.07-0.03
				l-0.21-0.81l-0.09,0.04c-0.3,0.12-0.69,0.24-1.36,0.24c-0.47,0-1.56-0.16-1.62-1.57l3.5,0.01l0.01-0.07
				c0.02-0.11,0.03-0.26,0.03-0.45C59.39,11.56,58.82,10.24,57.24,10.24z M57.17,11.07c0.33,0,0.6,0.1,0.8,0.3
				c0.31,0.32,0.37,0.78,0.37,1.01h-2.47C55.96,11.76,56.35,11.07,57.17,11.07z"/>
		</g>
		<g>
			<path class="st8" d="M19.4,3.51c0.3-0.04,0.65-0.07,1.04-0.07c0.7,0,1.2,0.14,1.53,0.42c0.34,0.28,0.54,0.67,0.54,1.22
				c0,0.55-0.2,1.01-0.54,1.32c-0.36,0.32-0.94,0.49-1.67,0.49c-0.35,0-0.64-0.01-0.89-0.04V3.51z M19.89,6.51
				c0.12,0.02,0.3,0.02,0.49,0.02c1.04,0,1.6-0.52,1.6-1.44c0.01-0.81-0.5-1.31-1.53-1.31c-0.25,0-0.44,0.02-0.57,0.05V6.51z"/>
			<path class="st8" d="M24.24,6.91c-0.73,0-1.3-0.48-1.3-1.25c0-0.81,0.6-1.29,1.34-1.29c0.78,0,1.3,0.51,1.3,1.25
				C25.59,6.51,24.89,6.91,24.24,6.91L24.24,6.91z M24.26,6.57c0.47,0,0.82-0.4,0.82-0.95c0-0.41-0.23-0.93-0.81-0.93
				c-0.58,0-0.83,0.48-0.83,0.95C23.44,6.17,23.78,6.57,24.26,6.57L24.26,6.57z"/>
			<path class="st8" d="M26.37,4.42l0.36,1.23c0.07,0.27,0.15,0.53,0.2,0.78h0.02c0.06-0.25,0.15-0.51,0.24-0.77l0.44-1.24h0.41
				l0.42,1.22c0.1,0.29,0.18,0.55,0.24,0.79h0.02c0.04-0.25,0.12-0.5,0.21-0.79l0.39-1.22h0.49l-0.87,2.43h-0.45l-0.41-1.16
				c-0.09-0.28-0.17-0.52-0.24-0.8h-0.01c-0.07,0.29-0.15,0.55-0.25,0.81l-0.44,1.16h-0.45l-0.82-2.43H26.37z"/>
			<path class="st8" d="M30.29,5.07c0-0.26-0.01-0.46-0.02-0.66h0.44l0.03,0.4h0.01c0.13-0.23,0.45-0.45,0.89-0.45
				c0.37,0,0.96,0.2,0.96,1.04v1.45H32.1v-1.4c0-0.39-0.16-0.72-0.63-0.72c-0.32,0-0.57,0.21-0.66,0.45
				c-0.02,0.06-0.03,0.14-0.03,0.21v1.47h-0.49V5.07z"/>
			<path class="st8" d="M33.39,3.28h0.49v3.57h-0.49V3.28z"/>
			<path class="st8" d="M35.8,6.91c-0.73,0-1.3-0.48-1.3-1.25c0-0.81,0.6-1.29,1.34-1.29c0.78,0,1.3,0.51,1.3,1.25
				C37.14,6.51,36.44,6.91,35.8,6.91L35.8,6.91z M35.81,6.57c0.47,0,0.82-0.4,0.82-0.95c0-0.41-0.23-0.93-0.81-0.93
				C35.25,4.69,35,5.18,35,5.64C35,6.17,35.33,6.57,35.81,6.57L35.81,6.57z"/>
			<path class="st8" d="M39.67,6.27c0,0.21,0.01,0.42,0.04,0.58h-0.44l-0.04-0.31h-0.02c-0.15,0.19-0.44,0.36-0.83,0.36
				c-0.55,0-0.83-0.35-0.83-0.7c0-0.59,0.58-0.91,1.63-0.91V5.25c0-0.2-0.06-0.57-0.61-0.56c-0.26,0-0.52,0.07-0.71,0.18l-0.11-0.3
				c0.22-0.13,0.55-0.21,0.89-0.21c0.83,0,1.03,0.51,1.03,1V6.27z M39.19,5.61c-0.54-0.01-1.15,0.08-1.15,0.55
				c0,0.29,0.21,0.42,0.46,0.42c0.36,0,0.59-0.2,0.66-0.41c0.02-0.05,0.02-0.1,0.02-0.14V5.61z"/>
			<path class="st8" d="M42.79,3.28v2.94c0,0.22,0.01,0.46,0.02,0.63h-0.44l-0.02-0.42h-0.01c-0.15,0.27-0.48,0.48-0.92,0.48
				c-0.65,0-1.16-0.5-1.16-1.24c-0.01-0.81,0.56-1.31,1.21-1.31c0.42,0,0.7,0.18,0.82,0.37h0.01V3.28H42.79z M42.3,5.41
				c0-0.06-0.01-0.13-0.02-0.19c-0.07-0.28-0.34-0.51-0.71-0.51c-0.51,0-0.81,0.4-0.81,0.94c0,0.5,0.27,0.91,0.8,0.91
				c0.33,0,0.63-0.2,0.72-0.53C42.3,5.96,42.3,5.9,42.3,5.83V5.41z"/>
			<path class="st8" d="M45.9,6.91c-0.73,0-1.3-0.48-1.3-1.25c0-0.81,0.6-1.29,1.34-1.29c0.78,0,1.3,0.51,1.3,1.25
				C47.24,6.51,46.54,6.91,45.9,6.91L45.9,6.91z M45.91,6.57c0.47,0,0.82-0.4,0.82-0.95c0-0.41-0.23-0.93-0.81-0.93
				c-0.58,0-0.83,0.48-0.83,0.95C45.1,6.17,45.43,6.57,45.91,6.57L45.91,6.57z"/>
			<path class="st8" d="M47.86,5.07c0-0.26-0.01-0.46-0.02-0.66h0.44l0.03,0.4h0.01c0.13-0.23,0.45-0.45,0.89-0.45
				c0.37,0,0.96,0.2,0.96,1.04v1.45h-0.49v-1.4c0-0.39-0.16-0.72-0.63-0.72c-0.32,0-0.57,0.21-0.66,0.45
				c-0.02,0.06-0.03,0.14-0.03,0.21v1.47h-0.49V5.07z"/>
			<path class="st8" d="M52.74,3.83v0.58h0.7v0.34h-0.7v1.31c0,0.3,0.1,0.47,0.37,0.47c0.13,0,0.21-0.01,0.29-0.03l0.02,0.34
				c-0.09,0.03-0.25,0.06-0.44,0.06c-0.23,0-0.41-0.07-0.53-0.19c-0.13-0.14-0.19-0.35-0.19-0.64V4.75h-0.42V4.42h0.42V3.97
				L52.74,3.83z"/>
			<path class="st8" d="M54,3.28h0.49V4.8h0.01c0.08-0.13,0.2-0.24,0.35-0.31c0.15-0.08,0.32-0.13,0.5-0.13
				c0.36,0,0.94,0.2,0.94,1.04v1.45h-0.49v-1.4c0-0.4-0.16-0.72-0.63-0.72c-0.32,0-0.56,0.2-0.66,0.44
				c-0.03,0.06-0.03,0.13-0.03,0.21v1.47H54V3.28z"/>
			<path class="st8" d="M57.38,5.71c0.01,0.6,0.43,0.85,0.92,0.85c0.35,0,0.57-0.06,0.75-0.12l0.09,0.31
				c-0.17,0.07-0.48,0.16-0.91,0.16c-0.83,0-1.33-0.5-1.33-1.23c0-0.74,0.49-1.32,1.27-1.32c0.88,0,1.11,0.7,1.11,1.15
				c0,0.09-0.01,0.16-0.02,0.21L57.38,5.71z M58.82,5.39c0.01-0.28-0.13-0.72-0.68-0.72c-0.5,0-0.72,0.41-0.75,0.72H58.82z"/>
		</g>
	</g>
</g>
</svg>
