<?xml version="1.0" encoding="utf-8"?>
<!-- Generator: Adobe Illustrator 24.0.2, SVG Export Plug-In . SVG Version: 6.00 Build 0)  -->
<svg version="1.1" id="Layer_1" xmlns="http://www.w3.org/2000/svg" xmlns:xlink="http://www.w3.org/1999/xlink" x="0px" y="0px"
	 viewBox="0 0 150 25.3" style="enable-background:new 0 0 150 25.3;" xml:space="preserve">
<style type="text/css">
	.st0{fill:#FFFFFF;}
</style>
<g>
	<path class="st0" d="M39.02,12.59c0,1.23-0.3,2.16-0.91,2.8c-0.6,0.64-1.49,0.95-2.66,0.95c-1.17,0-2.05-0.31-2.66-0.94
		c-0.6-0.63-0.91-1.56-0.91-2.81V0h-7.06v12.59c0,1.83,0.45,3.46,1.34,4.89c0.9,1.43,2.15,2.54,3.77,3.33
		C31.56,21.61,33.4,22,35.46,22c2.06,0,3.9-0.4,5.52-1.19c1.61-0.79,2.87-1.9,3.77-3.33c0.9-1.43,1.34-3.06,1.34-4.89V0h-7.06V12.59
		z"/>
	<rect x="49.96" class="st0" width="7.22" height="22"/>
	<path class="st0" d="M76.88,1.37C75.1,0.46,73.07,0,70.77,0h-9.53v21.93h9.53c2.34,0,4.39-0.46,6.17-1.39
		c1.77-0.92,3.14-2.23,4.11-3.9c0.97-1.68,1.45-3.62,1.45-5.83c0-2.1-0.49-3.97-1.48-5.61C80.03,3.56,78.65,2.28,76.88,1.37z
		 M74.11,14.68c-0.84,1.01-2.06,1.51-3.65,1.51h-2.17V5.74h2.17c1.64,0,2.86,0.45,3.68,1.35c0.82,0.9,1.23,2.12,1.23,3.65
		C75.36,12.36,74.94,13.67,74.11,14.68z"/>
	<path class="st0" d="M123.19,16.28c-0.56,0.12-1.17,0.18-1.81,0.18c-1.69,0-3.01-0.48-3.95-1.45c-0.95-0.97-1.42-2.32-1.42-4.05
		c0-1.77,0.45-3.14,1.34-4.09c0.9-0.95,2.18-1.42,3.84-1.42c1.21,0,2.56,0.28,4.06,0.83l0.84-4.74c-0.77-0.49-1.7-0.87-2.78-1.13
		C122.23,0.13,121.12,0,120,0c-2.08,0-3.96,0.47-5.63,1.42c-1.67,0.95-2.98,2.26-3.94,3.93C109.48,7.03,109,8.9,109,10.99
		c0,2.04,0.49,3.9,1.48,5.58c0.99,1.68,2.33,3.01,4.03,3.98c1.7,0.97,3.59,1.45,5.67,1.45c2.15,0,4.13-0.52,5.94-1.56l-0.88-4.83
		C124.44,15.93,123.75,16.16,123.19,16.28z"/>
	<path class="st0" d="M142.94,0v12.59c0,1.23-0.3,2.16-0.91,2.8c-0.6,0.64-1.49,0.95-2.66,0.95c-1.17,0-2.05-0.31-2.66-0.94
		c-0.6-0.63-0.91-1.56-0.91-2.81V0h-7.06v12.59c0,1.83,0.45,3.46,1.34,4.89c0.9,1.43,2.15,2.54,3.77,3.33
		c1.61,0.79,3.45,1.19,5.52,1.19c2.06,0,3.9-0.4,5.52-1.19c1.61-0.79,2.87-1.9,3.77-3.33c0.9-1.43,1.34-3.06,1.34-4.89V0H142.94z"/>
	<path class="st0" d="M22.15,11.08C22.15,4.96,17.19,0,11.07,0C4.96,0,0,4.96,0,11.08c0,5.64,4.21,10.29,9.66,10.98
		c3.1,2.16,6.73,3.25,10.36,3.25v-5.63c-0.6,0-1.21-0.04-1.81-0.13C20.62,17.51,22.15,14.47,22.15,11.08z M11.07,6.13
		c2.73,0,4.94,2.21,4.94,4.94s-2.21,4.94-4.94,4.94c-2.73,0-4.94-2.21-4.94-4.94S8.34,6.13,11.07,6.13z"/>
	<path class="st0" d="M95.56,0c-6.12,0-11.07,4.96-11.07,11.08c0,6.12,4.96,11.08,11.07,11.08c6.12,0,11.08-4.96,11.08-11.08
		C106.63,4.96,101.68,0,95.56,0z M95.56,16.02c-2.73,0-4.94-2.21-4.94-4.94s2.22-4.94,4.94-4.94c2.73,0,4.94,2.21,4.94,4.94
		S98.29,16.02,95.56,16.02z"/>
</g>
</svg>
