<?xml version="1.0" encoding="utf-8"?>
<!-- Generator: Adobe Illustrator 24.0.2, SVG Export Plug-In . SVG Version: 6.00 Build 0)  -->
<svg version="1.1" id="Layer_1" xmlns="http://www.w3.org/2000/svg" xmlns:xlink="http://www.w3.org/1999/xlink" x="0px" y="0px"
	 viewBox="0 0 172.2 172.36" style="enable-background:new 0 0 172.2 172.36;" xml:space="preserve">
<style type="text/css">
	.st0{opacity:0.09;}
	.st1{fill:#1D8C87;}
	.st2{opacity:0.29;fill:#1D8C87;}
	.st3{fill:#209A95;}
	.st4{fill:#1E1240;}
	.st5{fill:#F16263;}
	.st6{fill:#322869;}
	.st7{fill:#FDE5E5;}
	.st8{fill:#5F59A6;}
	.st9{fill:url(#SVGID_1_);}
	.st10{fill:#AD273E;}
	.st11{fill:#6BADAA;}
	.st12{fill:#FFFFFF;}
	.st13{fill:#A89BCB;}
	.st14{fill:#1B4471;}
	.st15{fill:url(#SVGID_2_);}
	.st16{clip-path:url(#SVGID_4_);}
	.st17{fill:#E2E2E2;}
	.st18{fill:#DA6077;}
	.st19{fill:#F58E90;}
	.st20{fill:#191347;}
	.st21{fill:#BE4C62;}
	.st22{fill:#A1583E;}
	.st23{fill:#C4795B;}
</style>
<g>
	<g class="st0">
		<path class="st1" d="M76.25,172.36c-38.49,0-69.69-7.76-69.69-17.33c0-9.57,31.2-17.33,69.69-17.33c38.5,0,69.71,7.76,69.71,17.33
			C145.96,164.6,114.76,172.36,76.25,172.36z M76.25,147.29c-17.17,0-31.12,3.46-31.12,7.74c0,4.27,13.94,7.74,31.12,7.74
			c17.19,0,31.12-3.46,31.12-7.74C107.37,150.75,93.44,147.29,76.25,147.29z"/>
		<path class="st1" d="M156.91,134.98c-20.66-5.14-49.18-8.32-80.64-8.32v8.82c21.68,0,41.34,2.19,55.58,5.73L156.91,134.98z"/>
	</g>
	<ellipse class="st2" cx="23.08" cy="134.63" rx="23.08" ry="3.72"/>
	<ellipse class="st2" cx="65.78" cy="154.37" rx="23.08" ry="3.72"/>
	<ellipse class="st2" cx="104.38" cy="162.24" rx="14.48" ry="2.59"/>
	<ellipse class="st2" cx="145.96" cy="156.59" rx="5.43" ry="0.68"/>
	<ellipse class="st2" cx="166.76" cy="156.59" rx="5.43" ry="0.68"/>
	<g>
		<path class="st3" d="M80.37,0C46.42,0,18.89,27.54,18.89,61.5c0,33.96,27.53,61.5,61.48,61.5c33.97,0,61.5-27.54,61.5-61.5
			C141.87,27.54,114.34,0,80.37,0z M80.37,88.95c-15.15,0-27.45-12.29-27.45-27.45s12.3-27.45,27.45-27.45
			c15.16,0,27.45,12.29,27.45,27.45S95.54,88.95,80.37,88.95z"/>
		<path class="st3" d="M151.53,132.64c-18.23,18.23-43.39,29.51-71.15,29.51v-31.28c19.13,0,36.47-7.78,49.04-20.35L151.53,132.64z"
			/>
	</g>
	<g>
		<g>
			<g>
				<g>
					<path class="st4" d="M163.03,156.59c0.13,0,0.26-0.02,0.39-0.06c0.68-0.21,1.09-0.92,0.92-1.58l-23.65-94.31
						c-0.17-0.66-0.85-1.02-1.52-0.81c-0.68,0.21-1.09,0.92-0.92,1.58l23.65,94.31C162.03,156.25,162.5,156.59,163.03,156.59z"/>
				</g>
				<g>
					<path class="st4" d="M143.56,156.59c0.13,0,0.26-0.02,0.39-0.06c0.68-0.21,1.09-0.92,0.92-1.58l-23.65-94.31
						c-0.17-0.66-0.85-1.02-1.52-0.81c-0.68,0.21-1.09,0.92-0.92,1.58l23.65,94.31C142.56,156.25,143.03,156.59,143.56,156.59z"/>
				</g>
				<g>
					<path class="st4" d="M127.73,92.37h19.16c0.69,0,1.3-0.56,1.34-1.26c0.05-0.69-0.47-1.26-1.17-1.26H127.9
						c-0.69,0-1.3,0.56-1.34,1.26C126.51,91.8,127.04,92.37,127.73,92.37z"/>
				</g>
				<g>
					<path class="st4" d="M131.35,108.17h19.39c0.69,0,1.29-0.56,1.34-1.26c0.05-0.69-0.47-1.26-1.17-1.26h-19.39
						c-0.69,0-1.3,0.56-1.34,1.26C130.13,107.61,130.65,108.17,131.35,108.17z"/>
				</g>
				<g>
					<path class="st4" d="M123.88,76.65h19.16c0.69,0,1.3-0.56,1.34-1.26c0.05-0.69-0.47-1.26-1.17-1.26h-19.16
						c-0.69,0-1.29,0.56-1.34,1.26C122.67,76.08,123.19,76.65,123.88,76.65z"/>
				</g>
				<g>
					<path class="st4" d="M135.42,123.97h19.08c0.69,0,1.3-0.56,1.34-1.26c0.05-0.69-0.47-1.26-1.17-1.26H135.6
						c-0.69,0-1.3,0.56-1.34,1.26C134.2,123.41,134.73,123.97,135.42,123.97z"/>
				</g>
				<g>
					<path class="st4" d="M139.45,139.77h19.11c0.69,0,1.3-0.56,1.34-1.26c0.05-0.69-0.47-1.26-1.17-1.26h-19.11
						c-0.69,0-1.3,0.56-1.34,1.26C138.24,139.21,138.76,139.77,139.45,139.77z"/>
				</g>
			</g>
			<path class="st5" d="M119.29,41.78l0.08-0.32c0,0-0.88-1.03-1.87-0.8c-0.99,0.23-0.47,1.4-0.47,1.4L119.29,41.78z"/>
			<g>
				<g>
					<path class="st6" d="M116.83,39.63c0.2-0.06,0.31-0.27,0.25-0.46l-0.89-2.95c-0.17-0.56,0.15-1.16,0.71-1.33l4.22-1.28
						c0.77-0.23,1.2-1.05,0.97-1.82l-0.37-1.22c-0.27-0.88-1.2-1.37-2.07-1.11l-1.91,0.58c-0.2,0.06-0.31,0.27-0.25,0.46
						c0.06,0.2,0.27,0.31,0.46,0.25l1.91-0.58c0.49-0.15,1,0.13,1.15,0.62l0.37,1.22c0.12,0.38-0.1,0.78-0.48,0.9l-4.22,1.28
						c-0.95,0.29-1.49,1.3-1.2,2.25l0.89,2.95C116.43,39.57,116.63,39.68,116.83,39.63z"/>
				</g>
				<path class="st7" d="M109.66,30.98l7.29-2.21c0.95-0.29,1.97,0.25,2.26,1.21c0.29,0.95-0.25,1.97-1.21,2.26l-7.29,2.21
					c-0.95,0.29-1.97-0.25-2.26-1.21C108.17,32.29,108.71,31.27,109.66,30.98z"/>
				<path class="st8" d="M116.7,39.27c0.51-0.15,1.05,0.14,1.21,0.64l1.77,5.89c0.15,0.51-0.14,1.05-0.64,1.21
					c-0.51,0.15-1.05-0.14-1.21-0.64l-1.77-5.89C115.9,39.97,116.19,39.42,116.7,39.27z"/>
				<g>
					<path class="st6" d="M116.25,39.57c0.23,0.7,0.68,1.99,1.08,2.7c0.34,0.6,1.01,0.68,1.49,0.65l0.86,2.88
						c0.15,0.51-0.14,1.05-0.64,1.21c-0.51,0.15-1.05-0.14-1.21-0.64l-1.77-5.89C115.95,40.15,116.04,39.81,116.25,39.57z"/>
				</g>
				<g>
					<linearGradient id="SVGID_1_" gradientUnits="userSpaceOnUse" x1="108.3773" y1="32.5547" x2="119.2826" y2="32.5547">
						<stop  offset="0" style="stop-color:#45C0BA"/>
						<stop  offset="1" style="stop-color:#209993"/>
					</linearGradient>
					<path class="st9" d="M108.53,32c0.58,0.23,2.12,1.3,2.85,1.06c0.9-0.29,0.41-1.89,3.6-1.01c1.27,0.35,2.63-1.08,3.46-1.39
						c0.41-0.15,0.67-0.08,0.84,0.04c-0.08,0.7-0.56,1.32-1.27,1.53l-7.29,2.21c-0.95,0.29-1.97-0.25-2.26-1.21
						C108.33,32.82,108.36,32.38,108.53,32z"/>
				</g>
			</g>
			<path class="st5" d="M146.28,43.63c0,0-0.49,0.63-0.68,1.43c-0.19,0.81,0.19,1.77,0.97,2.03c0.54,0.18,1.96-0.52,1.86-1.61
				C148.33,44.39,146.28,43.63,146.28,43.63z"/>
			<g>
				<path class="st10" d="M147.69,46.8c-0.4,0.27-0.86,0.38-1.12,0.3c-0.57-0.19-0.93-0.77-1-1.39
					C145.95,46.13,146.65,46.69,147.69,46.8z"/>
			</g>
			<g>
				<path class="st5" d="M149.6,50.28c-1.14,2.59-0.17,5.5,1.64,12.08c-3.15,0.09-6.95-3.18-9.42-2.99
					c-1.68,0.13-0.81,2.25-0.81,2.25c3.8,6.73,12.47,7.48,14.59,5.41c4.28-4.19-0.23-12.82-1.51-14.82
					C153.23,50.87,150.6,48.01,149.6,50.28z"/>
				<path class="st10" d="M154.84,53.51c-0.12,0.05-0.24,0.12-0.34,0.21c-1.9,1.66,0.4,5.84,0.4,5.84s0.15,3.11-0.62,4.39
					c-0.77,1.28-2.17,1.53-4.93,1.55c-2.76,0.03-4.03-1.68-6.21-2.99c-0.87-0.52-1.5-0.66-1.94-0.64c4.01,6.93,12.44,7.1,14.42,5.17
					C159.25,63.46,156.52,56.68,154.84,53.51z"/>
				<g>
					<path class="st1" d="M150.34,59.11c-1.19-4.38-1.67-6.71-0.74-8.83c1-2.27,3.63,0.58,4.49,1.93c0.52,0.8,1.56,2.69,2.34,4.93
						C155.32,57.83,153.21,58.85,150.34,59.11z"/>
				</g>
			</g>
			<path class="st6" d="M137.73,104.52c-0.5-0.71-0.65-1.5-0.72-2.15c0,0-1.78,0.84-2.62,1.51c-0.26,0.21-0.68,0.5-1.39,0.81
				c-1.12,0.6-2.49,1.37-2.53,1.75c-0.07,0.64,6.56,0.51,7.65-0.13C138.69,105.98,138.28,105.29,137.73,104.52z"/>
			<path class="st6" d="M153.82,119.3l-0.24-1.33l-2.21,0.15l-0.31,0.63c0,0-2.9,1.5-2.02,2.65c-0.06,0.29,5.11,0.64,5.73-0.19
				C155.2,120.61,153.82,119.3,153.82,119.3z"/>
			<path class="st11" d="M142.68,68.42c2.25,0.42,4.73,0.55,6.98,0.55c2.98,0,5.58-0.23,6.76-0.34c0.13,0.49,0.9,4.31,1.07,4.86
				c1.28,4.13-1.51,15.3-1.72,20.48c-0.07,1.69,3.15,17.51,0.75,23.99c-0.22,0.6-1.28,1.1-3.43,0.93c-0.82-0.07-2.41-0.94-2.49-1.76
				c-0.47-4.98-3.43-24.11-3.43-34.61c-2.9-0.64-10.76-0.49-10,1.68c1.6,4.56,1.96,20.95-1.41,20.85
				c-6.57-0.21-6.29-20.36-5.86-23.07C131.03,74.87,142.04,69.98,142.68,68.42z"/>
			<path class="st1" d="M151.29,73.32c-2.57-0.79,0.48-2.99,3.12-4.52c0.85-0.06,1.54-0.12,2.01-0.17c0.08,0.32,0.44,2.04,0.72,3.35
				C155.91,72.97,153.82,74.1,151.29,73.32z"/>
			<path class="st5" d="M149.19,48.66c0,0-0.31-1.92-0.51-2.7c-0.18-0.68-0.42-1.03-0.76-1.19c-0.73-0.34-1.19,4.19-0.86,4.38
				C147.4,49.34,149.19,48.66,149.19,48.66z"/>
			<path class="st11" d="M142.68,68.42l0.55-4.31c0.21-1.67-0.05-3.37-0.79-4.88c-1.15-2.35-2.48-6.64-0.23-8.66
				c2.99-2.7,9.81-3.6,11.16,1.6c0.75,2.89,0.75,9.55,3.05,16.47c0.51,1.55-1.03,3.78-3.93,4.47
				C145.27,74.81,142.68,68.42,142.68,68.42z"/>
			<g>
				<path class="st1" d="M142.21,50.57c1.15-1.04,2.87-1.81,4.62-2.07c-0.44,1.1-0.95,2.76-0.99,4.55
					c-0.06,3.14,0.39,11.15,2.22,14.41c0.88,1.55,1.52,3.83,1.83,5.93c-5.26-0.14-7.22-4.96-7.22-4.96l0.55-4.31
					c0.21-1.67-0.05-3.37-0.79-4.88C141.29,56.89,139.96,52.6,142.21,50.57z"/>
			</g>
			<path class="st6" d="M148.92,47.12c1.86-0.73,2.69-4,1.04-5.14c-3.47-2.4-3.97-0.09-3.75,1.73c0.11,0.93,0.52,1.55,0.59,1.71
				C147.02,45.87,148.1,47.45,148.92,47.12z"/>
			<path class="st5" d="M146.51,45.4c0,0-0.08-0.41,0.26-0.61c0.33-0.2,0.54,0.23,0.28,0.84C146.79,46.24,146.51,46.05,146.51,45.4z
				"/>
			<path class="st5" d="M143.72,49.9c-1.24-0.36-8.79,2.53-10.55,2.52c-3.09-0.02-11.58-11.7-13.98-9.85
				c-2.4,1.85,5.85,14.78,12.25,16.46c5.19,1.37,11.83-1.12,13.13-2.86C146.96,52.98,145.15,50.31,143.72,49.9z"/>
			<path class="st5" d="M120.23,42.65c0,0-0.71-1.46-1.43-1.43c-0.72,0.04-0.98,0.68-1.76,0.52c-0.78-0.16-1.42,0.35-1.07,0.81
				C116.33,43.01,119.39,45.31,120.23,42.65z"/>
			<g>
				<path class="st1" d="M130.62,79.7c1.78,1.18,4.17,2.5,4.52,1.24c0.55-2.03,8.56-3.57,13.3-3.02c4.74,0.55,6.9,3.69,5.96,4.86
					c-0.94,1.17-2.57,15.7-1.95,18.16c0.62,2.46-0.06,5.54,0.25,6.9c0.23,0.98,3.14,2.71,4.72,3.59c-0.02,2.53-0.26,4.85-0.89,6.53
					c-0.22,0.6-1.28,1.1-3.43,0.93c-0.82-0.07-2.41-0.94-2.49-1.76c-0.47-4.98-3.43-24.11-3.43-34.61c-2.9-0.64-10.76-0.49-10,1.68
					c1.6,4.56,1.96,20.95-1.41,20.85c-6.57-0.21-6.29-20.36-5.86-23.07C130.03,81.2,130.28,80.44,130.62,79.7z"/>
			</g>
			<g>
				<path class="st10" d="M119.19,42.57c0.26-0.2,0.6-0.24,1-0.15c-0.03,0.89,0.03,2.48,0.68,3.61c0.94,1.64,2.87,3.37,5.5,4.47
					c2.63,1.11,1.48,1.97,2.01,3.69c0.53,1.72,4.11,1.97,4.11,1.97l6.3,2.76c-2.32,0.54-4.99,0.72-7.35,0.1
					C125.04,57.35,116.79,44.42,119.19,42.57z"/>
			</g>
			<path class="st1" d="M144.91,55.18c0,0-0.8,3.57-2.18,4.73c-0.09-0.23-0.18-0.46-0.29-0.68c-0.42-0.85-0.86-1.95-1.14-3.11
				L144.91,55.18z"/>
			<g>
				<path class="st11" d="M132.87,52.39c0.1,0.02,0.2,0.03,0.3,0.03c1.77,0.01,9.31-2.88,10.55-2.52c1.43,0.41,3.24,3.08,0.85,6.28
					c-1.17,1.56-6.67,3.73-11.54,3.15C132.2,56.94,132.48,54.25,132.87,52.39z"/>
			</g>
			<g>
				<path class="st1" d="M137.86,55.23c1.72-1.31,0.99-0.41,2.91-0.58c1.46-0.13,3.81-1.68,4.86-2.43c0.25,1.09,0.05,2.47-1.07,3.96
					c-1.17,1.56-6.67,3.73-11.54,3.15c-0.36-1.03-0.51-2.11-0.53-3.16C134.13,56.23,136.71,56.11,137.86,55.23z"/>
			</g>
			<g>
				<path class="st4" d="M148.35,44.21c0.89,0.24,1.89-0.16,2.5-0.47c0.07,1.34-0.71,2.91-1.92,3.39c-0.82,0.32-1.91-1.25-2.12-1.71
					c-0.07-0.16-0.48-0.78-0.59-1.71c-0.04-0.32-0.05-0.67-0.03-0.99C146.57,43.15,147.37,43.94,148.35,44.21z"/>
			</g>
			<path class="st6" d="M149.69,42.42c0,0,0.27-2.54,2.11-2.3c1.85,0.25,1.85,2.99,0.92,3.51c-0.92,0.52-0.8,1.32-0.47,1.5
				c0.33,0.18,0.24,1.03-0.74,0.87C150.53,45.85,149.38,44.33,149.69,42.42z"/>
			<path class="st5" d="M142.52,59.56c0,0-1.72-0.62-3.28-0.28c-1.55,0.34-1.36,1.62-1.04,1.74c0.32,0.12,1.5-0.52,1.73-0.37
				c0.23,0.15-1.59,0.92-0.94,1.29c0.65,0.37,1.79,0.15,2.96,0C142.88,61.83,143.12,60.01,142.52,59.56z"/>
		</g>
	</g>
	<g>
		<path class="st6" d="M104.83,100.69c-0.95,0.25-2.01,2.53-1.04,3.15c0.97,0.62,0.83,1.88,1.44,2c0.61,0.12,2.04-0.88,2.36-1.52
			C107.91,103.67,108.13,99.82,104.83,100.69z"/>
		<path class="st5" d="M103.62,108.02c0.81,3.26-1.3,8.28-5.35,10.8c-9,5.6-11.28-10.39-10.03-10.56c1.8-0.24,5.65,6.79,6.46,7.01
			c1.53,0.41,5.27-4.88,6.24-6.68C101.53,107.51,103.41,107.16,103.62,108.02z"/>
		<path class="st10" d="M97.81,117.3c-0.47,0.22-2.47,1.47-3.58,1.47c-1.11,0-1.64-1.47-2.28-2.7c-0.64-1.22-1.03-0.56-2.13-1.36
			c-1.1-0.81-0.62-4.17-1.14-5.04c-0.18-0.31-0.46-0.44-0.74-0.48c-0.15,3.37,2.63,14.41,10.34,9.62c2.6-1.62,4.39-4.26,5.13-6.81
			C101.58,112.36,98.24,117.1,97.81,117.3z"/>
		<path class="st1" d="M101.11,116.31l-3.34-1.52c0,0,0.36,2.48,1.66,3.2C100.05,117.48,100.61,116.92,101.11,116.31z"/>
		<g>
			<path class="st11" d="M103.62,108.02c-0.21-0.86-2.09-0.51-2.67,0.56c-0.6,1.12-2.28,3.59-3.83,5.2
				c0.51,0.94,1.54,2.46,3.18,3.41C103,114.5,104.28,110.68,103.62,108.02z"/>
		</g>
		<path class="st1" d="M98.89,116.1c0.41,0.4,0.88,0.77,1.42,1.08c2.53-2.52,3.81-6.05,3.41-8.68
			C101.57,109.94,98.9,116.08,98.89,116.1z"/>
		<path class="st5" d="M89.09,108.53l-1.27-1.08c0,0-0.45-0.53-0.69-0.17c-0.14,0.22-0.38,0.28-0.3,0.84
			c0.08,0.56,0.94,1.15,1.5,1.01C88.88,109,89.09,108.53,89.09,108.53z"/>
		<path class="st4" d="M96.55,161.66c0.7-0.32,1.19-0.45,1.67-0.97c0.03-0.03,0.06-0.09,0.08-0.16c0.1-0.28,0.41-0.43,0.69-0.31
			c0.65,0.28,1.88,0.45,2.15,0.89c0.45,0.74,0.56,1.7,0.02,1.97c-1.03,0.52-7.07,0.27-6.97-0.31
			C94.26,162.43,95.5,162.14,96.55,161.66z"/>
		<path class="st4" d="M108.93,161.66c0.7-0.32,1.19-0.45,1.67-0.97c0.03-0.03,0.06-0.09,0.08-0.16c0.1-0.28,0.41-0.43,0.69-0.31
			c0.65,0.28,1.88,0.45,2.15,0.89c0.45,0.74,0.56,1.7,0.02,1.97c-1.03,0.52-7.07,0.27-6.97-0.31
			C106.64,162.43,107.88,162.14,108.93,161.66z"/>
		<path class="st11" d="M112.8,143.45c-0.75-3.82-0.41-7.51-0.02-11.33c0.3-2.93,0.93-6.68-0.39-9.46
			c-1.04-2.41-3.19-4.16-4.38-6.48l0,0c-0.54-1.05-0.76-2.19-0.59-3.36c0.12-0.86,0.73-1.96,0.81-2.83
			c0.17-2.04-1.22-3.79-3.55-3.56c-1.76,0.18-4.41,1.6-4.57,3.53c-0.17,2.1,0.62,4.13,0.36,6.26l0,0c-0.16,1.29-0.85,2.38-1.33,3.57
			c-0.6,1.47-1,3.03-1.37,4.56c-0.73,3.05-1.2,6.16-1.56,9.28c-0.72,6.19-1,12.42-1.08,18.65c-0.04,3.01,0.05,5.75,0.73,6.53
			c2.26,2.65,5.86,3.08,7.93,0.27c2.05-2.77-0.96-9.59-1.32-15.56c-0.18-3.07,0.09-6.01,0.81-9c0.34-1.43,0.68-2.85,1.02-4.28
			c0.22-0.94,0.73-2.09,0.73-3.06l0.71,14.44c-0.11,1.99-0.12,4-0.06,5.99c0.1,3.27,0.27,6.82,1.5,9.9
			c0.57,1.43,1.44,2.47,2.89,3.09c1.59,0.68,4.03,0.96,5.1-0.73c0.7-1.12,0.72-2.62,0.67-3.89c-0.07-1.72-0.39-3.43-0.78-5.1
			C114.47,148.37,113.72,145.88,112.8,143.45z"/>
		<g>
			<path class="st1" d="M101.28,133.61c-0.78,2.2-0.72,6.76-0.28,9.37c0.44,2.61-0.72,2-1,4.84c-0.28,2.83-0.83,8.39-2.45,8.39
				c-0.74,0-1.65-1.01-2.43-2.09c0.03,2.24,0.19,4.08,0.73,4.71c2.26,2.65,5.86,3.08,7.93,0.27c2.05-2.77-0.96-9.59-1.32-15.56
				c-0.18-3.07,0.09-6.01,0.81-9c0.29-1.23,0.59-2.46,0.88-3.7C103.4,131.16,101.86,131.98,101.28,133.61z"/>
		</g>
		<g>
			<path class="st1" d="M115.84,155.99c-0.07-1.72-0.39-3.43-0.78-5.1c-0.58-2.52-1.34-5.02-2.25-7.44
				c-0.75-3.82-0.41-7.51-0.02-11.33c0.3-2.93,0.93-6.68-0.39-9.46c-1.04-2.41-3.19-4.16-4.38-6.48c-0.54-1.05-0.76-2.19-0.59-3.36
				c0.12-0.86,0.73-1.96,0.81-2.83c0.07-0.91-0.16-1.77-0.66-2.41c-0.89,1.07-2.36,3.12-2.39,5.01c-0.03,2.7-0.64,3.66,1.48,5.07
				c2.11,1.42,1.96,3.91,2.64,5.83c0.68,1.92,1.85,6.26,1.52,8.88c-0.33,2.63-1.55,11.17,0.06,13.38c1.61,2.21-0.1,8.79-2.39,7.79
				c-1.08-0.47-1.92-0.78-2.5-1.11c0.21,1.75,0.56,3.48,1.2,5.09c0.57,1.43,1.44,2.47,2.89,3.09c1.59,0.68,4.03,0.96,5.1-0.73
				C115.87,158.77,115.89,157.27,115.84,155.99z"/>
		</g>
		<g>
			<path class="st1" d="M104.3,109.41c0.28-0.27,1.14-1.99,1.57-2.88c-0.35-0.1-0.75-0.14-1.19-0.1c-0.42,0.04-0.89,0.16-1.37,0.33
				c-0.5,0.58-1.43,1.71-1.41,2.2C101.92,109.63,103.92,109.77,104.3,109.41z"/>
		</g>
		<path class="st5" d="M106.99,107.27c0,0,8.51,2.18,11.33,8.26c3.66,7.91-12.25,9.79-12.11,6.29c0.07-1.85,7.83-3.58,8.05-4.06
			c0.98-2.19-4.53-4.71-6.06-5.94C105.71,109.83,106.99,107.27,106.99,107.27z"/>
		<path class="st1" d="M111.07,113.08c0,0-0.01,0.26-0.01,0.6c0.54,0.35,1.08,0.72,1.57,1.11c0.79-1.13,0.86-3.17,0.86-3.17
			L111.07,113.08z"/>
		<g>
			<path class="st5" d="M105.51,104.6l-0.15,2.32c-0.03,0.38-1.04,1.29-1.6,0.76c-0.16-0.15,0.11-0.66,0.3-1.04l0.61-1.95
				L105.51,104.6z"/>
			<path class="st6" d="M104.3,105.83c0.51-0.11,1.06-0.82,1.06-0.82l-0.79-0.06L104.3,105.83z"/>
			<path class="st5" d="M105.62,103.11l0.07,0.9c0.06,0.71-0.45,1.38-1.16,1.45c-0.66,0.06-1.25-0.36-1.28-1.18
				c-0.03-0.73,0.54-1.32,0.75-1.64C104.48,101.92,105.47,102.09,105.62,103.11z"/>
			<path class="st5" d="M105.63,104.08c0.05-0.06,0.1-0.12,0.14-0.19c0.08-0.13,0.22-0.31,0.36-0.1c0.2,0.3-0.24,0.97-0.59,0.84
				C105.27,104.53,105.49,104.23,105.63,104.08z"/>
			<path class="st12" d="M104.25,104.21c0,0-0.32-0.06-0.72-0.31c0,0-0.07,0.22,0.03,0.36
				C103.68,104.43,103.98,104.51,104.25,104.21z"/>
			<g>
				<path class="st10" d="M104.48,105.16c-0.27-0.01-0.73-0.16-0.91-0.33c-0.16-0.16-0.29-0.52-0.31-0.6c0,0.01,0,0.03,0,0.04
					c0.03,0.83,0.63,1.25,1.28,1.18c0.44-0.04,0.8-0.31,1-0.68C105.14,105.09,104.72,105.17,104.48,105.16z"/>
			</g>
		</g>
		<g>
			<path class="st6" d="M109.44,127.31c-0.09,0-0.16-0.07-0.17-0.15c-0.19-2.25-1.71-3.89-3.53-3.81c-2.2,0.1-2.64,3.78-2.64,3.81
				c-0.01,0.09-0.09,0.16-0.18,0.15c-0.09-0.01-0.16-0.09-0.15-0.18c0.02-0.16,0.48-4,2.96-4.11c0.05,0,0.1,0,0.14,0
				c1.94,0,3.53,1.74,3.73,4.12c0.01,0.09-0.06,0.17-0.15,0.18C109.45,127.31,109.45,127.31,109.44,127.31z"/>
		</g>
		<path class="st10" d="M114.67,111.1c0.21,1.05,1.25,2.41,1.98,3.18c1.11,1.17,0.89,3.28-0.11,4.17c-1,0.89-2.99,1.03-4.58,2.33
			c-1.59,1.31-2.14,0.72-3.74,1c-0.63,0.11-1.33,0.37-1.81,0.7c1.8,2.55,15.32,0.4,11.91-6.95
			C117.48,113.72,116.14,112.26,114.67,111.1z"/>
		<path class="st5" d="M106.45,121.43c0,0-1.48,0.31-1.89,1.22c-0.41,0.92,1.21,1.38,1.63,1.24c0.88-0.29-0.18-0.68-0.18-0.68
			s1.86-0.18,1.92-1C107.98,121.39,106.45,121.43,106.45,121.43z"/>
		<g>
			<path class="st6" d="M102.67,127.24v6.18c0,0.9,1.59,1.62,3.54,1.62c1.96,0,3.54-0.73,3.54-1.62v-6.18H102.67z"/>
			<path class="st13" d="M106.21,130.86c-1.96,0-3.54-0.73-3.54-1.62v1.9c0,0.9,1.59,1.62,3.54,1.62c1.96,0,3.54-0.73,3.54-1.62
				v-1.9C109.75,130.13,108.17,130.86,106.21,130.86z"/>
			<path class="st14" d="M109.75,127.24c0,0.9-1.59,1.62-3.54,1.62c-1.96,0-3.54-0.73-3.54-1.62s1.59-1.62,3.54-1.62
				C108.17,125.62,109.75,126.34,109.75,127.24z"/>
			<path class="st6" d="M109.75,127.24c0,0.9-1.59,1.62-3.54,1.62c-1.96,0-3.54-0.73-3.54-1.62s1.59-1.62,3.54-1.62
				C108.17,125.62,109.75,126.34,109.75,127.24z"/>
			<path class="st12" d="M106.21,126.07c1.89,0,3.09,0.69,3.09,1.17c0,0.48-1.2,1.17-3.09,1.17c-1.89,0-3.09-0.69-3.09-1.17
				C103.12,126.76,104.32,126.07,106.21,126.07 M106.21,125.62c-1.96,0-3.54,0.73-3.54,1.62s1.59,1.62,3.54,1.62
				c1.96,0,3.54-0.73,3.54-1.62S108.17,125.62,106.21,125.62L106.21,125.62z"/>
			<g>
				<path class="st13" d="M103.37,127.65c0.45,0.38,1.46,0.75,2.84,0.75c1.38,0,2.39-0.37,2.84-0.75c-0.65-0.39-1.68-0.65-2.84-0.65
					C105.05,127,104.02,127.26,103.37,127.65z"/>
			</g>
			<path class="st13" d="M107.28,127.99l0.49,0.52c0.09,0.1,0.15,0.23,0.15,0.37v1.08c0,0.27,0.41,0.31,0.45,0.04c0,0,0-0.01,0-0.01
				c0.04-0.35-0.2-0.64,0.08-0.74c0.28-0.1,0.4,0.29,0.59-0.17c0.19-0.47,0.08-0.91,0.08-0.91l-0.74-0.52L107.28,127.99z"/>
		</g>
		<g>
			<polygon class="st14" points="87.71,103.42 87.94,103.51 88.05,103.7 87.7,103.85 			"/>
			<path class="st14" d="M89.82,103.49c0,0,0.16,0.21,0.32,0.3c0,0-0.38,1.37-0.33,1.67c0.05,0.29-0.68,0.22-0.49-0.29
				C89.5,104.66,89.53,103.63,89.82,103.49z"/>
			<path class="st4" d="M89.86,105.47l-0.21-0.15l-3.46,0.02c0,0-0.25,1-0.03,1.45c0.22,0.46,0.91,0.38,1.17,0.75
				c0.26,0.37-0.3,1.68-0.3,2.44c0,0.3,0,0.45,0.15,0.58c0.3,0.27,0.87,0.34,1.19,0.09c0.16-0.12,0.3-0.32,0.32-0.61
				c0.05-0.76-0.41-2.1-0.12-2.45c0.28-0.35,0.88-0.2,1.12-0.64C89.93,106.5,89.86,105.47,89.86,105.47z M87.84,110.32
				c-0.21-0.01-0.37-0.24-0.36-0.51c0.01-0.27,0.19-0.49,0.39-0.48c0.21,0.01,0.37,0.24,0.36,0.51
				C88.23,110.11,88.05,110.33,87.84,110.32z"/>
			<path class="st6" d="M89.64,105.32l-1.84-0.07l-1.84-0.07c0,0-0.15,1.03,0.07,1.49c0.22,0.46,0.82,0.35,1.07,0.72
				c0.26,0.37-0.3,1.68-0.3,2.44c0,0.3,0.12,0.5,0.27,0.64c0.3,0.27,0.75,0.29,1.07,0.04c0.16-0.12,0.3-0.32,0.32-0.61
				c0.05-0.76-0.41-2.1-0.12-2.45c0.29-0.35,0.88-0.2,1.12-0.64C89.72,106.35,89.64,105.32,89.64,105.32z M87.63,110.17
				c-0.21-0.01-0.37-0.24-0.36-0.51c0.01-0.27,0.19-0.49,0.39-0.48c0.21,0.01,0.37,0.24,0.36,0.51
				C88.01,109.96,87.84,110.18,87.63,110.17z"/>
			<path class="st12" d="M86.14,105.19c0,0-0.03-1.7-0.08-1.83l0.91,0.03l0.07,0.09l0.08-0.09l0.57,0.02l0.19,0.27l0.2-0.26
				l0.23,0.01l0.09,0.08l0.09-0.07l1.3,0.05c0,0-0.3,1.5-0.23,1.82L86.14,105.19z"/>
			<g>
				<linearGradient id="SVGID_2_" gradientUnits="userSpaceOnUse" x1="86.0687" y1="104.1298" x2="89.8166" y2="104.1298">
					<stop  offset="0" style="stop-color:#45C0BA"/>
					<stop  offset="1" style="stop-color:#209993"/>
				</linearGradient>
				<path class="st15" d="M86.72,104.2c0.18,0.33,0.02,0.63,0.22,0.69c0.2,0.07,0.06-0.76,0.3-0.71c0.24,0.05,0.3,0.3,0.3,0.3
					s0.15-0.34,0.46-0.36c0.31-0.02,0.27,0.4,0.63,0.3c0.36-0.09,0.18-0.26,0.54-0.24c0.15,0.01,0.34,0.04,0.53,0.07
					c0.07-0.4,0.14-0.76,0.14-0.76l-1.3-0.05l-0.09,0.07l-0.09-0.08l-0.23-0.01l-0.2,0.26l-0.19-0.27l-0.57-0.02l-0.08,0.09
					l-0.07-0.09l-0.91-0.03c0.02,0.05,0.03,0.34,0.05,0.68C86.32,104.01,86.6,104,86.72,104.2z"/>
			</g>
		</g>
		<path class="st5" d="M89.01,108.49c0,0-0.18-0.9-0.51-1.01c-0.33-0.11-0.6-0.82-0.75-0.6c-0.15,0.22-0.12,0.53,0.04,0.69
			c0.17,0.16,0.32,1.15,0.66,1.24C88.79,108.9,89.01,108.49,89.01,108.49z"/>
		<g>
			<path class="st11" d="M113.65,110.35c-3.23-2.2-6.66-3.08-6.66-3.08s-1.28,2.56,1.21,4.56c0.7,0.56,2.22,1.39,3.57,2.33
				C112.62,113.52,113.64,112.34,113.65,110.35z"/>
		</g>
		<g>
			<path class="st1" d="M108.22,109.99c-0.64-0.25-1.17-0.7-1.56-1.12c0.01,0.88,0.33,1.98,1.54,2.95c0.7,0.56,2.22,1.39,3.57,2.33
				c0.41-0.31,0.85-0.74,1.2-1.32c-0.54-0.48-1.43-1.23-1.87-1.51C110.44,110.91,109.69,110.58,108.22,109.99z"/>
		</g>
		<path class="st5" d="M103.82,102.57c0,0,0.09-0.69,0.78-0.82c0.69-0.13,1.4,0.35,1.49,0.92c0.09,0.58-0.03,0.97-0.03,0.97
			s0.38-0.45,0.33-1.24c-0.04-0.79-0.74-1.14-1.33-1.2C104.46,101.14,103.73,101.97,103.82,102.57z"/>
		<path class="st6" d="M107.76,103.39c0,0-0.33,4.7-0.71,5.83c-0.38,1.13-0.84,5.5-0.84,5.5l-1.08-0.95l-0.03-0.96l-0.27,0.77
			c0,0-0.41-0.74-0.53-1.26c-0.13-0.53,1.17-7.11,1.17-7.11L107.76,103.39z"/>
	</g>
	<g>
		<defs>
			<path id="SVGID_3_" d="M52.92,61.5c0,0-0.22,24.99,27.45,27.45s29.16-50.05,29.16-50.05L81.91,18.94c0,0-18.79-0.24-22.13,0
				c-3.34,0.24-21.73-6.61-19.25,8.45s2.88,18.68,4.24,20.95C46.13,50.61,52.92,61.5,52.92,61.5z"/>
		</defs>
		<clipPath id="SVGID_4_">
			<use xlink:href="#SVGID_3_"  style="overflow:visible;"/>
		</clipPath>
		<g class="st16">
			<g>
				<g>
					<path class="st6" d="M78.42,30.76c-0.08-0.01-0.14-0.07-0.16-0.15c-0.03-0.11,0.03-0.22,0.14-0.25l2.38-0.65
						c0.11-0.03,0.22,0.03,0.25,0.14c0.03,0.11-0.03,0.22-0.14,0.25l-2.38,0.65C78.48,30.76,78.45,30.76,78.42,30.76z"/>
				</g>
				<path class="st17" d="M76.85,29.97c0,0,0.44-0.44,1.32-0.2c0.88,0.24,0.69,1.8-0.08,2.04C77.32,32.07,75.89,30.71,76.85,29.97z"
					/>
				<g>
					<path class="st6" d="M70.79,32.84c0,0-0.06-0.89,0.82-1.46c0.88-0.57,4.18-2.32,5.29-1.6c1.12,0.72,1.11,1.93,0.73,2.63
						c-0.39,0.7-3.5,1.22-3.69,1.87c-0.19,0.65-1.47,0.91-0.9,2.26c0.07,0.18,0.74-0.17,0.74-0.17c0.34-0.14,0.73-0.07,1.01,0.16
						l0.5,0.42c0.31,0.26,0.43,0.67,0.31,1.05c-0.11,0.36-0.27,0.77-0.48,0.99c-0.41,0.44-2.42,0.99-3.03,0.91
						c-0.61-0.08-1.98-0.99-1.87-1.82C70.33,37.29,70.79,32.84,70.79,32.84z"/>
					<path class="st8" d="M77.1,31.02c-0.61-0.5-4.19,1.41-4.68,2.28c-0.49,0.87-0.7,4.87-0.66,5.45c0.04,0.58,0.58,0.92,0.58,0.92
						c0.2,0.09,0.39,0.15,0.57,0.19c0.83-0.16,1.92-0.52,2.21-0.84c0.21-0.22,0.37-0.64,0.48-0.99c0.03-0.09,0.04-0.17,0.04-0.26
						c-0.07-0.12-0.18-0.23-0.31-0.3c-0.31-0.18-1.46,0.25-1.46,0.25s-0.77-0.99-0.82-1.39c-0.16-1.23,0.69-1.38,0.87-2.03
						c0.19-0.65,3.31-1.17,3.69-1.87c0.02-0.04,0.05-0.09,0.07-0.14C77.66,31.82,77.47,31.32,77.1,31.02z"/>
				</g>
				<path class="st5" d="M70.65,34.23c0,0,0.37,1.73,0.67,1.82c0.3,0.1,1.59-0.25,1.77-0.39c0.18-0.14,0.36,0.07,0.14,0.81
					c-0.22,0.74-0.77,1.71-1.47,2.09c-0.64,0.35-2.24-0.53-2.37-1.18c-0.14-0.65,0.01-3.51,1.35-3.93L70.65,34.23z"/>
			</g>
			<path class="st18" d="M71.55,37.1c-0.3-0.45-0.82-0.69-1.35-0.67c-1.07,0.03-3.69,0.42-5.42,3.26c-2.22,3.63,4.38,2.93,5.71,2.01
				C71.58,40.94,72.43,38.41,71.55,37.1z"/>
			<path class="st5" d="M93.84,40.69c0.08-0.35,0.7-1.08,1.15-1.39c0.87-0.6,0.56-0.88,0.64-1.31c0.08-0.43,0.75-0.34,0.74,0.67
				c-0.01,0.65-0.41,0.72,0.16,0.77c0.82,0.07,2.54-0.21,2.54,0.08c0,0.31-1.09,2.66-3.43,3.23C94.98,42.9,93.41,42.63,93.84,40.69z
				"/>
			<path class="st5" d="M64.45,32.56c0,0,0.35,0.98,0.8,1.91c0.45,0.94,0.66,1.87-0.22,2.39c-0.61,0.37-2.53-0.1-2.71-1.46
				C62.15,34.05,64.45,32.56,64.45,32.56z"/>
			<g>
				<path class="st10" d="M63.98,36.32c0.94-0.16,1.43-0.66,1.62-0.89c0.12,0.58,0.01,1.09-0.56,1.44
					c-0.45,0.28-1.63,0.08-2.28-0.59C63.2,36.35,63.63,36.38,63.98,36.32z"/>
			</g>
			<g>
				<path class="st5" d="M74.51,113.34c-0.29-0.9-1.57-1.8-1.57-1.8l0.31-0.97l-3.24-0.22l-0.35,1.95c0,0,0.36,0.82,1.46,1.39
					C72.55,114.43,74.8,114.24,74.51,113.34z"/>
				<path class="st6" d="M76.67,115.36c0-2.03-3.72-3.82-3.72-3.82s-0.67,1.31-2.06,1.31c-0.39,0-1.21-0.55-1.21-0.55
					s-2.02,1.91-1.37,2.78C69.2,116.3,76.75,115.8,76.67,115.36z"/>
			</g>
			<g>
				<path class="st5" d="M62.41,113.34c-0.29-0.9-1.57-1.8-1.57-1.8l0.31-0.97l-3.24-0.22l-0.35,1.95c0,0,0.36,0.82,1.45,1.39
					C60.45,114.43,62.7,114.24,62.41,113.34z"/>
				<path class="st6" d="M64.57,115.36c0-2.03-3.72-3.82-3.72-3.82s-0.67,1.31-2.06,1.31c-0.39,0-1.21-0.55-1.21-0.55
					s-2.02,1.91-1.38,2.78C57.1,116.3,64.65,115.8,64.57,115.36z"/>
			</g>
			<path class="st11" d="M63.64,61.96c-3.33,0-6.23-0.26-7.54-0.38c-0.15,0.55-0.31,1.13-0.5,1.74c-1.42,4.61-1.14,16.59-0.9,22.37
				c0.08,1.88-2.32,20.8,2.21,25.23c1.05,1.03,4.6,0.39,5.67-1.87c2.33-4.92,2.08-31.29,1.87-33.19
				C64.44,75.86,63.63,66.42,63.64,61.96z"/>
			<path class="st5" d="M61.02,39.02c0,0,0.06-1.49,0.34-2.6c0.24-0.97,0.64-1.54,1.26-1.93c1.33-0.84,2.89,4.67,2.28,5.09
				C64.29,40,61.02,39.02,61.02,39.02z"/>
			<path class="st6" d="M62.14,36.63l-0.78-0.21c0,0-1.93-3.63-0.55-4.63c1.38-1,1.58-0.61,1.63-1.95c0.05-1.34,2.77-1.01,3.14,0.12
				c0.68,2.08-1.12,2.75-0.96,3.47c0.16,0.72,0.21,1.04-0.07,1.01s-0.66,0.08-0.79,0.7C63.62,35.75,62.14,36.63,62.14,36.63z"/>
			<path class="st4" d="M65.57,29.96c-0.2-0.63-1.14-1.01-1.94-0.99c0.22,0.23,0.73,0.84,0.81,1.74c0.1,1.17-1.41,0.71-1.94,1.27
				c-0.53,0.55,0.17,1.87-1.02,2.25c-0.4,0.13-0.71,0.17-0.95,0.14c0.31,1.08,0.82,2.05,0.82,2.05l0.78,0.21c0,0,1.49-0.88,1.62-1.5
				c0.13-0.62,0.51-0.72,0.79-0.7s0.23-0.29,0.07-1.01C64.45,32.7,66.25,32.03,65.57,29.96z"/>
			<g>
				<path class="st1" d="M64.44,75.86c0,0-0.82-9.44-0.81-13.9c-0.9,0-1.77-0.02-2.59-0.05c-1.74,4.48-4.48,11.82-4.36,13.18
					c0.19,1.98,5.28,7.54,5.28,10.28c0,2.73-3.68,6.03-3.02,11.03c0.49,3.72-1.21,8.59-4.33,8.77c0.41,2.52,1.11,4.61,2.28,5.75
					c1.05,1.03,4.6,0.39,5.67-1.87C64.91,104.14,64.65,77.76,64.44,75.86z"/>
			</g>
			<path class="st11" d="M76.95,82.36c-0.96-9.43-4.81-19.28-5.53-21.02c-2.51,0.47-5.27,0.62-7.79,0.62
				c-0.01,2.96-0.28,7.83-0.46,10.78c-0.1,1.63,0.21,3.26,0.89,4.74c1.47,3.2,4.01,8.97,4.28,11.54c0.77,7.36-1.72,17.57-0.73,20.29
				c0.62,1.72,5.37,3.16,7.28,0.4C76.17,107.9,79.25,104.93,76.95,82.36z"/>
			<path class="st5" d="M64.63,34.6c0,0-0.02-0.52-0.48-0.67c-0.46-0.15-0.6,0.43-0.12,1.1C64.52,35.7,64.81,35.4,64.63,34.6z"/>
			<g>
				<path class="st1" d="M76.95,82.36c-0.96-9.43-4.81-19.28-5.53-21.02c-1.64,0.31-3.39,0.47-5.11,0.55
					c0.9,4.3,3.06,13.47,5.6,16.68c3.36,4.24,1.75,8.2,2.13,11.88c0.32,3.1-3.31,11.25-6.41,13.09c-0.26,2.63-0.39,4.75-0.01,5.78
					c0.62,1.72,5.37,3.16,7.28,0.4C76.17,107.9,79.25,104.93,76.95,82.36z"/>
			</g>
			<path class="st11" d="M74.58,70.6c1.48-3.14,2.69-22.15-2.13-29.08c-3.96-5.69-20.29-4.41-20.43,2.35
				c-0.06,2.65-0.12,5.44,0.39,10.02c0.24,2.12,0.31,14.89,1.37,20.37c0.2,1.02,1.1,1.74,2.14,1.72
				C60.65,75.85,72.66,72.48,74.58,70.6z"/>
			<g>
				<path class="st1" d="M72.45,41.52c-1.25-1.81-3.76-2.91-6.59-3.36c0.52,1.66,2.43,7.84,3,11.57c0.66,4.34-0.07,11.88,0.48,16.97
					c0.24,2.17,0.63,4.26,1.01,5.96c2.04-0.73,3.63-1.47,4.23-2.05C76.06,67.46,77.27,48.45,72.45,41.52z"/>
			</g>
			<path class="st1" d="M90.04,55.18c4.05-1.5,10.25-9.51,5.97-14.45c-2.43-2.81-8.67,7.69-8.34,9.35
				C88.01,51.75,88.77,55.66,90.04,55.18z"/>
			<path class="st11" d="M75.88,57.79c-0.03-2.04-0.15-4.13-0.39-6.15l-4.16-2.6C71.34,49.03,72.41,55.52,75.88,57.79z"/>
			<path class="st11" d="M69.98,42.1c-0.21-1.22,1.04-2.17,2.16-1.64c5.21,2.46,16.52,7.75,18.84,8.45
				c3.04,0.92,3.53,7.13-5.58,6.92s-12.17-1.88-13.35-4.43C71.41,50.02,70.52,45.25,69.98,42.1z"/>
			<g>
				<path class="st1" d="M81.42,51.97c-3.66-0.56-8.41-3.05-10.54-4.45c0.01,1.59,0.84,3.16,1.17,3.88
					c1.18,2.55,4.24,4.22,13.35,4.43c7.07,0.16,8.35-3.54,7.16-5.63C89.72,51.24,85.06,52.53,81.42,51.97z"/>
			</g>
		</g>
	</g>
	<g>
		<g>
			<path class="st19" d="M16.68,57.96l1.81,0.44L32.7,59.9c0,0,4.78,0.34,5.82,2.45c1.04,2.11,1.3,8.65,1.92,13.74
				c0.62,5.09-2.03,56.04-2.03,56.04l-24.8-0.42C13.61,131.73,17.9,64.91,16.68,57.96z"/>
			<g>
				<path class="st18" d="M26.28,112.62c-0.86-6.9,0.7-17.02,2.42-24.93c1.72-7.92-0.23-13.34-0.7-19.04
					c-0.34-4.03,0.15-7.5,0.47-9.19l4.23,0.45c0,0,4.78,0.34,5.82,2.45c1.04,2.11,1.3,8.65,1.92,13.74
					c0.62,5.09-2.03,56.04-2.03,56.04l-13.21-0.22C25.92,126.04,26.83,117.05,26.28,112.62z"/>
			</g>
		</g>
		<path class="st5" d="M3.92,132.95c1.09-0.57,1.27-1.75,1.27-1.75s2.21-12.06,3.98-22.11c2.13,1.16,4.81,1.6,7.47,1.65
			c-1.44,5.8-4.14,13.55-9.15,20.46c-0.21,0.67-0.29,1.12,0.08,1.67c-0.13,0.1-0.24,0.22-0.33,0.38c-0.26,0.47-3.09,0.46-3.57,0.31
			C3.41,133.46,3.66,133.17,3.92,132.95z"/>
		<path class="st6" d="M7.26,133.24c-0.26,0.47-3.09,0.46-3.57,0.31c-0.28-0.09-0.03-0.38,0.23-0.61c-0.87,0.45-1.95,1.02-1.98,1.32
			c-0.06,0.5,5.07,0.48,5.92,0c0.45-0.25,0.13-0.79-0.28-1.4C7.46,132.96,7.35,133.09,7.26,133.24z"/>
		<path class="st5" d="M24.31,131.2c0,0-0.2,0.99-0.13,1.15c0.03,0.06,0.77,0.3,1.35,0.6c0.26,0.23,0.51,0.52,0.23,0.61
			c-0.48,0.15-3.3,0.16-3.57-0.31c-0.09-0.16-0.2-0.28-0.33-0.38c0.25-0.38-1.3-13.09-2.48-22.19c2.95-2.88,5.64-3.27,7.37-1.13
			C26.15,120.23,24.31,131.2,24.31,131.2z"/>
		<path class="st10" d="M21.12,109.26c0.59,0.26,1.11,0.65,1.38,1.22c0.8,1.77,0.42,12.5,0.59,14.74c0.1,1.31-0.5,3.6-1.32,5.33
			c-0.38-4.15-1.48-13.04-2.37-19.88C19.98,110.1,20.56,109.63,21.12,109.26z"/>
		<path class="st11" d="M10.62,96.38c0.16-3.91,2.28-6.66,3.61-8.29c1.56,0.05,3.4,0.03,5.23-0.16c2.17-0.22,1.85-0.12,3.59-0.97
			c0.55,1.72,2.16,3.69,2.92,6.33c1.1,3.81,1.16,9.98,0.79,16.24c-1.39,0.33-4.8,1.2-7.96,1.41c-0.26-3.17-0.37-5.7-0.45-7.33
			c0.04,1.57-0.08,4.07-0.83,7.11c-3.54,0.72-6.22-0.49-8.34-1.65C9.18,102.46,10.59,97.23,10.62,96.38z"/>
		<path class="st5" d="M15.74,81.01c-1.41-1.42-1.5-3.69-0.27-5.28c1.21-1.58,2.7-3.69,2.97-4.91c0.61-2.75-0.69-10.07,0.79-10.79
			c2.67-1.29,4.77,8.76,3.7,12.72c-1.07,3.96-4.97,8.92-5.75,8.97C16.67,81.74,16.18,81.45,15.74,81.01z"/>
		<path class="st10" d="M22.93,72.74c-0.77,2.83-2.98,6.17-4.46,7.86c-0.45-0.79-0.64-1.87-0.6-2.74c0.09-2.04,3.25-9.63,3.32-11.09
			c0.08-1.45-1.48-5.64-1.4-6.52c0.01-0.14,0.07-0.24,0.15-0.31C22.26,60.51,23.9,69.15,22.93,72.74z"/>
		<path class="st5" d="M21.77,76.83c0,0-3.27-2.42-5.65-1.09c-2.38,1.32-1.52,4.95-1.6,6.86c-0.08,1.91-1.38,6.95-0.73,7.71
			c0.65,0.76,2.56,2.68,7.24,1.64c3.86-0.86,1.44-7.17,1.44-7.17s0.05-1.32,0.22-2.31C23.04,80.5,23.44,78.01,21.77,76.83z"/>
		<path class="st5" d="M16.96,71.46l-0.16,1.05c-0.13,0.84,0.4,1.66,1.24,1.81c0.77,0.14,1.51-0.31,1.63-1.28
			c0.1-0.86-0.51-1.61-0.73-2C18.41,70.16,17.23,70.26,16.96,71.46z"/>
		<g>
			<path class="st10" d="M18.12,73.98c0.32,0.01,0.88-0.12,1.11-0.31c0.2-0.17,0.39-0.58,0.43-0.67c0,0.02,0,0.03,0,0.05
				c-0.11,0.97-0.86,1.41-1.63,1.28c-0.51-0.09-0.91-0.44-1.11-0.89C17.34,73.84,17.84,73.98,18.12,73.98z"/>
		</g>
		<path class="st5" d="M17.37,73.3l-0.03,2.75c0,0.45,1.11,1.61,1.82,1.04c0.21-0.17-0.07-0.79-0.26-1.26l-0.54-2.36L17.37,73.3z"/>
		<path class="st5" d="M19.2,72.15c0.01-0.09,0.01-0.19,0.01-0.28c-0.01-0.18,0.01-0.45,0.28-0.33c0.4,0.16,0.41,1.11-0.03,1.22
			C19.14,72.83,19.17,72.38,19.2,72.15z"/>
		<path class="st10" d="M5.95,130.95c-0.19,0.16-0.45,0.23-0.75,0.24c0.07-0.38,2.23-12.21,3.98-22.1c1.42,0.78,3.1,1.23,4.84,1.46
			l-0.01,0.31c0,0-0.94,5.81-2.5,6.95s-1.71,2.44-1.87,3.79C9.48,122.95,6.88,130.16,5.95,130.95z"/>
		<g>
			<path class="st1" d="M10.62,96.38c0.16-3.91,2.28-6.66,3.61-8.29c0.81,0.02,1.69,0.03,2.6,0.01l0.07,3.99
				c0,0-1.93,0.09-2.81,1.66c-0.88,1.57-1.93,4.47-0.32,5.67c1.61,1.19,1.15,2.1,1.25,4.22c0.06,1.23-0.53,4.6-1.03,7.21
				c-1.89-0.27-3.47-1.03-4.83-1.77C9.18,102.46,10.59,97.23,10.62,96.38z"/>
		</g>
		<path class="st6" d="M22.2,133.24c0.26,0.47,3.09,0.46,3.57,0.31c0.28-0.09,0.03-0.38-0.23-0.61c0.87,0.45,1.95,1.02,1.98,1.32
			c0.06,0.5-5.07,0.48-5.92,0c-0.45-0.25-0.13-0.79,0.28-1.4C22,132.96,22.11,133.09,22.2,133.24z"/>
		<g>
			<path class="st11" d="M14.52,82.59c0.02-0.41-0.01-0.89-0.04-1.41c0.54-1.55,0.73-4.17,1.06-5.02c0.17-0.16,0.36-0.3,0.57-0.42
				c1.45-0.81,3.24-0.22,4.41,0.36c0.24,1.1-0.45,3,0,4.4c0.39,1.22,1.46,1.24,2.2,1.81c-0.17,0.86-0.25,2.47-0.25,2.47
				s2.42,6.31-1.44,7.17c-4.68,1.04-6.59-0.88-7.24-1.64C13.14,89.54,14.44,84.5,14.52,82.59z"/>
		</g>
		<path class="st6" d="M19.23,71.13c0,0,0.35,2.79,0.25,3.59c-0.1,0.81,0.33,1.85-0.17,3.56c-0.51,1.71-5.53,1.08-5.53-1.52
			c0.01-3.47,1.9-2.98,2.14-5.26c0.18-1.72,1.17-1.59,2.17-1.72C19.02,69.67,19.26,70.39,19.23,71.13z"/>
		<path class="st5" d="M20.71,76.18c0,0,5.66-2.89,6.9-4.67c1.6-2.32,1.87-9.45,4.83-9.68c2.96-0.23,1.09,9.92-1.4,13.17
			c-2.49,3.25-7.98,6.36-8.73,6.11C20.57,80.53,20.71,76.18,20.71,76.18z"/>
		<g>
			<path class="st1" d="M14.52,82.59c0.02-0.41-0.01-0.89-0.04-1.41c0.54-1.55,0.73-4.17,1.06-5.02c0.17-0.16,0.36-0.3,0.57-0.42
				c0.43-0.24,0.88-0.35,1.34-0.38l0.22,3.81c0,0,0.61,4.25,0.39,5.18c-0.73,3.12-0.51,5.03-1.16,7.75
				c-1.8-0.37-2.72-1.31-3.13-1.79C13.14,89.54,14.44,84.5,14.52,82.59z"/>
		</g>
		<path class="st5" d="M18.98,60.46c0,0-0.7-1.76-0.49-2.06c0.21-0.3,1.38-0.62,1.5-0.3c0.12,0.32,0.14,0.52,0.35,0.65
			c0.47,0.29,0.73-0.79,0.99-0.62c0.46,0.29-0.62,2.36-1.3,2.56C19.36,60.89,18.98,60.46,18.98,60.46z"/>
		<path class="st5" d="M33.3,62.57c0,0,0.83-2.26,0.62-2.56c-0.21-0.3-1.38-0.62-1.5-0.3c-0.12,0.32-0.14,0.52-0.35,0.65
			c-0.47,0.29-0.73-0.79-0.99-0.62c-0.46,0.29,0.3,2.59,0.97,2.79C32.72,62.73,33.3,62.57,33.3,62.57z"/>
		<g>
			<path class="st20" d="M15.93,71.51c0.11-0.98,0.47-1.36,0.95-1.53c-0.04,0.4-0.14,1.08-0.38,1.9c-0.39,1.32-1.13,2.63-0.43,3.46
				c0.7,0.83,0.94,1.76,2.21,1.25c0.53-0.21,0.94-0.52,1.24-0.81c0.06,0.65,0.1,1.45-0.21,2.5c-0.51,1.71-5.53,1.08-5.53-1.52
				C13.8,73.3,15.69,73.79,15.93,71.51z"/>
		</g>
		<path class="st1" d="M18.81,110.95c-0.18-2.21-0.29-4.11-0.37-5.61c0,0,3.68,2.9,4.06,5.14l0,0
			C21.32,110.69,20.04,110.87,18.81,110.95z"/>
		<path class="st10" d="M24.28,78.83c0.73-1.19,4-4.31,5.3-5.52c1.3-1.21,1.14-0.89,1.71-3.32c0.57-2.43,0.55-3.49,1.35-4.92
			c0.48-0.85,0.85-1.63,1.07-2.12c0.85,2.69-0.72,9.5-2.68,12.06c-1.93,2.52-5.66,4.95-7.59,5.81
			C23.63,80.22,23.9,79.45,24.28,78.83z"/>
		<g>
			<path class="st18" d="M31.81,130.16l11.57-8.93c0.6-0.57,1.42-0.93,2.32-0.93c1.86,0,3.36,1.5,3.36,3.36
				c0,1.21-0.64,2.26-1.59,2.85l-11.58,8.94L31.81,130.16z"/>
			<path class="st21" d="M33.98,132.97c1.29-1.25,2.78-2.57,3.69-2.96c1.74-0.75,3.93-2.46,4.64-3.93c0.71-1.47,1.04-1.75,2.79-2.6
				c1.02-0.5,2.32-1.32,3.23-1.92c0.46,0.57,0.74,1.3,0.74,2.1c0,1.21-0.64,2.26-1.59,2.85l-11.58,8.94L33.98,132.97z"/>
			<path class="st19" d="M30.14,133.08c0,1.86,1.5,3.36,3.36,3.36c1.86,0,3.36-1.5,3.36-3.36s-1.5-3.36-3.36-3.36
				C31.65,129.72,30.14,131.23,30.14,133.08z"/>
		</g>
	</g>
	<g>
		<path class="st4" d="M71.13,155.89c0.31-0.49,0.39-1.03,0.41-1.47l1.62-0.05c0,0-0.09,0.56,0.19,0.99
			c0.13,0.19,0.48,0.32,0.96,0.5c0.77,0.37,1.73,0.84,1.77,1.1c0.07,0.43-4.41,0.56-5.16,0.16
			C70.53,156.91,70.79,156.43,71.13,155.89z"/>
		<path class="st11" d="M63.85,138.97c0,0,7.36-2.08,11.42-0.78c4.49,1.44,2.8,16.79-1.45,17.01c-4.25,0.21-3.45-1.59-3.45-2.75
			s2.58-8.95,1.5-9.09c-1.07-0.14-7.43,2.75-10.09,0.18C59.12,140.96,63.85,138.97,63.85,138.97z"/>
		<path class="st5" d="M69.14,130.14c0,0,4.2,7.81,4.28,9.47c0.08,1.66-1.82,2.86-3.17,2.17c-1.35-0.69-5.31-7.42-5.39-8.03
			C64.78,133.13,69.14,130.14,69.14,130.14z"/>
		<path class="st4" d="M49.84,146.92c0,0-1.12,0.12-1.66-0.65c-0.54-0.77-1.31-0.35-1.61,1.21c-0.3,1.56-0.19,2.66,0.23,3.13
			c0.42,0.47,1.84,1.24,2.1,0.86c0.26-0.37-0.79-1.77-0.79-1.77l1.23-0.97L49.84,146.92z"/>
		<path class="st11" d="M62.31,138.36c0,0,2.17,12.88-0.63,16.43c-2.8,3.55-11.11-3.17-12.36-4.15c-1.25-0.97-1.44-4.57,1.48-4.99
			c2.92-0.42,5.9,2.46,5.9,2.46S55.06,137.7,57.48,137C59.91,136.3,62.31,138.36,62.31,138.36z"/>
		<g>
			<path class="st1" d="M50.8,145.65c2.92-0.42,5.9,2.46,5.9,2.46S55.06,137.7,57.48,137c1.03-0.3,2.05-0.1,2.89,0.23
				c-1.02,1.86-2.54,4.79-2.56,5.78c-0.03,1.49,0.13,5.72,0.17,6.12c0.03,0.33-0.71,5.22,1.26,6.68c-3.6-0.1-8.93-4.4-9.91-5.17
				C48.08,149.66,47.89,146.07,50.8,145.65z"/>
		</g>
		<path class="st1" d="M71.87,143.36c-1.07-0.14-7.43,2.75-10.09,0.18c-0.37-0.36-0.6-0.71-0.72-1.05c3.25,0.72,11.26-3,13.01-1.99
			c1.97,1.13-1.13,9.69-0.17,10.83c0.59,0.69,1.75,1.12,2.56,1.35c-0.68,1.48-1.58,2.48-2.64,2.53c-4.25,0.21-3.45-1.59-3.45-2.75
			S72.94,143.5,71.87,143.36z"/>
		<path class="st10" d="M70.25,141.78c-1.35-0.69-5.31-7.42-5.39-8.03c-0.08-0.62,4.28-3.61,4.28-3.61s0.16,0.3,0.42,0.79
			c0.12,1.93,0.43,6.1,0.88,6.54c0.59,0.58,2.2,0.24,2.98,2.14C73.5,141.27,71.6,142.47,70.25,141.78z"/>
		<path class="st11" d="M56.71,137.77c-0.01-6.78,2.91-9.94,4.26-10.54c3.56-1.57,8.65,1.69,8.82,4.73c0.12,2.05-3.89,4.5-4.78,8.19
			c-0.15,0.62-0.66,1.1-1.3,1.18C60.72,141.74,56.71,138.69,56.71,137.77z"/>
		<g>
			<path class="st1" d="M56.71,137.77c-0.01-6.78,2.91-9.94,4.26-10.54c1.34-0.59,2.9-0.5,4.34,0.01c-1.04,0.45-2.54,1.45-3.1,3.59
				c-0.53,2.01-0.98,6.62-1.27,10.1C58.7,140.12,56.71,138.42,56.71,137.77z"/>
		</g>
		<path class="st5" d="M63.53,130.07c0.83,1.68-0.01,6.12-0.63,8.42c-0.2,0.76,4.43,5.21,6.97,8.76c0.43,0.6,0.49,1.1-0.12,1.23
			c-2.6,0.57-8.14-3.05-10.51-7.28c-1.58-2.83-1.27-10.19,0.51-11.98C60.93,128.04,62.43,127.85,63.53,130.07z"/>
		<g>
			<path class="st1" d="M69.99,126.38c0,0,0.64-0.83-0.07-1.49c-1.01-0.93-2.27-0.03-2.41,0.54c-0.2,0.8,0.33,0.94,0.87,1.02
				C68.93,126.54,69.99,126.38,69.99,126.38z"/>
			<path class="st11" d="M68.25,125.54c0,0,1.61-0.36,2.23-0.08c0.86,0.39,0.6,1.21,0.23,1.4c-0.37,0.19-1.54,0.16-1.75,0.01
				C68.75,126.72,68.25,125.54,68.25,125.54z"/>
			<g>
				<path class="st5" d="M67.63,126.18l-2.12,1.44c-0.21,0.27,0.68,2.14,1.38,2.12c0.2-0.01,0.37-0.29,0.46-0.67l0.46-2.08
					L67.63,126.18z"/>
				<path class="st6" d="M67.71,127.42c-0.26-0.28-0.61-0.67-0.61-0.67s-0.34,0.5-0.19,1.18c0.08,0.36,0.27,0.65,0.5,0.85
					L67.71,127.42z"/>
				<g>
					<path class="st6" d="M69.69,126.78c0,0,0.39-0.02,0.44-0.62c0.05-0.61-2.11-0.77-2.51-0.47c-0.6,0.45-0.69,0.97-0.69,0.97
						S69.06,127.36,69.69,126.78z"/>
					<path class="st5" d="M68.5,125.84l-1.22,0.73c-0.38,0.27-0.48,0.8-0.22,1.19c0.21,0.31,0.39,0.47,0.78,0.73
						c0.32,0.22,0.72,0.07,1.05-0.32c0.43-0.5,0.69-1.08,0.8-1.4C69.96,126.05,69.33,125.42,68.5,125.84z"/>
					<path class="st6" d="M67.28,126.57l1.22-0.73c0.1-0.05,0.2-0.09,0.29-0.11c-0.19,0.19-0.58,0.63-0.59,0.76
						c-0.02,0.32,0.12,0.13,0.47,0.42c0.22,0.18,0.44,0.54,0.56,0.78c-0.1,0.16-0.22,0.33-0.36,0.49c-0.33,0.38-0.72,0.53-1.05,0.32
						c-0.39-0.26-0.57-0.42-0.78-0.73C66.8,127.38,66.9,126.85,67.28,126.57z"/>
					<path class="st12" d="M68.47,127.12c0,0,0.19,0.27,0.57,0.52c0,0-0.18,0.23-0.39,0.19C68.45,127.79,68.32,127.45,68.47,127.12z
						"/>
					<g>
						<path class="st4" d="M68.26,128.19c-0.27-0.35-0.95-0.07-1.12-1.04c-0.03-0.18,0.09-0.44,0.17-0.59l-0.03,0.02
							c-0.38,0.27-0.48,0.8-0.22,1.19c0.21,0.31,0.39,0.47,0.78,0.73c0.2,0.13,0.42,0.13,0.64,0.02
							C68.41,128.47,68.34,128.3,68.26,128.19z"/>
					</g>
					<path class="st5" d="M68.17,126.28c0.04-0.08,0.1-0.15,0.15-0.21c0.11-0.13,0.24-0.34-0.03-0.41c-0.39-0.1-0.93,0.51-0.66,0.83
						C67.84,126.73,68.06,126.47,68.17,126.28z"/>
				</g>
			</g>
		</g>
		<g>
			<polygon class="st22" points="78.88,148.98 60.97,148.8 60.97,149.26 62.2,150.97 80.28,150.72 80.28,150.25 			"/>
			<polygon class="st23" points="78.88,148.52 60.97,148.8 62.2,150.5 80.28,150.25 			"/>
		</g>
		<g>
			<polygon class="st22" points="82.77,158.91 64.86,158.72 64.86,159.19 66.09,160.89 84.17,160.64 84.17,160.17 			"/>
			<polygon class="st23" points="82.77,158.44 64.86,158.72 66.09,160.43 84.17,160.17 			"/>
		</g>
		<g>
			<polygon class="st22" points="64.38,159.05 46.46,158.86 46.46,159.33 47.69,161.03 65.78,160.78 65.78,160.31 			"/>
			<polygon class="st23" points="64.38,158.58 46.46,158.86 47.69,160.57 65.78,160.31 			"/>
		</g>
		<g>
			<polygon class="st22" points="77.7,160.87 59.79,160.68 59.79,161.15 61.02,162.85 79.1,162.6 79.1,162.13 			"/>
			<polygon class="st23" points="77.7,160.4 59.79,160.68 61.02,162.39 79.1,162.13 			"/>
		</g>
		<path class="st5" d="M69.87,147.24c0,0,1.48,0.98,1.78,1.28c0.3,0.29,0.84,1.84-0.26,1.98c-0.44,0.06-0.44-0.99-1.1-1.04
			c-0.65-0.05-1.42-0.79-1.47-1.35C68.78,147.55,69.87,147.24,69.87,147.24z"/>
		<path class="st5" d="M71.93,137.99c0.55,0,1.05,0.28,1.35,0.74c1.32,2,5.24,8.16,4.05,8.81c-2.38,1.31-7.95-5.68-8.25-6.96
			C68.58,138.4,70.57,137.98,71.93,137.99z"/>
		<g>
			<path class="st10" d="M59.75,129.22c0.49-0.49,1.04-0.81,1.58-0.86c-0.32,0.93,0.07,3.16-0.09,4.64c-0.2,1.77-1.37,3.07-1.8,3.86
				c-0.43,0.79,0.73,3.7,1.84,4.08c1.11,0.37,0.89,1.59,2.15,2.76c1.27,1.17,2.97,2.2,4.21,3.1c0.81,0.59,1.07,1.3,1.14,1.72
				c-2.83-0.27-7.44-3.55-9.55-7.32C57.66,138.36,57.97,131,59.75,129.22z"/>
		</g>
		<path class="st10" d="M77.11,147.63c-2.48,0.8-7.74-5.81-8.03-7.06c-0.38-1.64,0.66-2.28,1.77-2.5c0.04,0.37,0.2,1.73,0.57,2.46
			c0.42,0.84,3.49,3.71,4.42,5.02C76.33,146.25,76.87,146.98,77.11,147.63z"/>
		<path class="st5" d="M77.43,146.99c0,0,0.98,1.48,1.15,1.87c0.17,0.39,0.06,2.02-1.01,1.73c-0.43-0.12-0.02-1.08-0.61-1.38
			c-0.58-0.3-1-1.28-0.83-1.82C76.3,146.85,77.43,146.99,77.43,146.99z"/>
	</g>
</g>
</svg>
