<?xml version="1.0" encoding="utf-8"?>
<!-- Generator: Adobe Illustrator 24.0.2, SVG Export Plug-In . SVG Version: 6.00 Build 0)  -->
<svg version="1.1" id="Layer_1" xmlns="http://www.w3.org/2000/svg" xmlns:xlink="http://www.w3.org/1999/xlink" x="0px" y="0px"
	 viewBox="0 0 3.69 4.46" style="enable-background:new 0 0 3.69 4.46;" xml:space="preserve">
<style type="text/css">
	.st0{fill:#00B3A6;}
</style>
<g>
	<path class="st0" d="M0.81,3.1c-0.26-0.14-0.46-0.34-0.6-0.59C0.07,2.27,0,1.98,0,1.66C0,1.34,0.07,1.05,0.21,0.8
		c0.14-0.25,0.34-0.45,0.6-0.59C1.07,0.07,1.37,0,1.7,0c0.33,0,0.63,0.07,0.88,0.21c0.26,0.14,0.46,0.34,0.6,0.59
		c0.14,0.25,0.21,0.54,0.21,0.86c0,0.32-0.07,0.6-0.21,0.86C3.04,2.77,2.84,2.96,2.58,3.1C2.32,3.25,2.03,3.32,1.7,3.32
		C1.37,3.32,1.07,3.25,0.81,3.1z M2.17,2.25C2.3,2.1,2.36,1.9,2.36,1.66c0-0.16-0.03-0.31-0.09-0.44c-0.06-0.13-0.14-0.23-0.24-0.3
		c-0.1-0.07-0.22-0.11-0.35-0.11c-0.13,0-0.24,0.04-0.34,0.11c-0.1,0.07-0.18,0.17-0.24,0.3C1.06,1.35,1.03,1.49,1.03,1.66
		c0,0.25,0.06,0.44,0.18,0.59C1.34,2.4,1.5,2.48,1.7,2.48C1.89,2.48,2.05,2.4,2.17,2.25z"/>
	<path class="st0" d="M3.69,3.65C3.68,3.68,3.67,3.7,3.65,3.73C3.5,3.87,3.32,4,3.13,4.1C2.7,4.34,2.22,4.46,1.7,4.46V3.63
		c0.38,0,0.73-0.08,1.03-0.25C2.88,3.3,3.01,3.2,3.13,3.09L3.69,3.65z"/>
</g>
</svg>
