<?xml version="1.0" encoding="utf-8"?>
<!-- Generator: Adobe Illustrator 24.0.2, SVG Export Plug-In . SVG Version: 6.00 Build 0)  -->
<svg version="1.1" id="Layer_1" xmlns="http://www.w3.org/2000/svg" xmlns:xlink="http://www.w3.org/1999/xlink" x="0px" y="0px"
	 viewBox="0 0 5 5" style="enable-background:new 0 0 5 5;" xml:space="preserve">
<style type="text/css">
	.st0{fill:#00B3A6;}
	.st1{fill:#00AFA6;}
</style>
<g>
	<path class="st0" d="M-8.3,3.32c-0.29-0.16-0.51-0.38-0.67-0.66c-0.16-0.28-0.24-0.6-0.24-0.96c0-0.36,0.08-0.68,0.24-0.97
		c0.16-0.28,0.38-0.5,0.67-0.66c0.29-0.16,0.62-0.24,0.99-0.24c0.37,0,0.7,0.08,0.99,0.24c0.29,0.16,0.51,0.38,0.67,0.66
		C-5.48,1.01-5.4,1.34-5.4,1.7c0,0.36-0.08,0.68-0.24,0.96c-0.16,0.28-0.39,0.5-0.68,0.66c-0.29,0.16-0.62,0.24-0.99,0.24
		C-7.68,3.56-8.01,3.48-8.3,3.32z M-6.77,2.36c0.14-0.17,0.21-0.39,0.21-0.67c0-0.18-0.03-0.35-0.1-0.49
		c-0.06-0.14-0.15-0.26-0.27-0.34c-0.11-0.08-0.24-0.12-0.39-0.12c-0.14,0-0.27,0.04-0.38,0.12c-0.11,0.08-0.2,0.19-0.26,0.34
		C-8.02,1.35-8.05,1.51-8.05,1.7c0,0.28,0.07,0.5,0.21,0.67c0.14,0.17,0.32,0.25,0.54,0.25C-7.09,2.62-6.91,2.53-6.77,2.36z"/>
	<path class="st0" d="M-5.06,3.94C-5.08,3.97-5.09,4-5.11,4.02c-0.18,0.16-0.37,0.3-0.59,0.42c-0.48,0.26-1.02,0.4-1.6,0.4V3.91
		c0.43,0,0.82-0.09,1.16-0.28c0.17-0.09,0.32-0.2,0.45-0.33L-5.06,3.94z"/>
</g>
<g>
	<path class="st0" d="M10.26,0c-1.72,0-2.5,0.86-2.5,2.58C7.76,4.3,8.55,5,10.26,5c1.72,0,2.5-0.7,2.5-2.42
		C12.76,0.86,11.98,0,10.26,0z M11.87,3.17c-0.01,0.17-0.04,0.29-0.08,0.39c-0.04,0.11-0.1,0.2-0.19,0.29
		c-0.09,0.09-0.18,0.15-0.29,0.19c-0.1,0.04-0.22,0.07-0.39,0.08c-0.17,0.01-0.23,0.01-0.67,0.01s-0.49,0-0.67-0.01
		C9.42,4.1,9.31,4.07,9.2,4.03c-0.11-0.04-0.2-0.1-0.29-0.19C8.83,3.76,8.77,3.67,8.73,3.56c-0.04-0.1-0.07-0.22-0.08-0.39
		C8.65,2.99,8.65,2.94,8.65,2.5c0-0.44,0-0.49,0.01-0.67c0.01-0.17,0.04-0.29,0.08-0.39c0.04-0.11,0.1-0.2,0.19-0.29
		C9.01,1.06,9.1,1.01,9.2,0.97C9.31,0.93,9.42,0.9,9.6,0.89c0.17-0.01,0.23-0.01,0.67-0.01s0.49,0,0.67,0.01
		c0.17,0.01,0.29,0.04,0.39,0.08c0.11,0.04,0.2,0.1,0.29,0.19c0.09,0.09,0.15,0.18,0.19,0.29c0.04,0.1,0.07,0.22,0.08,0.39
		c0.01,0.17,0.01,0.23,0.01,0.67C11.88,2.94,11.88,2.99,11.87,3.17z"/>
	<path class="st0" d="M10.26,1.67c-0.46,0-0.83,0.37-0.83,0.83c0,0.46,0.37,0.83,0.83,0.83c0.46,0,0.83-0.37,0.83-0.83
		C11.09,2.04,10.72,1.67,10.26,1.67z M10.26,3.04c-0.3,0-0.54-0.24-0.54-0.54c0-0.3,0.24-0.54,0.54-0.54S10.8,2.2,10.8,2.5
		C10.8,2.8,10.56,3.04,10.26,3.04z"/>
	<path class="st0" d="M11.13,1.83c-0.11,0-0.19-0.09-0.19-0.19s0.09-0.19,0.19-0.19c0.11,0,0.19,0.09,0.19,0.19
		S11.23,1.83,11.13,1.83z"/>
</g>
<g>
	<path class="st0" d="M18.79,3.06c-0.03,0.09-0.19,0.17-0.26,0.19c-0.07,0.01-0.15,0.01-0.25-0.02c-0.06-0.02-0.13-0.04-0.22-0.08
		c-0.39-0.17-0.65-0.56-0.67-0.59c-0.02-0.03-0.16-0.21-0.16-0.4c0-0.19,0.1-0.29,0.14-0.33c0.04-0.04,0.08-0.05,0.1-0.05
		c0.03,0,0.05,0,0.07,0c0.02,0,0.06-0.01,0.09,0.07c0.03,0.08,0.11,0.27,0.12,0.29c0.01,0.02,0.02,0.04,0,0.07
		c-0.01,0.03-0.02,0.04-0.04,0.06c-0.02,0.02-0.04,0.05-0.06,0.07c-0.02,0.02-0.04,0.04-0.02,0.08c0.02,0.04,0.1,0.17,0.22,0.27
		c0.15,0.13,0.27,0.17,0.31,0.19c0.04,0.02,0.06,0.02,0.08-0.01c0.02-0.03,0.1-0.11,0.12-0.15c0.03-0.04,0.05-0.03,0.09-0.02
		c0.04,0.01,0.23,0.11,0.27,0.13c0.04,0.02,0.06,0.03,0.07,0.05C18.82,2.89,18.82,2.97,18.79,3.06z"/>
	<path class="st0" d="M18.03,0c-1.72,0-2.5,0.86-2.5,2.58S16.31,5,18.03,5c1.72,0,2.5-0.7,2.5-2.42S19.74,0,18.03,0z M18.03,4.21
		L18.03,4.21c-0.27,0-0.53-0.06-0.76-0.18L16.24,4.3l0.27-1c-0.13-0.25-0.2-0.52-0.2-0.8c0-0.94,0.77-1.71,1.71-1.71
		c0.46,0,0.89,0.18,1.21,0.5c0.32,0.32,0.5,0.75,0.5,1.21C19.73,3.44,18.97,4.21,18.03,4.21z"/>
</g>
<g>
	<path class="st0" d="M2.5,5C4.22,5,5,4.3,5,2.58C5,0.86,4.22,0,2.5,0C0.78,0,0,0.86,0,2.58C0,4.3,0.78,5,2.5,5z M1.69,2.08h0.48
		V1.67c0-0.47,0.29-0.73,0.71-0.73c0.2,0,0.38,0.02,0.43,0.02v0.5l-0.29,0c-0.23,0-0.27,0.11-0.27,0.27v0.35h0.55L3.22,2.64H2.74
		v1.42H2.17V2.64H1.69V2.08z"/>
</g>
<g>
	<polygon class="st0" points="25.42,1.94 25.42,2.18 25.42,2.98 26.38,2.46 25.85,2.17 	"/>
	<path class="st0" d="M25.79,0c-1.72,0-2.5,0.86-2.5,2.58c0,1.72,0.78,2.42,2.5,2.42c1.72,0,2.5-0.7,2.5-2.42
		C28.29,0.86,27.5,0,25.79,0z M27.57,2.41v0.23c0,0.3-0.04,0.6-0.04,0.6S27.5,3.5,27.4,3.61c-0.14,0.15-0.29,0.15-0.36,0.16
		c-0.5,0.04-1.25,0.04-1.25,0.04s-0.93-0.01-1.21-0.04c-0.08-0.02-0.26-0.01-0.39-0.16c-0.11-0.11-0.14-0.37-0.14-0.37
		S24,2.94,24,2.64V2.39V2.36c0-0.3,0.04-0.6,0.04-0.6s0.03-0.26,0.14-0.37c0.14-0.15,0.29-0.15,0.36-0.16
		c0.5-0.04,1.25-0.04,1.25-0.04h0c0,0,0.75,0,1.25,0.04c0.07,0.01,0.22,0.01,0.36,0.16c0.11,0.11,0.14,0.37,0.14,0.37
		s0.04,0.3,0.04,0.6V2.41z"/>
</g>
<g>
	<path class="st0" d="M33.55,0c-1.72,0-2.5,0.86-2.5,2.58c0,1.72,0.78,2.42,2.5,2.42c1.72,0,2.5-0.7,2.5-2.42
		C36.05,0.86,35.27,0,33.55,0z M34.79,1.87c0,0.03,0,0.05,0,0.08c0,0.13-0.01,0.25-0.04,0.38c-0.16,0.72-0.78,1.41-1.78,1.41
		c-0.36,0-0.7-0.1-0.98-0.28c0.05,0.01,0.1,0.01,0.15,0.01c0.3,0,0.58-0.1,0.8-0.27c-0.28-0.01-0.52-0.19-0.6-0.44
		c0.04,0.01,0.08,0.01,0.12,0.01c0.06,0,0.11-0.01,0.17-0.02c-0.22-0.04-0.39-0.19-0.47-0.39c-0.03-0.07-0.04-0.15-0.04-0.23
		c0,0,0-0.01,0-0.01c0.09,0.05,0.19,0.08,0.29,0.08c-0.17-0.11-0.28-0.31-0.28-0.52c0-0.12,0.03-0.22,0.09-0.32
		C32.52,1.75,33,2,33.53,2.03c-0.01-0.05-0.02-0.09-0.02-0.14c0-0.35,0.29-0.63,0.64-0.63c0.18,0,0.35,0.08,0.47,0.2
		c0.15-0.03,0.28-0.08,0.41-0.15c-0.05,0.15-0.15,0.27-0.28,0.35c0.13-0.02,0.25-0.05,0.37-0.1C35.03,1.67,34.92,1.78,34.79,1.87z"
		/>
</g>
<g>
	<g>
		<path class="st0" d="M41.24,1.78c-0.08-0.05-0.16-0.08-0.26-0.08c-0.09,0-0.18,0.03-0.25,0.08c-0.08,0.05-0.13,0.13-0.17,0.22
			c-0.04,0.09-0.06,0.2-0.06,0.32c0,0.18,0.05,0.33,0.14,0.44c0.09,0.11,0.21,0.17,0.35,0.17c0.14,0,0.26-0.06,0.35-0.17
			c0.09-0.11,0.14-0.26,0.14-0.44c0-0.12-0.02-0.23-0.06-0.32C41.37,1.91,41.32,1.84,41.24,1.78z"/>
	</g>
	<g>
		<path class="st0" d="M43.12,0.25h-4.04c-0.34,0-0.62,0.28-0.62,0.62v3.75c0,0.34,0.28,0.62,0.62,0.62h4.04
			c0.34,0,0.62-0.28,0.62-0.62V0.88C43.74,0.53,43.46,0.25,43.12,0.25z M40.33,3.4c-0.19-0.1-0.34-0.25-0.44-0.44
			c-0.11-0.19-0.16-0.4-0.16-0.63c0-0.24,0.05-0.45,0.16-0.64c0.11-0.19,0.25-0.33,0.44-0.44c0.19-0.1,0.41-0.16,0.65-0.16
			c0.25,0,0.46,0.05,0.65,0.16c0.19,0.1,0.34,0.25,0.44,0.43c0.11,0.19,0.16,0.4,0.16,0.64c0,0.24-0.05,0.45-0.16,0.63
			c-0.11,0.19-0.25,0.33-0.45,0.44c-0.19,0.1-0.41,0.16-0.65,0.16C40.74,3.56,40.52,3.5,40.33,3.4z M42.43,3.86
			c-0.12,0.11-0.25,0.2-0.39,0.28c-0.32,0.17-0.67,0.26-1.06,0.26V3.79c0.28,0,0.54-0.06,0.76-0.19c0.11-0.06,0.21-0.13,0.29-0.21
			l0.42,0.42C42.46,3.83,42.45,3.84,42.43,3.86z"/>
	</g>
</g>
<g>
	<path class="st1" d="M49.43,2.26c0-0.51-0.2-0.99-0.56-1.36c-0.37-0.36-0.85-0.57-1.36-0.57c-1.06,0-1.92,0.86-1.92,1.92
		c0,0.48,0.17,0.91,0.46,1.24l1.32,1.74c0.08,0.13,0.21,0.13,0.29,0l1.32-1.74C49.26,3.17,49.43,2.74,49.43,2.26 M47.51,1.23
		c0.28,0,0.54,0.11,0.73,0.31c0.2,0.19,0.3,0.46,0.3,0.73c0,0.58-0.47,1.04-1.04,1.04c-0.58,0-1.04-0.47-1.04-1.04
		C46.47,1.7,46.93,1.23,47.51,1.23"/>
	<path class="st1" d="M47.51,2.73c0.25,0,0.46-0.21,0.46-0.46c0-0.25-0.2-0.46-0.46-0.46c-0.25,0-0.46,0.2-0.46,0.46
		C47.05,2.53,47.26,2.73,47.51,2.73"/>
</g>
</svg>
