<?xml version="1.0" encoding="utf-8"?>
<!-- Generator: Adobe Illustrator 24.0.2, SVG Export Plug-In . SVG Version: 6.00 Build 0)  -->
<svg version="1.1" id="Layer_1" xmlns="http://www.w3.org/2000/svg" xmlns:xlink="http://www.w3.org/1999/xlink" x="0px" y="0px"
	 viewBox="0 0 5 5" style="enable-background:new 0 0 5 5;" xml:space="preserve">
<style type="text/css">
	.st0{fill:#00B3A6;}
	.st1{fill:#00AFA6;}
</style>
<g>
	<path class="st0" d="M-16.06,3.32c-0.29-0.16-0.51-0.38-0.67-0.66c-0.16-0.28-0.24-0.6-0.24-0.96c0-0.36,0.08-0.68,0.24-0.97
		c0.16-0.28,0.38-0.5,0.67-0.66c0.29-0.16,0.62-0.24,0.99-0.24c0.37,0,0.7,0.08,0.99,0.24c0.29,0.16,0.51,0.38,0.67,0.66
		c0.16,0.28,0.24,0.6,0.24,0.97c0,0.36-0.08,0.68-0.24,0.96c-0.16,0.28-0.39,0.5-0.68,0.66c-0.29,0.16-0.62,0.24-0.99,0.24
		C-15.44,3.56-15.77,3.48-16.06,3.32z M-14.53,2.36c0.14-0.17,0.21-0.39,0.21-0.67c0-0.18-0.03-0.35-0.1-0.49
		c-0.06-0.14-0.15-0.26-0.27-0.34c-0.11-0.08-0.24-0.12-0.39-0.12c-0.14,0-0.27,0.04-0.38,0.12c-0.11,0.08-0.2,0.19-0.26,0.34
		c-0.06,0.14-0.09,0.31-0.09,0.49c0,0.28,0.07,0.5,0.21,0.67c0.14,0.17,0.32,0.25,0.54,0.25C-14.85,2.62-14.67,2.53-14.53,2.36z"/>
	<path class="st0" d="M-12.83,3.94c-0.01,0.03-0.03,0.06-0.05,0.08c-0.18,0.16-0.37,0.3-0.59,0.42c-0.48,0.26-1.02,0.4-1.6,0.4V3.91
		c0.43,0,0.82-0.09,1.16-0.28c0.17-0.09,0.32-0.2,0.45-0.33L-12.83,3.94z"/>
</g>
<g>
	<path class="st0" d="M2.5,0C0.78,0,0,0.86,0,2.58C0,4.3,0.78,5,2.5,5C4.22,5,5,4.3,5,2.58C5,0.86,4.22,0,2.5,0z M4.11,3.17
		C4.1,3.34,4.07,3.46,4.03,3.56c-0.04,0.11-0.1,0.2-0.19,0.29C3.76,3.94,3.67,3.99,3.56,4.03C3.46,4.07,3.34,4.1,3.17,4.11
		C2.99,4.11,2.94,4.12,2.5,4.12s-0.49,0-0.67-0.01C1.66,4.1,1.54,4.07,1.44,4.03c-0.11-0.04-0.2-0.1-0.29-0.19
		C1.06,3.76,1.01,3.67,0.97,3.56C0.93,3.46,0.9,3.34,0.89,3.17C0.89,2.99,0.88,2.94,0.88,2.5c0-0.44,0-0.49,0.01-0.67
		C0.9,1.66,0.93,1.54,0.97,1.44c0.04-0.11,0.1-0.2,0.19-0.29c0.09-0.09,0.18-0.15,0.29-0.19c0.1-0.04,0.22-0.07,0.39-0.08
		C2.01,0.89,2.06,0.88,2.5,0.88s0.49,0,0.67,0.01C3.34,0.9,3.46,0.93,3.56,0.97c0.11,0.04,0.2,0.1,0.29,0.19
		c0.09,0.09,0.15,0.18,0.19,0.29c0.04,0.1,0.07,0.22,0.08,0.39C4.11,2.01,4.12,2.06,4.12,2.5C4.12,2.94,4.11,2.99,4.11,3.17z"/>
	<path class="st0" d="M2.5,1.67c-0.46,0-0.83,0.37-0.83,0.83c0,0.46,0.37,0.83,0.83,0.83c0.46,0,0.83-0.37,0.83-0.83
		C3.33,2.04,2.96,1.67,2.5,1.67z M2.5,3.04c-0.3,0-0.54-0.24-0.54-0.54c0-0.3,0.24-0.54,0.54-0.54S3.04,2.2,3.04,2.5
		C3.04,2.8,2.8,3.04,2.5,3.04z"/>
	<path class="st0" d="M3.36,1.83c-0.11,0-0.19-0.09-0.19-0.19s0.09-0.19,0.19-0.19c0.11,0,0.19,0.09,0.19,0.19S3.47,1.83,3.36,1.83z
		"/>
</g>
<g>
	<path class="st0" d="M11.03,3.06c-0.03,0.09-0.19,0.17-0.26,0.19c-0.07,0.01-0.15,0.01-0.25-0.02c-0.06-0.02-0.13-0.04-0.22-0.08
		C9.9,2.98,9.65,2.58,9.63,2.56c-0.02-0.03-0.16-0.21-0.16-0.4c0-0.19,0.1-0.29,0.14-0.33c0.04-0.04,0.08-0.05,0.1-0.05
		c0.03,0,0.05,0,0.07,0c0.02,0,0.06-0.01,0.09,0.07c0.03,0.08,0.11,0.27,0.12,0.29C10,2.16,10.01,2.18,10,2.2
		C9.98,2.23,9.98,2.25,9.96,2.27C9.94,2.29,9.92,2.32,9.9,2.34C9.88,2.36,9.86,2.38,9.88,2.42c0.02,0.04,0.1,0.17,0.22,0.27
		c0.15,0.13,0.27,0.17,0.31,0.19c0.04,0.02,0.06,0.02,0.08-0.01c0.02-0.03,0.1-0.11,0.12-0.15c0.03-0.04,0.05-0.03,0.09-0.02
		c0.04,0.01,0.23,0.11,0.27,0.13c0.04,0.02,0.06,0.03,0.07,0.05C11.06,2.89,11.06,2.97,11.03,3.06z"/>
	<path class="st0" d="M10.26,0c-1.72,0-2.5,0.86-2.5,2.58S8.55,5,10.26,5c1.72,0,2.5-0.7,2.5-2.42S11.98,0,10.26,0z M10.26,4.21
		L10.26,4.21C10,4.21,9.73,4.15,9.5,4.03L8.48,4.3l0.27-1c-0.13-0.25-0.2-0.52-0.2-0.8c0-0.94,0.77-1.71,1.71-1.71
		c0.46,0,0.89,0.18,1.21,0.5c0.32,0.32,0.5,0.75,0.5,1.21C11.97,3.44,11.2,4.21,10.26,4.21z"/>
</g>
<g>
	<path class="st0" d="M-5.26,5c1.72,0,2.5-0.7,2.5-2.42C-2.76,0.86-3.55,0-5.26,0c-1.72,0-2.5,0.86-2.5,2.58
		C-7.76,4.3-6.98,5-5.26,5z M-6.07,2.08h0.48V1.67c0-0.47,0.29-0.73,0.71-0.73c0.2,0,0.38,0.02,0.43,0.02v0.5l-0.29,0
		c-0.23,0-0.27,0.11-0.27,0.27v0.35h0.55l-0.07,0.55h-0.48v1.42h-0.57V2.64h-0.48V2.08z"/>
</g>
<g>
	<polygon class="st0" points="17.66,1.94 17.66,2.18 17.66,2.98 18.62,2.46 18.09,2.17 	"/>
	<path class="st0" d="M18.03,0c-1.72,0-2.5,0.86-2.5,2.58c0,1.72,0.78,2.42,2.5,2.42c1.72,0,2.5-0.7,2.5-2.42
		C20.53,0.86,19.74,0,18.03,0z M19.81,2.41v0.23c0,0.3-0.04,0.6-0.04,0.6s-0.03,0.26-0.14,0.37c-0.14,0.15-0.29,0.15-0.36,0.16
		c-0.5,0.04-1.25,0.04-1.25,0.04S17.1,3.8,16.81,3.77c-0.08-0.02-0.26-0.01-0.39-0.16c-0.11-0.11-0.14-0.37-0.14-0.37
		s-0.04-0.3-0.04-0.6V2.39V2.36c0-0.3,0.04-0.6,0.04-0.6s0.03-0.26,0.14-0.37c0.14-0.15,0.29-0.15,0.36-0.16
		c0.5-0.04,1.25-0.04,1.25-0.04h0c0,0,0.75,0,1.25,0.04c0.07,0.01,0.22,0.01,0.36,0.16c0.11,0.11,0.14,0.37,0.14,0.37
		s0.04,0.3,0.04,0.6V2.41z"/>
</g>
<g>
	<path class="st0" d="M25.79,0c-1.72,0-2.5,0.86-2.5,2.58c0,1.72,0.78,2.42,2.5,2.42c1.72,0,2.5-0.7,2.5-2.42
		C28.29,0.86,27.5,0,25.79,0z M27.03,1.87c0,0.03,0,0.05,0,0.08c0,0.13-0.01,0.25-0.04,0.38c-0.16,0.72-0.78,1.41-1.78,1.41
		c-0.36,0-0.7-0.1-0.98-0.28c0.05,0.01,0.1,0.01,0.15,0.01c0.3,0,0.58-0.1,0.8-0.27c-0.28-0.01-0.52-0.19-0.6-0.44
		c0.04,0.01,0.08,0.01,0.12,0.01c0.06,0,0.11-0.01,0.17-0.02c-0.22-0.04-0.39-0.19-0.47-0.39c-0.03-0.07-0.04-0.15-0.04-0.23
		c0,0,0-0.01,0-0.01c0.09,0.05,0.19,0.08,0.29,0.08c-0.17-0.11-0.28-0.31-0.28-0.52c0-0.12,0.03-0.22,0.09-0.32
		c0.32,0.38,0.79,0.63,1.32,0.66c-0.01-0.05-0.02-0.09-0.02-0.14c0-0.35,0.29-0.63,0.64-0.63c0.18,0,0.35,0.08,0.47,0.2
		C27,1.42,27.14,1.37,27.26,1.3c-0.05,0.15-0.15,0.27-0.28,0.35c0.13-0.02,0.25-0.05,0.37-0.1C27.26,1.67,27.15,1.78,27.03,1.87z"/>
</g>
<g>
	<g>
		<path class="st0" d="M33.48,1.78C33.4,1.73,33.32,1.7,33.22,1.7c-0.09,0-0.18,0.03-0.25,0.08c-0.08,0.05-0.13,0.13-0.17,0.22
			c-0.04,0.09-0.06,0.2-0.06,0.32c0,0.18,0.05,0.33,0.14,0.44c0.09,0.11,0.21,0.17,0.35,0.17c0.14,0,0.26-0.06,0.35-0.17
			c0.09-0.11,0.14-0.26,0.14-0.44c0-0.12-0.02-0.23-0.06-0.32C33.61,1.91,33.55,1.84,33.48,1.78z"/>
	</g>
	<g>
		<path class="st0" d="M35.36,0.25h-4.04c-0.34,0-0.62,0.28-0.62,0.62v3.75c0,0.34,0.28,0.62,0.62,0.62h4.04
			c0.34,0,0.62-0.28,0.62-0.62V0.88C35.98,0.53,35.7,0.25,35.36,0.25z M32.57,3.4c-0.19-0.1-0.34-0.25-0.44-0.44
			c-0.11-0.19-0.16-0.4-0.16-0.63c0-0.24,0.05-0.45,0.16-0.64c0.11-0.19,0.25-0.33,0.44-0.44c0.19-0.1,0.41-0.16,0.65-0.16
			c0.25,0,0.46,0.05,0.65,0.16c0.19,0.1,0.34,0.25,0.44,0.43c0.11,0.19,0.16,0.4,0.16,0.64c0,0.24-0.05,0.45-0.16,0.63
			c-0.11,0.19-0.25,0.33-0.45,0.44c-0.19,0.1-0.41,0.16-0.65,0.16C32.98,3.56,32.76,3.5,32.57,3.4z M34.67,3.86
			c-0.12,0.11-0.25,0.2-0.39,0.28c-0.32,0.17-0.67,0.26-1.06,0.26V3.79c0.28,0,0.54-0.06,0.76-0.19c0.11-0.06,0.21-0.13,0.29-0.21
			l0.42,0.42C34.69,3.83,34.68,3.84,34.67,3.86z"/>
	</g>
</g>
<g>
	<path class="st1" d="M41.67,2.26c0-0.51-0.2-0.99-0.56-1.36c-0.37-0.36-0.85-0.57-1.36-0.57c-1.06,0-1.92,0.86-1.92,1.92
		c0,0.48,0.17,0.91,0.46,1.24l1.32,1.74c0.08,0.13,0.21,0.13,0.29,0l1.32-1.74C41.49,3.17,41.67,2.74,41.67,2.26 M39.75,1.23
		c0.28,0,0.54,0.11,0.73,0.31c0.2,0.19,0.3,0.46,0.3,0.73c0,0.58-0.47,1.04-1.04,1.04c-0.58,0-1.04-0.47-1.04-1.04
		C38.7,1.7,39.17,1.23,39.75,1.23"/>
	<path class="st1" d="M39.75,2.73c0.25,0,0.46-0.21,0.46-0.46c0-0.25-0.2-0.46-0.46-0.46c-0.25,0-0.46,0.2-0.46,0.46
		C39.29,2.53,39.49,2.73,39.75,2.73"/>
</g>
</svg>
