<?xml version="1.0" encoding="utf-8"?>
<!-- Generator: Adobe Illustrator 24.0.2, SVG Export Plug-In . SVG Version: 6.00 Build 0)  -->
<svg version="1.1" id="Layer_1" xmlns="http://www.w3.org/2000/svg" xmlns:xlink="http://www.w3.org/1999/xlink" x="0px" y="0px"
	 viewBox="0 0 5.29 5" style="enable-background:new 0 0 5.29 5;" xml:space="preserve">
<style type="text/css">
	.st0{fill:#00B3A6;}
	.st1{fill:#00AFA6;}
</style>
<g>
	<path class="st0" d="M-46.75,3.07c-0.29-0.16-0.51-0.38-0.67-0.66c-0.16-0.28-0.24-0.6-0.24-0.96c0-0.36,0.08-0.68,0.24-0.97
		c0.16-0.28,0.38-0.5,0.67-0.66c0.29-0.16,0.62-0.24,0.99-0.24c0.37,0,0.7,0.08,0.99,0.24c0.29,0.16,0.51,0.38,0.67,0.66
		c0.16,0.28,0.24,0.6,0.24,0.97c0,0.36-0.08,0.68-0.24,0.96c-0.16,0.28-0.39,0.5-0.68,0.66c-0.29,0.16-0.62,0.24-0.99,0.24
		C-46.13,3.31-46.46,3.23-46.75,3.07z M-45.22,2.11c0.14-0.17,0.21-0.39,0.21-0.67c0-0.18-0.03-0.35-0.1-0.49
		c-0.06-0.14-0.15-0.26-0.27-0.34c-0.11-0.08-0.24-0.12-0.39-0.12c-0.14,0-0.27,0.04-0.38,0.12c-0.11,0.08-0.2,0.19-0.26,0.34
		c-0.06,0.14-0.09,0.31-0.09,0.49c0,0.28,0.07,0.5,0.21,0.67c0.14,0.17,0.32,0.25,0.54,0.25C-45.54,2.37-45.36,2.28-45.22,2.11z"/>
	<path class="st0" d="M-43.52,3.69c-0.01,0.03-0.03,0.06-0.05,0.08c-0.18,0.16-0.37,0.3-0.59,0.42c-0.48,0.26-1.02,0.4-1.6,0.4V3.66
		c0.43,0,0.82-0.09,1.16-0.28c0.17-0.09,0.32-0.2,0.45-0.33L-43.52,3.69z"/>
</g>
<g>
	<path class="st0" d="M-28.19-0.25c-1.72,0-2.5,0.86-2.5,2.58c0,1.72,0.78,2.42,2.5,2.42c1.72,0,2.5-0.7,2.5-2.42
		C-25.69,0.61-26.47-0.25-28.19-0.25z M-26.58,2.92c-0.01,0.17-0.04,0.29-0.08,0.39c-0.04,0.11-0.1,0.2-0.19,0.29
		c-0.09,0.09-0.18,0.15-0.29,0.19c-0.1,0.04-0.22,0.07-0.39,0.08c-0.17,0.01-0.23,0.01-0.67,0.01c-0.44,0-0.49,0-0.67-0.01
		c-0.17-0.01-0.29-0.04-0.39-0.08c-0.11-0.04-0.2-0.1-0.29-0.19c-0.09-0.09-0.15-0.18-0.19-0.29c-0.04-0.1-0.07-0.22-0.08-0.39
		c-0.01-0.17-0.01-0.23-0.01-0.67c0-0.44,0-0.49,0.01-0.67c0.01-0.17,0.04-0.29,0.08-0.39c0.04-0.11,0.1-0.2,0.19-0.29
		c0.09-0.09,0.18-0.15,0.29-0.19c0.1-0.04,0.22-0.07,0.39-0.08c0.17-0.01,0.23-0.01,0.67-0.01c0.44,0,0.49,0,0.67,0.01
		c0.17,0.01,0.29,0.04,0.39,0.08c0.11,0.04,0.2,0.1,0.29,0.19c0.09,0.09,0.15,0.18,0.19,0.29c0.04,0.1,0.07,0.22,0.08,0.39
		c0.01,0.17,0.01,0.23,0.01,0.67C-26.57,2.69-26.58,2.74-26.58,2.92z"/>
	<path class="st0" d="M-28.19,1.42c-0.46,0-0.83,0.37-0.83,0.83c0,0.46,0.37,0.83,0.83,0.83c0.46,0,0.83-0.37,0.83-0.83
		C-27.36,1.79-27.73,1.42-28.19,1.42z M-28.19,2.79c-0.3,0-0.54-0.24-0.54-0.54c0-0.3,0.24-0.54,0.54-0.54s0.54,0.24,0.54,0.54
		C-27.65,2.55-27.89,2.79-28.19,2.79z"/>
	<path class="st0" d="M-27.33,1.58c-0.11,0-0.19-0.09-0.19-0.19s0.09-0.19,0.19-0.19c0.11,0,0.19,0.09,0.19,0.19
		S-27.22,1.58-27.33,1.58z"/>
</g>
<g>
	<path class="st0" d="M-19.67,2.81c-0.03,0.09-0.19,0.17-0.26,0.19C-20,3-20.08,3.01-20.17,2.98c-0.06-0.02-0.13-0.04-0.22-0.08
		c-0.39-0.17-0.65-0.56-0.67-0.59c-0.02-0.03-0.16-0.21-0.16-0.4c0-0.19,0.1-0.29,0.14-0.33c0.04-0.04,0.08-0.05,0.1-0.05
		c0.03,0,0.05,0,0.07,0c0.02,0,0.06-0.01,0.09,0.07c0.03,0.08,0.11,0.27,0.12,0.29c0.01,0.02,0.02,0.04,0,0.07
		c-0.01,0.03-0.02,0.04-0.04,0.06c-0.02,0.02-0.04,0.05-0.06,0.07c-0.02,0.02-0.04,0.04-0.02,0.08c0.02,0.04,0.1,0.17,0.22,0.27
		c0.15,0.13,0.27,0.17,0.31,0.19c0.04,0.02,0.06,0.02,0.08-0.01c0.02-0.03,0.1-0.11,0.12-0.15c0.03-0.04,0.05-0.03,0.09-0.02
		c0.04,0.01,0.23,0.11,0.27,0.13c0.04,0.02,0.06,0.03,0.07,0.05C-19.63,2.64-19.63,2.71-19.67,2.81z"/>
	<path class="st0" d="M-20.43-0.25c-1.72,0-2.5,0.86-2.5,2.58s0.78,2.42,2.5,2.42c1.72,0,2.5-0.7,2.5-2.42S-18.71-0.25-20.43-0.25z
		 M-20.43,3.96L-20.43,3.96c-0.27,0-0.53-0.06-0.76-0.18l-1.02,0.27l0.27-1c-0.13-0.25-0.2-0.52-0.2-0.8c0-0.94,0.77-1.71,1.71-1.71
		c0.46,0,0.89,0.18,1.21,0.5c0.32,0.32,0.5,0.75,0.5,1.21C-18.72,3.19-19.49,3.96-20.43,3.96z"/>
</g>
<g>
	<path class="st0" d="M-35.95,4.75c1.72,0,2.5-0.7,2.5-2.42c0-1.72-0.78-2.58-2.5-2.58c-1.72,0-2.5,0.86-2.5,2.58
		C-38.45,4.05-37.67,4.75-35.95,4.75z M-36.76,1.83h0.48V1.42c0-0.47,0.29-0.73,0.71-0.73c0.2,0,0.38,0.02,0.43,0.02v0.5l-0.29,0
		c-0.23,0-0.27,0.11-0.27,0.27v0.35h0.55l-0.07,0.55h-0.48v1.42h-0.57V2.39h-0.48V1.83z"/>
</g>
<g>
	<polygon class="st0" points="-13.03,1.69 -13.03,1.93 -13.03,2.73 -12.07,2.21 -12.6,1.92 	"/>
	<path class="st0" d="M-12.67-0.25c-1.72,0-2.5,0.86-2.5,2.58c0,1.72,0.78,2.42,2.5,2.42c1.72,0,2.5-0.7,2.5-2.42
		C-10.17,0.61-10.95-0.25-12.67-0.25z M-10.88,2.16v0.23c0,0.3-0.04,0.6-0.04,0.6s-0.03,0.26-0.14,0.37
		c-0.14,0.15-0.29,0.15-0.36,0.16c-0.5,0.04-1.25,0.04-1.25,0.04s-0.93-0.01-1.21-0.04c-0.08-0.02-0.26-0.01-0.39-0.16
		c-0.11-0.11-0.14-0.37-0.14-0.37s-0.04-0.3-0.04-0.6V2.14V2.11c0-0.3,0.04-0.6,0.04-0.6s0.03-0.26,0.14-0.37
		c0.14-0.15,0.29-0.15,0.36-0.16c0.5-0.04,1.25-0.04,1.25-0.04h0c0,0,0.75,0,1.25,0.04c0.07,0.01,0.22,0.01,0.36,0.16
		c0.11,0.11,0.14,0.37,0.14,0.37s0.04,0.3,0.04,0.6V2.16z"/>
</g>
<g>
	<path class="st0" d="M-4.9-0.25c-1.72,0-2.5,0.86-2.5,2.58c0,1.72,0.78,2.42,2.5,2.42c1.72,0,2.5-0.7,2.5-2.42
		C-2.4,0.61-3.19-0.25-4.9-0.25z M-3.66,1.62c0,0.03,0,0.05,0,0.08c0,0.13-0.01,0.25-0.04,0.38C-3.87,2.8-4.48,3.5-5.48,3.5
		c-0.36,0-0.7-0.1-0.98-0.28c0.05,0.01,0.1,0.01,0.15,0.01c0.3,0,0.58-0.1,0.8-0.27c-0.28-0.01-0.52-0.19-0.6-0.44
		c0.04,0.01,0.08,0.01,0.12,0.01c0.06,0,0.11-0.01,0.17-0.02c-0.22-0.04-0.39-0.19-0.47-0.39c-0.03-0.07-0.04-0.15-0.04-0.23
		c0,0,0-0.01,0-0.01c0.09,0.05,0.19,0.08,0.29,0.08c-0.17-0.11-0.28-0.31-0.28-0.52c0-0.12,0.03-0.22,0.09-0.32
		c0.32,0.38,0.79,0.63,1.32,0.66c-0.01-0.05-0.02-0.09-0.02-0.14C-4.94,1.28-4.66,1-4.3,1c0.18,0,0.35,0.08,0.47,0.2
		c0.15-0.03,0.28-0.08,0.41-0.15C-3.48,1.19-3.58,1.32-3.71,1.4c0.13-0.02,0.25-0.05,0.37-0.1C-3.43,1.42-3.54,1.53-3.66,1.62z"/>
</g>
<g>
	<g>
		<path class="st0" d="M2.79,1.53C2.71,1.48,2.63,1.45,2.53,1.45c-0.09,0-0.18,0.03-0.25,0.08C2.2,1.59,2.14,1.66,2.1,1.75
			c-0.04,0.09-0.06,0.2-0.06,0.32c0,0.18,0.05,0.33,0.14,0.44c0.09,0.11,0.21,0.17,0.35,0.17c0.14,0,0.26-0.06,0.35-0.17
			c0.09-0.11,0.14-0.26,0.14-0.44c0-0.12-0.02-0.23-0.06-0.32C2.92,1.66,2.86,1.59,2.79,1.53z"/>
	</g>
	<g>
		<path class="st0" d="M4.66,0H0.62C0.28,0,0,0.28,0,0.62v3.75C0,4.72,0.28,5,0.62,5h4.04c0.34,0,0.62-0.28,0.62-0.62V0.62
			C5.29,0.28,5.01,0,4.66,0z M1.88,3.15C1.69,3.04,1.54,2.9,1.44,2.71c-0.11-0.19-0.16-0.4-0.16-0.63c0-0.24,0.05-0.45,0.16-0.64
			c0.11-0.19,0.25-0.33,0.44-0.44c0.19-0.1,0.41-0.16,0.65-0.16C2.78,0.85,3,0.9,3.19,1.01c0.19,0.1,0.34,0.25,0.44,0.43
			c0.11,0.19,0.16,0.4,0.16,0.64c0,0.24-0.05,0.45-0.16,0.63C3.52,2.9,3.38,3.04,3.19,3.15c-0.19,0.1-0.41,0.16-0.65,0.16
			C2.29,3.31,2.07,3.25,1.88,3.15z M3.98,3.61c-0.12,0.11-0.25,0.2-0.39,0.28C3.27,4.06,2.92,4.15,2.53,4.15V3.54
			c0.28,0,0.54-0.06,0.76-0.19C3.4,3.29,3.5,3.22,3.59,3.14l0.42,0.42C4,3.57,3.99,3.59,3.98,3.61z"/>
	</g>
</g>
<g>
	<path class="st1" d="M10.98,2.01c0-0.51-0.2-0.99-0.56-1.36c-0.37-0.36-0.85-0.57-1.36-0.57c-1.06,0-1.92,0.86-1.92,1.92
		c0,0.48,0.17,0.91,0.46,1.24l1.32,1.74c0.08,0.13,0.21,0.13,0.29,0l1.32-1.74C10.8,2.92,10.98,2.49,10.98,2.01 M9.05,0.98
		c0.28,0,0.54,0.11,0.73,0.31c0.2,0.19,0.3,0.46,0.3,0.73c0,0.58-0.47,1.04-1.04,1.04c-0.58,0-1.04-0.47-1.04-1.04
		C8.01,1.44,8.48,0.98,9.05,0.98"/>
	<path class="st1" d="M9.05,2.48c0.25,0,0.46-0.21,0.46-0.46c0-0.25-0.2-0.46-0.46-0.46c-0.25,0-0.46,0.2-0.46,0.46
		C8.6,2.28,8.8,2.48,9.05,2.48"/>
</g>
</svg>
