<?xml version="1.0" encoding="utf-8"?>
<!-- Generator: Adobe Illustrator 24.0.2, SVG Export Plug-In . SVG Version: 6.00 Build 0)  -->
<svg version="1.1" id="Layer_1" xmlns="http://www.w3.org/2000/svg" xmlns:xlink="http://www.w3.org/1999/xlink" x="0px" y="0px"
	 viewBox="0 0 4.15 5" style="enable-background:new 0 0 4.15 5;" xml:space="preserve">
<style type="text/css">
	.st0{fill:#00B3A6;}
	.st1{fill:#00AFA6;}
</style>
<g>
	<path class="st0" d="M0.91,3.48C0.63,3.32,0.4,3.1,0.24,2.82C0.08,2.54,0,2.22,0,1.86C0,1.5,0.08,1.18,0.24,0.9
		c0.16-0.28,0.38-0.5,0.67-0.66C1.2,0.08,1.53,0,1.9,0c0.37,0,0.7,0.08,0.99,0.24c0.29,0.16,0.51,0.38,0.67,0.66
		c0.16,0.28,0.24,0.6,0.24,0.97c0,0.36-0.08,0.68-0.24,0.96C3.41,3.1,3.18,3.32,2.89,3.48C2.6,3.64,2.27,3.72,1.9,3.72
		C1.53,3.72,1.2,3.64,0.91,3.48z M2.44,2.53c0.14-0.17,0.21-0.39,0.21-0.67c0-0.18-0.03-0.35-0.1-0.49C2.49,1.23,2.4,1.11,2.29,1.03
		C2.17,0.95,2.04,0.91,1.9,0.91c-0.14,0-0.27,0.04-0.38,0.12C1.4,1.11,1.31,1.23,1.25,1.37C1.19,1.51,1.16,1.68,1.16,1.86
		c0,0.28,0.07,0.5,0.21,0.67C1.5,2.69,1.68,2.78,1.9,2.78C2.12,2.78,2.3,2.69,2.44,2.53z"/>
	<path class="st0" d="M4.15,4.1C4.13,4.13,4.12,4.16,4.1,4.18C3.92,4.34,3.72,4.49,3.51,4.6C3.03,4.87,2.49,5,1.9,5V4.07
		c0.43,0,0.82-0.09,1.16-0.28c0.17-0.09,0.32-0.2,0.45-0.33L4.15,4.1z"/>
</g>
<g>
	<path class="st0" d="M19.47,0.16c-1.72,0-2.5,0.86-2.5,2.58c0,1.72,0.78,2.42,2.5,2.42c1.72,0,2.5-0.7,2.5-2.42
		C21.97,1.03,21.19,0.16,19.47,0.16z M21.08,3.33C21.07,3.5,21.04,3.62,21,3.72c-0.04,0.11-0.1,0.2-0.19,0.29
		c-0.09,0.09-0.18,0.15-0.29,0.19c-0.1,0.04-0.22,0.07-0.39,0.08c-0.17,0.01-0.23,0.01-0.67,0.01s-0.49,0-0.67-0.01
		c-0.17-0.01-0.29-0.04-0.39-0.08c-0.11-0.04-0.2-0.1-0.29-0.19c-0.09-0.09-0.15-0.18-0.19-0.29c-0.04-0.1-0.07-0.22-0.08-0.39
		c-0.01-0.17-0.01-0.23-0.01-0.67c0-0.44,0-0.49,0.01-0.67c0.01-0.17,0.04-0.29,0.08-0.39c0.04-0.11,0.1-0.2,0.19-0.29
		c0.09-0.09,0.18-0.15,0.29-0.19c0.1-0.04,0.22-0.07,0.39-0.08c0.17-0.01,0.23-0.01,0.67-0.01s0.49,0,0.67,0.01
		c0.17,0.01,0.29,0.04,0.39,0.08c0.11,0.04,0.2,0.1,0.29,0.19C20.91,1.41,20.96,1.5,21,1.6c0.04,0.1,0.07,0.22,0.08,0.39
		c0.01,0.17,0.01,0.23,0.01,0.67C21.09,3.1,21.09,3.16,21.08,3.33z"/>
	<path class="st0" d="M19.47,1.83c-0.46,0-0.83,0.37-0.83,0.83c0,0.46,0.37,0.83,0.83,0.83c0.46,0,0.83-0.37,0.83-0.83
		C20.3,2.2,19.93,1.83,19.47,1.83z M19.47,3.2c-0.3,0-0.54-0.24-0.54-0.54c0-0.3,0.24-0.54,0.54-0.54s0.54,0.24,0.54,0.54
		C20.01,2.96,19.77,3.2,19.47,3.2z"/>
	<path class="st0" d="M20.34,1.99c-0.11,0-0.19-0.09-0.19-0.19s0.09-0.19,0.19-0.19c0.11,0,0.19,0.09,0.19,0.19
		S20.44,1.99,20.34,1.99z"/>
</g>
<g>
	<path class="st0" d="M28,3.22c-0.03,0.09-0.19,0.17-0.26,0.19c-0.07,0.01-0.15,0.01-0.25-0.02c-0.06-0.02-0.13-0.04-0.22-0.08
		c-0.39-0.17-0.65-0.56-0.67-0.59c-0.02-0.03-0.16-0.21-0.16-0.4c0-0.19,0.1-0.29,0.14-0.33c0.04-0.04,0.08-0.05,0.1-0.05
		c0.03,0,0.05,0,0.07,0c0.02,0,0.06-0.01,0.09,0.07c0.03,0.08,0.11,0.27,0.12,0.29c0.01,0.02,0.02,0.04,0,0.07
		c-0.01,0.03-0.02,0.04-0.04,0.06c-0.02,0.02-0.04,0.05-0.06,0.07c-0.02,0.02-0.04,0.04-0.02,0.08c0.02,0.04,0.1,0.17,0.22,0.27
		c0.15,0.13,0.27,0.17,0.31,0.19c0.04,0.02,0.06,0.02,0.08-0.01c0.02-0.03,0.1-0.11,0.12-0.15c0.03-0.04,0.05-0.03,0.09-0.02
		c0.04,0.01,0.23,0.11,0.27,0.13c0.04,0.02,0.06,0.03,0.07,0.05C28.03,3.05,28.03,3.13,28,3.22z"/>
	<path class="st0" d="M27.24,0.16c-1.72,0-2.5,0.86-2.5,2.58s0.78,2.42,2.5,2.42c1.72,0,2.5-0.7,2.5-2.42S28.95,0.16,27.24,0.16z
		 M27.24,4.37L27.24,4.37c-0.27,0-0.53-0.06-0.76-0.18l-1.02,0.27l0.27-1c-0.13-0.25-0.2-0.52-0.2-0.8c0-0.94,0.77-1.71,1.71-1.71
		c0.46,0,0.89,0.18,1.21,0.5c0.32,0.32,0.5,0.75,0.5,1.21C28.94,3.6,28.18,4.37,27.24,4.37z"/>
</g>
<g>
	<path class="st0" d="M11.71,5.16c1.72,0,2.5-0.7,2.5-2.42c0-1.72-0.78-2.58-2.5-2.58c-1.72,0-2.5,0.86-2.5,2.58
		C9.21,4.46,9.99,5.16,11.71,5.16z M10.9,2.24h0.48V1.84c0-0.47,0.29-0.73,0.71-0.73c0.2,0,0.38,0.02,0.43,0.02v0.5l-0.29,0
		c-0.23,0-0.27,0.11-0.27,0.27v0.35h0.55L12.43,2.8h-0.48v1.42h-0.57V2.8H10.9V2.24z"/>
</g>
<g>
	<polygon class="st0" points="34.63,2.1 34.63,2.34 34.63,3.14 35.59,2.62 35.06,2.34 	"/>
	<path class="st0" d="M35,0.16c-1.72,0-2.5,0.86-2.5,2.58c0,1.72,0.78,2.42,2.5,2.42c1.72,0,2.5-0.7,2.5-2.42
		C37.5,1.03,36.72,0.16,35,0.16z M36.78,2.57V2.8c0,0.3-0.04,0.6-0.04,0.6s-0.03,0.26-0.14,0.37c-0.14,0.15-0.29,0.15-0.36,0.16
		C35.75,3.97,35,3.97,35,3.97s-0.93-0.01-1.21-0.04c-0.08-0.02-0.26-0.01-0.39-0.16c-0.11-0.11-0.14-0.37-0.14-0.37
		s-0.04-0.3-0.04-0.6V2.56V2.52c0-0.3,0.04-0.6,0.04-0.6s0.03-0.26,0.14-0.37c0.14-0.15,0.29-0.15,0.36-0.16
		C34.25,1.35,35,1.35,35,1.35h0c0,0,0.75,0,1.25,0.04c0.07,0.01,0.22,0.01,0.36,0.16c0.11,0.11,0.14,0.37,0.14,0.37
		s0.04,0.3,0.04,0.6V2.57z"/>
</g>
<g>
	<path class="st0" d="M42.76,0.16c-1.72,0-2.5,0.86-2.5,2.58c0,1.72,0.78,2.42,2.5,2.42c1.72,0,2.5-0.7,2.5-2.42
		C45.26,1.03,44.48,0.16,42.76,0.16z M44,2.04c0,0.03,0,0.05,0,0.08c0,0.13-0.01,0.25-0.04,0.38c-0.16,0.72-0.78,1.41-1.78,1.41
		c-0.36,0-0.7-0.1-0.98-0.28c0.05,0.01,0.1,0.01,0.15,0.01c0.3,0,0.58-0.1,0.8-0.27c-0.28-0.01-0.52-0.19-0.6-0.44
		c0.04,0.01,0.08,0.01,0.12,0.01c0.06,0,0.11-0.01,0.17-0.02c-0.22-0.04-0.39-0.19-0.47-0.39c-0.03-0.07-0.04-0.15-0.04-0.23
		c0,0,0-0.01,0-0.01c0.09,0.05,0.19,0.08,0.29,0.08c-0.17-0.11-0.28-0.31-0.28-0.52c0-0.12,0.03-0.22,0.09-0.32
		c0.32,0.38,0.79,0.63,1.32,0.66c-0.01-0.05-0.02-0.09-0.02-0.14c0-0.35,0.29-0.63,0.64-0.63c0.18,0,0.35,0.08,0.47,0.2
		c0.15-0.03,0.28-0.08,0.41-0.15c-0.05,0.15-0.15,0.27-0.28,0.35c0.13-0.02,0.25-0.05,0.37-0.1C44.24,1.84,44.13,1.95,44,2.04z"/>
</g>
<g>
	<g>
		<path class="st0" d="M50.45,1.94c-0.08-0.05-0.16-0.08-0.26-0.08c-0.09,0-0.18,0.03-0.25,0.08C49.87,2,49.81,2.07,49.77,2.17
			c-0.04,0.09-0.06,0.2-0.06,0.32c0,0.18,0.05,0.33,0.14,0.44c0.09,0.11,0.21,0.17,0.35,0.17c0.14,0,0.26-0.06,0.35-0.17
			c0.09-0.11,0.14-0.26,0.14-0.44c0-0.12-0.02-0.23-0.06-0.32C50.58,2.07,50.53,2,50.45,1.94z"/>
	</g>
	<g>
		<path class="st0" d="M52.33,0.41h-4.04c-0.34,0-0.62,0.28-0.62,0.62v3.75c0,0.34,0.28,0.62,0.62,0.62h4.04
			c0.34,0,0.62-0.28,0.62-0.62V1.04C52.95,0.69,52.67,0.41,52.33,0.41z M49.54,3.56c-0.19-0.1-0.34-0.25-0.44-0.44
			c-0.11-0.19-0.16-0.4-0.16-0.63c0-0.24,0.05-0.45,0.16-0.64c0.11-0.19,0.25-0.33,0.44-0.44c0.19-0.1,0.41-0.16,0.65-0.16
			c0.25,0,0.46,0.05,0.65,0.16c0.19,0.1,0.34,0.25,0.44,0.43c0.11,0.19,0.16,0.4,0.16,0.64c0,0.24-0.05,0.45-0.16,0.63
			c-0.11,0.19-0.25,0.33-0.45,0.44c-0.19,0.1-0.41,0.16-0.65,0.16C49.95,3.72,49.73,3.67,49.54,3.56z M51.65,4.02
			c-0.12,0.11-0.25,0.2-0.39,0.28c-0.32,0.17-0.67,0.26-1.06,0.26V3.95c0.28,0,0.54-0.06,0.76-0.19c0.11-0.06,0.21-0.13,0.29-0.21
			l0.42,0.42C51.67,3.99,51.66,4.01,51.65,4.02z"/>
	</g>
</g>
<g>
	<path class="st1" d="M58.64,2.43c0-0.51-0.2-0.99-0.56-1.36c-0.37-0.36-0.85-0.57-1.36-0.57c-1.06,0-1.92,0.86-1.92,1.92
		c0,0.48,0.17,0.91,0.46,1.24l1.32,1.74c0.08,0.13,0.21,0.13,0.29,0l1.32-1.74C58.47,3.33,58.64,2.9,58.64,2.43 M56.72,1.39
		c0.28,0,0.54,0.11,0.73,0.31c0.2,0.19,0.3,0.46,0.3,0.73c0,0.58-0.47,1.04-1.04,1.04c-0.58,0-1.04-0.47-1.04-1.04
		C55.68,1.86,56.14,1.39,56.72,1.39"/>
	<path class="st1" d="M56.72,2.9c0.25,0,0.46-0.21,0.46-0.46c0-0.25-0.2-0.46-0.46-0.46c-0.25,0-0.46,0.2-0.46,0.46
		C56.26,2.69,56.47,2.9,56.72,2.9"/>
</g>
</svg>
