<?xml version="1.0" encoding="utf-8"?>
<!-- Generator: Adobe Illustrator 24.0.2, SVG Export Plug-In . SVG Version: 6.00 Build 0)  -->
<svg version="1.1" id="Layer_1" xmlns="http://www.w3.org/2000/svg" xmlns:xlink="http://www.w3.org/1999/xlink" x="0px" y="0px"
	 viewBox="0 0 3.85 5" style="enable-background:new 0 0 3.85 5;" xml:space="preserve">
<style type="text/css">
	.st0{fill:#00B3A6;}
	.st1{fill:#00AFA6;}
</style>
<g>
	<path class="st0" d="M-53.88,2.98c-0.29-0.16-0.51-0.38-0.67-0.66c-0.16-0.28-0.24-0.6-0.24-0.96c0-0.36,0.08-0.68,0.24-0.97
		c0.16-0.28,0.38-0.5,0.67-0.66c0.29-0.16,0.62-0.24,0.99-0.24c0.37,0,0.7,0.08,0.99,0.24c0.29,0.16,0.51,0.38,0.67,0.66
		c0.16,0.28,0.24,0.6,0.24,0.97c0,0.36-0.08,0.68-0.24,0.96c-0.16,0.28-0.39,0.5-0.68,0.66c-0.29,0.16-0.62,0.24-0.99,0.24
		C-53.26,3.22-53.59,3.14-53.88,2.98z M-52.35,2.02c0.14-0.17,0.21-0.39,0.21-0.67c0-0.18-0.03-0.35-0.1-0.49
		c-0.06-0.14-0.15-0.26-0.27-0.34c-0.11-0.08-0.24-0.12-0.39-0.12c-0.14,0-0.27,0.04-0.38,0.12c-0.11,0.08-0.2,0.19-0.26,0.34
		c-0.06,0.14-0.09,0.31-0.09,0.49c0,0.28,0.07,0.5,0.21,0.67c0.14,0.17,0.32,0.25,0.54,0.25C-52.67,2.27-52.49,2.19-52.35,2.02z"/>
	<path class="st0" d="M-50.65,3.6c-0.01,0.03-0.03,0.06-0.05,0.08c-0.18,0.16-0.37,0.3-0.59,0.42c-0.48,0.26-1.02,0.4-1.6,0.4V3.57
		c0.43,0,0.82-0.09,1.16-0.28c0.17-0.09,0.32-0.2,0.45-0.33L-50.65,3.6z"/>
</g>
<g>
	<path class="st0" d="M-35.32-0.34c-1.72,0-2.5,0.86-2.5,2.58c0,1.72,0.78,2.42,2.5,2.42c1.72,0,2.5-0.7,2.5-2.42
		C-32.82,0.52-33.6-0.34-35.32-0.34z M-33.71,2.82c-0.01,0.17-0.04,0.29-0.08,0.39c-0.04,0.11-0.1,0.2-0.19,0.29
		c-0.09,0.09-0.18,0.15-0.29,0.19c-0.1,0.04-0.22,0.07-0.39,0.08c-0.17,0.01-0.23,0.01-0.67,0.01c-0.44,0-0.49,0-0.67-0.01
		c-0.17-0.01-0.29-0.04-0.39-0.08c-0.11-0.04-0.2-0.1-0.29-0.19c-0.09-0.09-0.15-0.18-0.19-0.29c-0.04-0.1-0.07-0.22-0.08-0.39
		c-0.01-0.17-0.01-0.23-0.01-0.67c0-0.44,0-0.49,0.01-0.67c0.01-0.17,0.04-0.29,0.08-0.39c0.04-0.11,0.1-0.2,0.19-0.29
		c0.09-0.09,0.18-0.15,0.29-0.19c0.1-0.04,0.22-0.07,0.39-0.08c0.17-0.01,0.23-0.01,0.67-0.01c0.44,0,0.49,0,0.67,0.01
		c0.17,0.01,0.29,0.04,0.39,0.08c0.11,0.04,0.2,0.1,0.29,0.19c0.09,0.09,0.15,0.18,0.19,0.29c0.04,0.1,0.07,0.22,0.08,0.39
		c0.01,0.17,0.01,0.23,0.01,0.67C-33.7,2.6-33.71,2.65-33.71,2.82z"/>
	<path class="st0" d="M-35.32,1.33c-0.46,0-0.83,0.37-0.83,0.83c0,0.46,0.37,0.83,0.83,0.83c0.46,0,0.83-0.37,0.83-0.83
		C-34.49,1.7-34.86,1.33-35.32,1.33z M-35.32,2.7c-0.3,0-0.54-0.24-0.54-0.54c0-0.3,0.24-0.54,0.54-0.54s0.54,0.24,0.54,0.54
		C-34.78,2.45-35.02,2.7-35.32,2.7z"/>
	<path class="st0" d="M-34.46,1.49c-0.11,0-0.19-0.09-0.19-0.19s0.09-0.19,0.19-0.19c0.11,0,0.19,0.09,0.19,0.19
		S-34.35,1.49-34.46,1.49z"/>
</g>
<g>
	<path class="st0" d="M-26.79,2.71c-0.03,0.09-0.19,0.17-0.26,0.19c-0.07,0.01-0.15,0.01-0.25-0.02c-0.06-0.02-0.13-0.04-0.22-0.08
		c-0.39-0.17-0.65-0.56-0.67-0.59c-0.02-0.03-0.16-0.21-0.16-0.4c0-0.19,0.1-0.29,0.14-0.33c0.04-0.04,0.08-0.05,0.1-0.05
		c0.03,0,0.05,0,0.07,0c0.02,0,0.06-0.01,0.09,0.07c0.03,0.08,0.11,0.27,0.12,0.29c0.01,0.02,0.02,0.04,0,0.07
		c-0.01,0.03-0.02,0.04-0.04,0.06C-27.88,1.95-27.9,1.98-27.92,2c-0.02,0.02-0.04,0.04-0.02,0.08c0.02,0.04,0.1,0.17,0.22,0.27
		c0.15,0.13,0.27,0.17,0.31,0.19c0.04,0.02,0.06,0.02,0.08-0.01c0.02-0.03,0.1-0.11,0.12-0.15c0.03-0.04,0.05-0.03,0.09-0.02
		c0.04,0.01,0.23,0.11,0.27,0.13c0.04,0.02,0.06,0.03,0.07,0.05C-26.76,2.54-26.76,2.62-26.79,2.71z"/>
	<path class="st0" d="M-27.56-0.34c-1.72,0-2.5,0.86-2.5,2.58s0.78,2.42,2.5,2.42c1.72,0,2.5-0.7,2.5-2.42S-25.84-0.34-27.56-0.34z
		 M-27.56,3.87L-27.56,3.87c-0.27,0-0.53-0.06-0.76-0.18l-1.02,0.27l0.27-1c-0.13-0.25-0.2-0.52-0.2-0.8c0-0.94,0.77-1.71,1.71-1.71
		c0.46,0,0.89,0.18,1.21,0.5c0.32,0.32,0.5,0.75,0.5,1.21C-25.85,3.1-26.62,3.87-27.56,3.87z"/>
</g>
<g>
	<path class="st0" d="M-43.08,4.66c1.72,0,2.5-0.7,2.5-2.42c0-1.72-0.78-2.58-2.5-2.58c-1.72,0-2.5,0.86-2.5,2.58
		C-45.58,3.95-44.8,4.66-43.08,4.66z M-43.89,1.74h0.48V1.33c0-0.47,0.29-0.73,0.71-0.73c0.2,0,0.38,0.02,0.43,0.02v0.5l-0.29,0
		c-0.23,0-0.27,0.11-0.27,0.27v0.35h0.55l-0.07,0.55h-0.48v1.42h-0.57V2.29h-0.48V1.74z"/>
</g>
<g>
	<polygon class="st0" points="-20.16,1.59 -20.16,1.84 -20.16,2.64 -19.2,2.12 -19.73,1.83 	"/>
	<path class="st0" d="M-19.79-0.34c-1.72,0-2.5,0.86-2.5,2.58c0,1.72,0.78,2.42,2.5,2.42c1.72,0,2.5-0.7,2.5-2.42
		C-17.3,0.52-18.08-0.34-19.79-0.34z M-18.01,2.07V2.3c0,0.3-0.04,0.6-0.04,0.6s-0.03,0.26-0.14,0.37
		c-0.14,0.15-0.29,0.15-0.36,0.16c-0.5,0.04-1.25,0.04-1.25,0.04s-0.93-0.01-1.21-0.04c-0.08-0.02-0.26-0.01-0.39-0.16
		c-0.11-0.11-0.14-0.37-0.14-0.37s-0.04-0.3-0.04-0.6V2.05V2.02c0-0.3,0.04-0.6,0.04-0.6s0.03-0.26,0.14-0.37
		c0.14-0.15,0.29-0.15,0.36-0.16c0.5-0.04,1.25-0.04,1.25-0.04h0c0,0,0.75,0,1.25,0.04c0.07,0.01,0.22,0.01,0.36,0.16
		c0.11,0.11,0.14,0.37,0.14,0.37s0.04,0.3,0.04,0.6V2.07z"/>
</g>
<g>
	<path class="st0" d="M-12.03-0.34c-1.72,0-2.5,0.86-2.5,2.58c0,1.72,0.78,2.42,2.5,2.42c1.72,0,2.5-0.7,2.5-2.42
		C-9.53,0.52-10.32-0.34-12.03-0.34z M-10.79,1.53c0,0.03,0,0.05,0,0.08c0,0.13-0.01,0.25-0.04,0.38c-0.16,0.72-0.78,1.41-1.78,1.41
		c-0.36,0-0.7-0.1-0.98-0.28c0.05,0.01,0.1,0.01,0.15,0.01c0.3,0,0.58-0.1,0.8-0.27c-0.28-0.01-0.52-0.19-0.6-0.44
		c0.04,0.01,0.08,0.01,0.12,0.01c0.06,0,0.11-0.01,0.17-0.02c-0.22-0.04-0.39-0.19-0.47-0.39c-0.03-0.07-0.04-0.15-0.04-0.23
		c0,0,0-0.01,0-0.01c0.09,0.05,0.19,0.08,0.29,0.08c-0.17-0.11-0.28-0.31-0.28-0.52c0-0.12,0.03-0.22,0.09-0.32
		c0.32,0.38,0.79,0.63,1.32,0.66c-0.01-0.05-0.02-0.09-0.02-0.14c0-0.35,0.29-0.63,0.64-0.63c0.18,0,0.35,0.08,0.47,0.2
		c0.15-0.03,0.28-0.08,0.41-0.15c-0.05,0.15-0.15,0.27-0.28,0.35c0.13-0.02,0.25-0.05,0.37-0.1C-10.56,1.33-10.67,1.44-10.79,1.53z"
		/>
</g>
<g>
	<g>
		<path class="st0" d="M-4.34,1.44C-4.42,1.39-4.5,1.36-4.6,1.36c-0.09,0-0.18,0.03-0.25,0.08c-0.08,0.05-0.13,0.13-0.17,0.22
			c-0.04,0.09-0.06,0.2-0.06,0.32c0,0.18,0.05,0.33,0.14,0.44c0.09,0.11,0.21,0.17,0.35,0.17c0.14,0,0.26-0.06,0.35-0.17
			C-4.15,2.31-4.1,2.17-4.1,1.98c0-0.12-0.02-0.23-0.06-0.32C-4.21,1.57-4.27,1.49-4.34,1.44z"/>
	</g>
	<g>
		<path class="st0" d="M-2.46-0.09h-4.04c-0.34,0-0.62,0.28-0.62,0.62v3.75c0,0.34,0.28,0.62,0.62,0.62h4.04
			c0.34,0,0.62-0.28,0.62-0.62V0.53C-1.84,0.19-2.12-0.09-2.46-0.09z M-5.25,3.06c-0.19-0.1-0.34-0.25-0.44-0.44
			c-0.11-0.19-0.16-0.4-0.16-0.63c0-0.24,0.05-0.45,0.16-0.64c0.11-0.19,0.25-0.33,0.44-0.44c0.19-0.1,0.41-0.16,0.65-0.16
			c0.25,0,0.46,0.05,0.65,0.16c0.19,0.1,0.34,0.25,0.44,0.43c0.11,0.19,0.16,0.4,0.16,0.64c0,0.24-0.05,0.45-0.16,0.63
			C-3.6,2.81-3.75,2.95-3.94,3.06c-0.19,0.1-0.41,0.16-0.65,0.16C-4.84,3.21-5.06,3.16-5.25,3.06z M-3.15,3.52
			C-3.26,3.62-3.4,3.72-3.54,3.8C-3.85,3.97-4.21,4.06-4.6,4.06V3.44c0.28,0,0.54-0.06,0.76-0.19c0.11-0.06,0.21-0.13,0.29-0.21
			l0.42,0.42C-3.13,3.48-3.14,3.5-3.15,3.52z"/>
	</g>
</g>
<g>
	<path class="st1" d="M3.85,1.92c0-0.51-0.2-0.99-0.56-1.36C2.92,0.2,2.44,0,1.92,0C0.86,0,0,0.86,0,1.92C0,2.4,0.17,2.83,0.46,3.16
		L1.78,4.9c0.08,0.13,0.21,0.13,0.29,0l1.32-1.74C3.67,2.83,3.85,2.39,3.85,1.92 M1.92,0.88c0.28,0,0.54,0.11,0.73,0.31
		c0.2,0.19,0.3,0.46,0.3,0.73c0,0.58-0.47,1.04-1.04,1.04c-0.58,0-1.04-0.47-1.04-1.04C0.88,1.35,1.35,0.88,1.92,0.88"/>
	<path class="st1" d="M1.92,2.39c0.25,0,0.46-0.21,0.46-0.46c0-0.25-0.2-0.46-0.46-0.46c-0.25,0-0.46,0.2-0.46,0.46
		C1.47,2.18,1.67,2.39,1.92,2.39"/>
</g>
</svg>
