<?xml version="1.0" encoding="utf-8"?>
<!-- Generator: Adobe Illustrator 24.0.2, SVG Export Plug-In . SVG Version: 6.00 Build 0)  -->
<svg version="1.1" id="Layer_1" xmlns="http://www.w3.org/2000/svg" xmlns:xlink="http://www.w3.org/1999/xlink" x="0px" y="0px"
	 viewBox="0 0 5 5" style="enable-background:new 0 0 5 5;" xml:space="preserve">
<style type="text/css">
	.st0{fill:#00B3A6;}
	.st1{fill:#00AFA6;}
</style>
<g>
	<path class="st0" d="M-39.35,3.32c-0.29-0.16-0.51-0.38-0.67-0.66c-0.16-0.28-0.24-0.6-0.24-0.96c0-0.36,0.08-0.68,0.24-0.97
		c0.16-0.28,0.38-0.5,0.67-0.66c0.29-0.16,0.62-0.24,0.99-0.24c0.37,0,0.7,0.08,0.99,0.24c0.29,0.16,0.51,0.38,0.67,0.66
		c0.16,0.28,0.24,0.6,0.24,0.97c0,0.36-0.08,0.68-0.24,0.96c-0.16,0.28-0.39,0.5-0.68,0.66c-0.29,0.16-0.62,0.24-0.99,0.24
		C-38.73,3.56-39.06,3.48-39.35,3.32z M-37.82,2.36c0.14-0.17,0.21-0.39,0.21-0.67c0-0.18-0.03-0.35-0.1-0.49
		c-0.06-0.14-0.15-0.26-0.27-0.34c-0.11-0.08-0.24-0.12-0.39-0.12c-0.14,0-0.27,0.04-0.38,0.12c-0.11,0.08-0.2,0.19-0.26,0.34
		c-0.06,0.14-0.09,0.31-0.09,0.49c0,0.28,0.07,0.5,0.21,0.67c0.14,0.17,0.32,0.25,0.54,0.25C-38.14,2.62-37.96,2.53-37.82,2.36z"/>
	<path class="st0" d="M-36.12,3.94c-0.01,0.03-0.03,0.06-0.05,0.08c-0.18,0.16-0.37,0.3-0.59,0.42c-0.48,0.26-1.02,0.4-1.6,0.4V3.91
		c0.43,0,0.82-0.09,1.16-0.28c0.17-0.09,0.32-0.2,0.45-0.33L-36.12,3.94z"/>
</g>
<g>
	<path class="st0" d="M-20.79,0c-1.72,0-2.5,0.86-2.5,2.58c0,1.72,0.78,2.42,2.5,2.42c1.72,0,2.5-0.7,2.5-2.42
		C-18.29,0.86-19.07,0-20.79,0z M-19.18,3.17c-0.01,0.17-0.04,0.29-0.08,0.39c-0.04,0.11-0.1,0.2-0.19,0.29
		c-0.09,0.09-0.18,0.15-0.29,0.19c-0.1,0.04-0.22,0.07-0.39,0.08c-0.17,0.01-0.23,0.01-0.67,0.01c-0.44,0-0.49,0-0.67-0.01
		c-0.17-0.01-0.29-0.04-0.39-0.08c-0.11-0.04-0.2-0.1-0.29-0.19c-0.09-0.09-0.15-0.18-0.19-0.29c-0.04-0.1-0.07-0.22-0.08-0.39
		C-22.4,2.99-22.4,2.94-22.4,2.5c0-0.44,0-0.49,0.01-0.67c0.01-0.17,0.04-0.29,0.08-0.39c0.04-0.11,0.1-0.2,0.19-0.29
		c0.09-0.09,0.18-0.15,0.29-0.19c0.1-0.04,0.22-0.07,0.39-0.08c0.17-0.01,0.23-0.01,0.67-0.01c0.44,0,0.49,0,0.67,0.01
		c0.17,0.01,0.29,0.04,0.39,0.08c0.11,0.04,0.2,0.1,0.29,0.19c0.09,0.09,0.15,0.18,0.19,0.29c0.04,0.1,0.07,0.22,0.08,0.39
		c0.01,0.17,0.01,0.23,0.01,0.67C-19.17,2.94-19.17,2.99-19.18,3.17z"/>
	<path class="st0" d="M-20.79,1.67c-0.46,0-0.83,0.37-0.83,0.83c0,0.46,0.37,0.83,0.83,0.83c0.46,0,0.83-0.37,0.83-0.83
		C-19.96,2.04-20.33,1.67-20.79,1.67z M-20.79,3.04c-0.3,0-0.54-0.24-0.54-0.54c0-0.3,0.24-0.54,0.54-0.54s0.54,0.24,0.54,0.54
		C-20.25,2.8-20.49,3.04-20.79,3.04z"/>
	<path class="st0" d="M-19.93,1.83c-0.11,0-0.19-0.09-0.19-0.19s0.09-0.19,0.19-0.19c0.11,0,0.19,0.09,0.19,0.19
		S-19.82,1.83-19.93,1.83z"/>
</g>
<g>
	<path class="st0" d="M-12.26,3.06c-0.03,0.09-0.19,0.17-0.26,0.19c-0.07,0.01-0.15,0.01-0.25-0.02c-0.06-0.02-0.13-0.04-0.22-0.08
		c-0.39-0.17-0.65-0.56-0.67-0.59c-0.02-0.03-0.16-0.21-0.16-0.4c0-0.19,0.1-0.29,0.14-0.33c0.04-0.04,0.08-0.05,0.1-0.05
		c0.03,0,0.05,0,0.07,0c0.02,0,0.06-0.01,0.09,0.07c0.03,0.08,0.11,0.27,0.12,0.29c0.01,0.02,0.02,0.04,0,0.07
		c-0.01,0.03-0.02,0.04-0.04,0.06c-0.02,0.02-0.04,0.05-0.06,0.07c-0.02,0.02-0.04,0.04-0.02,0.08c0.02,0.04,0.1,0.17,0.22,0.27
		c0.15,0.13,0.27,0.17,0.31,0.19c0.04,0.02,0.06,0.02,0.08-0.01c0.02-0.03,0.1-0.11,0.12-0.15c0.03-0.04,0.05-0.03,0.09-0.02
		c0.04,0.01,0.23,0.11,0.27,0.13c0.04,0.02,0.06,0.03,0.07,0.05C-12.23,2.89-12.23,2.97-12.26,3.06z"/>
	<path class="st0" d="M-13.03,0c-1.72,0-2.5,0.86-2.5,2.58S-14.74,5-13.03,5c1.72,0,2.5-0.7,2.5-2.42S-11.31,0-13.03,0z
		 M-13.03,4.21L-13.03,4.21c-0.27,0-0.53-0.06-0.76-0.18l-1.02,0.27l0.27-1c-0.13-0.25-0.2-0.52-0.2-0.8c0-0.94,0.77-1.71,1.71-1.71
		c0.46,0,0.89,0.18,1.21,0.5c0.32,0.32,0.5,0.75,0.5,1.21C-11.32,3.44-12.08,4.21-13.03,4.21z"/>
</g>
<g>
	<path class="st0" d="M-28.55,5c1.72,0,2.5-0.7,2.5-2.42c0-1.72-0.78-2.58-2.5-2.58c-1.72,0-2.5,0.86-2.5,2.58
		C-31.05,4.3-30.27,5-28.55,5z M-29.36,2.08h0.48V1.67c0-0.47,0.29-0.73,0.71-0.73c0.2,0,0.38,0.02,0.43,0.02v0.5l-0.29,0
		c-0.23,0-0.27,0.11-0.27,0.27v0.35h0.55l-0.07,0.55h-0.48v1.42h-0.57V2.64h-0.48V2.08z"/>
</g>
<g>
	<polygon class="st0" points="-5.63,1.94 -5.63,2.18 -5.63,2.98 -4.67,2.46 -5.2,2.17 	"/>
	<path class="st0" d="M-5.26,0c-1.72,0-2.5,0.86-2.5,2.58C-7.76,4.3-6.98,5-5.26,5c1.72,0,2.5-0.7,2.5-2.42
		C-2.76,0.86-3.55,0-5.26,0z M-3.48,2.41v0.23c0,0.3-0.04,0.6-0.04,0.6S-3.55,3.5-3.66,3.61c-0.14,0.15-0.29,0.15-0.36,0.16
		c-0.5,0.04-1.25,0.04-1.25,0.04S-6.19,3.8-6.48,3.77c-0.08-0.02-0.26-0.01-0.39-0.16C-6.98,3.5-7.01,3.24-7.01,3.24
		s-0.04-0.3-0.04-0.6V2.39V2.36c0-0.3,0.04-0.6,0.04-0.6s0.03-0.26,0.14-0.37c0.14-0.15,0.29-0.15,0.36-0.16
		c0.5-0.04,1.25-0.04,1.25-0.04h0c0,0,0.75,0,1.25,0.04c0.07,0.01,0.22,0.01,0.36,0.16c0.11,0.11,0.14,0.37,0.14,0.37
		s0.04,0.3,0.04,0.6V2.41z"/>
</g>
<g>
	<path class="st0" d="M2.5,0C0.78,0,0,0.86,0,2.58C0,4.3,0.78,5,2.5,5C4.22,5,5,4.3,5,2.58C5,0.86,4.22,0,2.5,0z M3.74,1.87
		c0,0.03,0,0.05,0,0.08c0,0.13-0.01,0.25-0.04,0.38C3.54,3.05,2.92,3.75,1.92,3.75c-0.36,0-0.7-0.1-0.98-0.28
		c0.05,0.01,0.1,0.01,0.15,0.01c0.3,0,0.58-0.1,0.8-0.27C1.61,3.2,1.37,3.02,1.29,2.77c0.04,0.01,0.08,0.01,0.12,0.01
		c0.06,0,0.11-0.01,0.17-0.02C1.36,2.71,1.19,2.56,1.11,2.37C1.08,2.3,1.07,2.22,1.07,2.14c0,0,0-0.01,0-0.01
		c0.09,0.05,0.19,0.08,0.29,0.08C1.18,2.1,1.07,1.9,1.07,1.68c0-0.12,0.03-0.22,0.09-0.32C1.47,1.75,1.94,2,2.48,2.03
		C2.47,1.98,2.46,1.93,2.46,1.88c0-0.35,0.29-0.63,0.64-0.63c0.18,0,0.35,0.08,0.47,0.2C3.71,1.42,3.85,1.37,3.97,1.3
		C3.93,1.45,3.83,1.57,3.69,1.65c0.13-0.02,0.25-0.05,0.37-0.1C3.97,1.67,3.87,1.78,3.74,1.87z"/>
</g>
<g>
	<g>
		<path class="st0" d="M10.19,1.78C10.11,1.73,10.03,1.7,9.93,1.7c-0.09,0-0.18,0.03-0.25,0.08C9.61,1.84,9.55,1.91,9.51,2.01
			C9.47,2.1,9.44,2.21,9.44,2.33c0,0.18,0.05,0.33,0.14,0.44c0.09,0.11,0.21,0.17,0.35,0.17c0.14,0,0.26-0.06,0.35-0.17
			c0.09-0.11,0.14-0.26,0.14-0.44c0-0.12-0.02-0.23-0.06-0.32C10.32,1.91,10.26,1.84,10.19,1.78z"/>
	</g>
	<g>
		<path class="st0" d="M12.07,0.25H8.03c-0.34,0-0.62,0.28-0.62,0.62v3.75c0,0.34,0.28,0.62,0.62,0.62h4.04
			c0.34,0,0.62-0.28,0.62-0.62V0.88C12.69,0.53,12.41,0.25,12.07,0.25z M9.28,3.4c-0.19-0.1-0.34-0.25-0.44-0.44
			c-0.11-0.19-0.16-0.4-0.16-0.63c0-0.24,0.05-0.45,0.16-0.64c0.11-0.19,0.25-0.33,0.44-0.44C9.47,1.15,9.69,1.1,9.94,1.1
			c0.25,0,0.46,0.05,0.65,0.16c0.19,0.1,0.34,0.25,0.44,0.43c0.11,0.19,0.16,0.4,0.16,0.64c0,0.24-0.05,0.45-0.16,0.63
			c-0.11,0.19-0.25,0.33-0.45,0.44c-0.19,0.1-0.41,0.16-0.65,0.16C9.69,3.56,9.47,3.5,9.28,3.4z M11.38,3.86
			c-0.12,0.11-0.25,0.2-0.39,0.28C10.68,4.31,10.32,4.4,9.94,4.4V3.79c0.28,0,0.54-0.06,0.76-0.19c0.11-0.06,0.21-0.13,0.29-0.21
			l0.42,0.42C11.4,3.83,11.39,3.84,11.38,3.86z"/>
	</g>
</g>
<g>
	<path class="st1" d="M18.38,2.26c0-0.51-0.2-0.99-0.56-1.36c-0.37-0.36-0.85-0.57-1.36-0.57c-1.06,0-1.92,0.86-1.92,1.92
		c0,0.48,0.17,0.91,0.46,1.24l1.32,1.74c0.08,0.13,0.21,0.13,0.29,0l1.32-1.74C18.21,3.17,18.38,2.74,18.38,2.26 M16.46,1.23
		c0.28,0,0.54,0.11,0.73,0.31c0.2,0.19,0.3,0.46,0.3,0.73c0,0.58-0.47,1.04-1.04,1.04c-0.58,0-1.04-0.47-1.04-1.04
		C15.42,1.7,15.88,1.23,16.46,1.23"/>
	<path class="st1" d="M16.46,2.73c0.25,0,0.46-0.21,0.46-0.46c0-0.25-0.2-0.46-0.46-0.46C16.2,1.82,16,2.03,16,2.28
		C16,2.53,16.2,2.73,16.46,2.73"/>
</g>
</svg>
