<?xml version="1.0" encoding="utf-8"?>
<!-- Generator: Adobe Illustrator 24.0.2, SVG Export Plug-In . SVG Version: 6.00 Build 0)  -->
<svg version="1.1" id="Layer_1" xmlns="http://www.w3.org/2000/svg" xmlns:xlink="http://www.w3.org/1999/xlink" x="0px" y="0px"
	 viewBox="0 0 5 5" style="enable-background:new 0 0 5 5;" xml:space="preserve">
<style type="text/css">
	.st0{fill:#00B3A6;}
	.st1{fill:#00AFA6;}
</style>
<g>
	<path class="st0" d="M-23.82,3.32c-0.29-0.16-0.51-0.38-0.67-0.66c-0.16-0.28-0.24-0.6-0.24-0.96c0-0.36,0.08-0.68,0.24-0.97
		c0.16-0.28,0.38-0.5,0.67-0.66c0.29-0.16,0.62-0.24,0.99-0.24c0.37,0,0.7,0.08,0.99,0.24c0.29,0.16,0.51,0.38,0.67,0.66
		c0.16,0.28,0.24,0.6,0.24,0.97c0,0.36-0.08,0.68-0.24,0.96c-0.16,0.28-0.39,0.5-0.68,0.66c-0.29,0.16-0.62,0.24-0.99,0.24
		C-23.2,3.56-23.53,3.48-23.82,3.32z M-22.3,2.36c0.14-0.17,0.21-0.39,0.21-0.67c0-0.18-0.03-0.35-0.1-0.49
		c-0.06-0.14-0.15-0.26-0.27-0.34c-0.11-0.08-0.24-0.12-0.39-0.12c-0.14,0-0.27,0.04-0.38,0.12c-0.11,0.08-0.2,0.19-0.26,0.34
		c-0.06,0.14-0.09,0.31-0.09,0.49c0,0.28,0.07,0.5,0.21,0.67c0.14,0.17,0.32,0.25,0.54,0.25C-22.61,2.62-22.44,2.53-22.3,2.36z"/>
	<path class="st0" d="M-20.59,3.94C-20.6,3.97-20.62,4-20.64,4.02c-0.18,0.16-0.37,0.3-0.59,0.42c-0.48,0.26-1.02,0.4-1.6,0.4V3.91
		c0.43,0,0.82-0.09,1.16-0.28c0.17-0.09,0.32-0.2,0.45-0.33L-20.59,3.94z"/>
</g>
<g>
	<path class="st0" d="M-5.26,0c-1.72,0-2.5,0.86-2.5,2.58C-7.76,4.3-6.98,5-5.26,5c1.72,0,2.5-0.7,2.5-2.42
		C-2.76,0.86-3.55,0-5.26,0z M-3.66,3.17c-0.01,0.17-0.04,0.29-0.08,0.39c-0.04,0.11-0.1,0.2-0.19,0.29
		C-4.01,3.94-4.1,3.99-4.2,4.03C-4.31,4.07-4.42,4.1-4.6,4.11c-0.17,0.01-0.23,0.01-0.67,0.01s-0.49,0-0.67-0.01
		C-6.1,4.1-6.22,4.07-6.32,4.03c-0.11-0.04-0.2-0.1-0.29-0.19C-6.7,3.76-6.75,3.67-6.79,3.56c-0.04-0.1-0.07-0.22-0.08-0.39
		C-6.88,2.99-6.88,2.94-6.88,2.5c0-0.44,0-0.49,0.01-0.67c0.01-0.17,0.04-0.29,0.08-0.39c0.04-0.11,0.1-0.2,0.19-0.29
		c0.09-0.09,0.18-0.15,0.29-0.19c0.1-0.04,0.22-0.07,0.39-0.08c0.17-0.01,0.23-0.01,0.67-0.01s0.49,0,0.67,0.01
		C-4.42,0.9-4.31,0.93-4.2,0.97c0.11,0.04,0.2,0.1,0.29,0.19c0.09,0.09,0.15,0.18,0.19,0.29c0.04,0.1,0.07,0.22,0.08,0.39
		c0.01,0.17,0.01,0.23,0.01,0.67C-3.65,2.94-3.65,2.99-3.66,3.17z"/>
	<path class="st0" d="M-5.26,1.67c-0.46,0-0.83,0.37-0.83,0.83c0,0.46,0.37,0.83,0.83,0.83c0.46,0,0.83-0.37,0.83-0.83
		C-4.43,2.04-4.8,1.67-5.26,1.67z M-5.26,3.04c-0.3,0-0.54-0.24-0.54-0.54c0-0.3,0.24-0.54,0.54-0.54c0.3,0,0.54,0.24,0.54,0.54
		C-4.72,2.8-4.97,3.04-5.26,3.04z"/>
	<path class="st0" d="M-4.4,1.83c-0.11,0-0.19-0.09-0.19-0.19s0.09-0.19,0.19-0.19c0.11,0,0.19,0.09,0.19,0.19S-4.29,1.83-4.4,1.83z
		"/>
</g>
<g>
	<path class="st0" d="M3.26,3.06C3.23,3.15,3.08,3.23,3,3.24C2.93,3.25,2.85,3.26,2.75,3.23C2.7,3.21,2.63,3.18,2.53,3.14
		C2.14,2.98,1.89,2.58,1.87,2.56c-0.02-0.03-0.16-0.21-0.16-0.4c0-0.19,0.1-0.29,0.14-0.33c0.04-0.04,0.08-0.05,0.1-0.05
		c0.03,0,0.05,0,0.07,0c0.02,0,0.06-0.01,0.09,0.07c0.03,0.08,0.11,0.27,0.12,0.29c0.01,0.02,0.02,0.04,0,0.07
		C2.22,2.23,2.21,2.25,2.19,2.27C2.18,2.29,2.15,2.32,2.14,2.34C2.12,2.36,2.1,2.38,2.12,2.42c0.02,0.04,0.1,0.17,0.22,0.27
		c0.15,0.13,0.27,0.17,0.31,0.19C2.69,2.9,2.71,2.9,2.73,2.87c0.02-0.03,0.1-0.11,0.12-0.15C2.88,2.68,2.91,2.69,2.94,2.7
		c0.04,0.01,0.23,0.11,0.27,0.13c0.04,0.02,0.06,0.03,0.07,0.05C3.3,2.89,3.3,2.97,3.26,3.06z"/>
	<path class="st0" d="M2.5,0C0.78,0,0,0.86,0,2.58S0.78,5,2.5,5C4.22,5,5,4.3,5,2.58S4.22,0,2.5,0z M2.5,4.21L2.5,4.21
		c-0.27,0-0.53-0.06-0.76-0.18L0.72,4.3l0.27-1c-0.13-0.25-0.2-0.52-0.2-0.8c0-0.94,0.77-1.71,1.71-1.71c0.46,0,0.89,0.18,1.21,0.5
		c0.32,0.32,0.5,0.75,0.5,1.21C4.21,3.44,3.44,4.21,2.5,4.21z"/>
</g>
<g>
	<path class="st0" d="M-13.03,5c1.72,0,2.5-0.7,2.5-2.42c0-1.72-0.78-2.58-2.5-2.58c-1.72,0-2.5,0.86-2.5,2.58
		C-15.53,4.3-14.74,5-13.03,5z M-13.83,2.08h0.48V1.67c0-0.47,0.29-0.73,0.71-0.73c0.2,0,0.38,0.02,0.43,0.02v0.5l-0.29,0
		c-0.23,0-0.27,0.11-0.27,0.27v0.35h0.55l-0.07,0.55h-0.48v1.42h-0.57V2.64h-0.48V2.08z"/>
</g>
<g>
	<polygon class="st0" points="9.89,1.94 9.89,2.18 9.89,2.98 10.86,2.46 10.33,2.17 	"/>
	<path class="st0" d="M10.26,0c-1.72,0-2.5,0.86-2.5,2.58C7.76,4.3,8.55,5,10.26,5c1.72,0,2.5-0.7,2.5-2.42
		C12.76,0.86,11.98,0,10.26,0z M12.05,2.41v0.23c0,0.3-0.04,0.6-0.04,0.6s-0.03,0.26-0.14,0.37c-0.14,0.15-0.29,0.15-0.36,0.16
		c-0.5,0.04-1.25,0.04-1.25,0.04S9.33,3.8,9.05,3.77C8.97,3.76,8.79,3.76,8.65,3.61C8.55,3.5,8.51,3.24,8.51,3.24
		s-0.04-0.3-0.04-0.6V2.39V2.36c0-0.3,0.04-0.6,0.04-0.6S8.55,1.5,8.65,1.39c0.14-0.15,0.29-0.15,0.36-0.16
		c0.5-0.04,1.25-0.04,1.25-0.04h0c0,0,0.75,0,1.25,0.04c0.07,0.01,0.22,0.01,0.36,0.16c0.11,0.11,0.14,0.37,0.14,0.37
		s0.04,0.3,0.04,0.6V2.41z"/>
</g>
<g>
	<path class="st0" d="M18.03,0c-1.72,0-2.5,0.86-2.5,2.58c0,1.72,0.78,2.42,2.5,2.42c1.72,0,2.5-0.7,2.5-2.42
		C20.53,0.86,19.74,0,18.03,0z M19.27,1.87c0,0.03,0,0.05,0,0.08c0,0.13-0.01,0.25-0.04,0.38c-0.16,0.72-0.78,1.41-1.78,1.41
		c-0.36,0-0.7-0.1-0.98-0.28c0.05,0.01,0.1,0.01,0.15,0.01c0.3,0,0.58-0.1,0.8-0.27c-0.28-0.01-0.52-0.19-0.6-0.44
		c0.04,0.01,0.08,0.01,0.12,0.01c0.06,0,0.11-0.01,0.17-0.02c-0.22-0.04-0.39-0.19-0.47-0.39c-0.03-0.07-0.04-0.15-0.04-0.23
		c0,0,0-0.01,0-0.01c0.09,0.05,0.19,0.08,0.29,0.08C16.71,2.1,16.6,1.9,16.6,1.68c0-0.12,0.03-0.22,0.09-0.32
		C17,1.75,17.47,2,18,2.03c-0.01-0.05-0.02-0.09-0.02-0.14c0-0.35,0.29-0.63,0.64-0.63c0.18,0,0.35,0.08,0.47,0.2
		c0.15-0.03,0.28-0.08,0.41-0.15c-0.05,0.15-0.15,0.27-0.28,0.35c0.13-0.02,0.25-0.05,0.37-0.1C19.5,1.67,19.39,1.78,19.27,1.87z"/>
</g>
<g>
	<g>
		<path class="st0" d="M25.71,1.78c-0.08-0.05-0.16-0.08-0.26-0.08c-0.09,0-0.18,0.03-0.25,0.08c-0.08,0.05-0.13,0.13-0.17,0.22
			c-0.04,0.09-0.06,0.2-0.06,0.32c0,0.18,0.05,0.33,0.14,0.44c0.09,0.11,0.21,0.17,0.35,0.17c0.14,0,0.26-0.06,0.35-0.17
			c0.09-0.11,0.14-0.26,0.14-0.44c0-0.12-0.02-0.23-0.06-0.32C25.85,1.91,25.79,1.84,25.71,1.78z"/>
	</g>
	<g>
		<path class="st0" d="M27.59,0.25h-4.04c-0.34,0-0.62,0.28-0.62,0.62v3.75c0,0.34,0.28,0.62,0.62,0.62h4.04
			c0.34,0,0.62-0.28,0.62-0.62V0.88C28.22,0.53,27.94,0.25,27.59,0.25z M24.81,3.4c-0.19-0.1-0.34-0.25-0.44-0.44
			c-0.11-0.19-0.16-0.4-0.16-0.63c0-0.24,0.05-0.45,0.16-0.64c0.11-0.19,0.25-0.33,0.44-0.44C25,1.15,25.22,1.1,25.46,1.1
			c0.25,0,0.46,0.05,0.65,0.16c0.19,0.1,0.34,0.25,0.44,0.43c0.11,0.19,0.16,0.4,0.16,0.64c0,0.24-0.05,0.45-0.16,0.63
			c-0.11,0.19-0.25,0.33-0.45,0.44c-0.19,0.1-0.41,0.16-0.65,0.16C25.22,3.56,25,3.5,24.81,3.4z M26.91,3.86
			c-0.12,0.11-0.25,0.2-0.39,0.28C26.2,4.31,25.85,4.4,25.46,4.4V3.79c0.28,0,0.54-0.06,0.76-0.19c0.11-0.06,0.21-0.13,0.29-0.21
			l0.42,0.42C26.93,3.83,26.92,3.84,26.91,3.86z"/>
	</g>
</g>
<g>
	<path class="st1" d="M33.9,2.26c0-0.51-0.2-0.99-0.56-1.36c-0.37-0.36-0.85-0.57-1.36-0.57c-1.06,0-1.92,0.86-1.92,1.92
		c0,0.48,0.17,0.91,0.46,1.24l1.32,1.74c0.08,0.13,0.21,0.13,0.29,0l1.32-1.74C33.73,3.17,33.9,2.74,33.9,2.26 M31.98,1.23
		c0.28,0,0.54,0.11,0.73,0.31c0.2,0.19,0.3,0.46,0.3,0.73c0,0.58-0.47,1.04-1.04,1.04c-0.58,0-1.04-0.47-1.04-1.04
		C30.94,1.7,31.41,1.23,31.98,1.23"/>
	<path class="st1" d="M31.98,2.73c0.25,0,0.46-0.21,0.46-0.46c0-0.25-0.2-0.46-0.46-0.46c-0.25,0-0.46,0.2-0.46,0.46
		C31.52,2.53,31.73,2.73,31.98,2.73"/>
</g>
</svg>
