<?xml version="1.0" encoding="utf-8"?>
<!-- Generator: Adobe Illustrator 24.0.2, SVG Export Plug-In . SVG Version: 6.00 Build 0)  -->
<svg version="1.1" id="Layer_1" xmlns="http://www.w3.org/2000/svg" xmlns:xlink="http://www.w3.org/1999/xlink" x="0px" y="0px"
	 viewBox="0 0 5 5" style="enable-background:new 0 0 5 5;" xml:space="preserve">
<style type="text/css">
	.st0{fill:#00B3A6;}
	.st1{fill:#00AFA6;}
</style>
<g>
	<path class="st0" d="M-31.58,3.32c-0.29-0.16-0.51-0.38-0.67-0.66c-0.16-0.28-0.24-0.6-0.24-0.96c0-0.36,0.08-0.68,0.24-0.97
		c0.16-0.28,0.38-0.5,0.67-0.66c0.29-0.16,0.62-0.24,0.99-0.24c0.37,0,0.7,0.08,0.99,0.24c0.29,0.16,0.51,0.38,0.67,0.66
		c0.16,0.28,0.24,0.6,0.24,0.97c0,0.36-0.08,0.68-0.24,0.96c-0.16,0.28-0.39,0.5-0.68,0.66c-0.29,0.16-0.62,0.24-0.99,0.24
		C-30.97,3.56-31.3,3.48-31.58,3.32z M-30.06,2.36c0.14-0.17,0.21-0.39,0.21-0.67c0-0.18-0.03-0.35-0.1-0.49
		c-0.06-0.14-0.15-0.26-0.27-0.34c-0.11-0.08-0.24-0.12-0.39-0.12c-0.14,0-0.27,0.04-0.38,0.12c-0.11,0.08-0.2,0.19-0.26,0.34
		c-0.06,0.14-0.09,0.31-0.09,0.49c0,0.28,0.07,0.5,0.21,0.67c0.14,0.17,0.32,0.25,0.54,0.25C-30.38,2.62-30.2,2.53-30.06,2.36z"/>
	<path class="st0" d="M-28.35,3.94C-28.37,3.97-28.38,4-28.4,4.02c-0.18,0.16-0.37,0.3-0.59,0.42c-0.48,0.26-1.02,0.4-1.6,0.4V3.91
		c0.43,0,0.82-0.09,1.16-0.28c0.17-0.09,0.32-0.2,0.45-0.33L-28.35,3.94z"/>
</g>
<g>
	<path class="st0" d="M-13.03,0c-1.72,0-2.5,0.86-2.5,2.58c0,1.72,0.78,2.42,2.5,2.42c1.72,0,2.5-0.7,2.5-2.42
		C-10.53,0.86-11.31,0-13.03,0z M-11.42,3.17c-0.01,0.17-0.04,0.29-0.08,0.39c-0.04,0.11-0.1,0.2-0.19,0.29
		c-0.09,0.09-0.18,0.15-0.29,0.19c-0.1,0.04-0.22,0.07-0.39,0.08c-0.17,0.01-0.23,0.01-0.67,0.01s-0.49,0-0.67-0.01
		c-0.17-0.01-0.29-0.04-0.39-0.08c-0.11-0.04-0.2-0.1-0.29-0.19c-0.09-0.09-0.15-0.18-0.19-0.29c-0.04-0.1-0.07-0.22-0.08-0.39
		c-0.01-0.17-0.01-0.23-0.01-0.67c0-0.44,0-0.49,0.01-0.67c0.01-0.17,0.04-0.29,0.08-0.39c0.04-0.11,0.1-0.2,0.19-0.29
		c0.09-0.09,0.18-0.15,0.29-0.19c0.1-0.04,0.22-0.07,0.39-0.08c0.17-0.01,0.23-0.01,0.67-0.01s0.49,0,0.67,0.01
		c0.17,0.01,0.29,0.04,0.39,0.08c0.11,0.04,0.2,0.1,0.29,0.19c0.09,0.09,0.15,0.18,0.19,0.29c0.04,0.1,0.07,0.22,0.08,0.39
		c0.01,0.17,0.01,0.23,0.01,0.67C-11.41,2.94-11.41,2.99-11.42,3.17z"/>
	<path class="st0" d="M-13.03,1.67c-0.46,0-0.83,0.37-0.83,0.83c0,0.46,0.37,0.83,0.83,0.83c0.46,0,0.83-0.37,0.83-0.83
		C-12.2,2.04-12.57,1.67-13.03,1.67z M-13.03,3.04c-0.3,0-0.54-0.24-0.54-0.54c0-0.3,0.24-0.54,0.54-0.54s0.54,0.24,0.54,0.54
		C-12.49,2.8-12.73,3.04-13.03,3.04z"/>
	<path class="st0" d="M-12.16,1.83c-0.11,0-0.19-0.09-0.19-0.19s0.09-0.19,0.19-0.19c0.11,0,0.19,0.09,0.19,0.19
		S-12.06,1.83-12.16,1.83z"/>
</g>
<g>
	<path class="st0" d="M-4.5,3.06c-0.03,0.09-0.19,0.17-0.26,0.19c-0.07,0.01-0.15,0.01-0.25-0.02c-0.06-0.02-0.13-0.04-0.22-0.08
		C-5.62,2.98-5.88,2.58-5.9,2.56c-0.02-0.03-0.16-0.21-0.16-0.4c0-0.19,0.1-0.29,0.14-0.33c0.04-0.04,0.08-0.05,0.1-0.05
		c0.03,0,0.05,0,0.07,0c0.02,0,0.06-0.01,0.09,0.07c0.03,0.08,0.11,0.27,0.12,0.29c0.01,0.02,0.02,0.04,0,0.07
		c-0.01,0.03-0.02,0.04-0.04,0.06c-0.02,0.02-0.04,0.05-0.06,0.07c-0.02,0.02-0.04,0.04-0.02,0.08c0.02,0.04,0.1,0.17,0.22,0.27
		c0.15,0.13,0.27,0.17,0.31,0.19C-5.07,2.9-5.05,2.9-5.03,2.87c0.02-0.03,0.1-0.11,0.12-0.15c0.03-0.04,0.05-0.03,0.09-0.02
		c0.04,0.01,0.23,0.11,0.27,0.13c0.04,0.02,0.06,0.03,0.07,0.05C-4.47,2.89-4.47,2.97-4.5,3.06z"/>
	<path class="st0" d="M-5.26,0c-1.72,0-2.5,0.86-2.5,2.58S-6.98,5-5.26,5c1.72,0,2.5-0.7,2.5-2.42S-3.55,0-5.26,0z M-5.26,4.21
		L-5.26,4.21c-0.27,0-0.53-0.06-0.76-0.18L-7.05,4.3l0.27-1c-0.13-0.25-0.2-0.52-0.2-0.8c0-0.94,0.77-1.71,1.71-1.71
		c0.46,0,0.89,0.18,1.21,0.5c0.32,0.32,0.5,0.75,0.5,1.21C-3.56,3.44-4.32,4.21-5.26,4.21z"/>
</g>
<g>
	<path class="st0" d="M-20.79,5c1.72,0,2.5-0.7,2.5-2.42c0-1.72-0.78-2.58-2.5-2.58c-1.72,0-2.5,0.86-2.5,2.58
		C-23.29,4.3-22.5,5-20.79,5z M-21.6,2.08h0.48V1.67c0-0.47,0.29-0.73,0.71-0.73c0.2,0,0.38,0.02,0.43,0.02v0.5l-0.29,0
		c-0.23,0-0.27,0.11-0.27,0.27v0.35H-20l-0.07,0.55h-0.48v1.42h-0.57V2.64h-0.48V2.08z"/>
</g>
<g>
	<polygon class="st0" points="2.13,1.94 2.13,2.18 2.13,2.98 3.1,2.46 2.57,2.17 	"/>
	<path class="st0" d="M2.5,0C0.78,0,0,0.86,0,2.58C0,4.3,0.78,5,2.5,5C4.22,5,5,4.3,5,2.58C5,0.86,4.22,0,2.5,0z M4.29,2.41v0.23
		c0,0.3-0.04,0.6-0.04,0.6S4.21,3.5,4.11,3.61C3.97,3.76,3.82,3.76,3.75,3.77C3.25,3.81,2.5,3.81,2.5,3.81S1.57,3.8,1.29,3.77
		C1.21,3.76,1.03,3.76,0.89,3.61C0.79,3.5,0.75,3.24,0.75,3.24s-0.04-0.3-0.04-0.6V2.39V2.36c0-0.3,0.04-0.6,0.04-0.6
		S0.79,1.5,0.89,1.39c0.14-0.15,0.29-0.15,0.36-0.16C1.75,1.19,2.5,1.19,2.5,1.19h0c0,0,0.75,0,1.25,0.04
		c0.07,0.01,0.22,0.01,0.36,0.16C4.21,1.5,4.25,1.76,4.25,1.76s0.04,0.3,0.04,0.6V2.41z"/>
</g>
<g>
	<path class="st0" d="M10.26,0c-1.72,0-2.5,0.86-2.5,2.58C7.76,4.3,8.55,5,10.26,5c1.72,0,2.5-0.7,2.5-2.42
		C12.76,0.86,11.98,0,10.26,0z M11.5,1.87c0,0.03,0,0.05,0,0.08c0,0.13-0.01,0.25-0.04,0.38c-0.16,0.72-0.78,1.41-1.78,1.41
		c-0.36,0-0.7-0.1-0.98-0.28c0.05,0.01,0.1,0.01,0.15,0.01c0.3,0,0.58-0.1,0.8-0.27C9.37,3.2,9.13,3.02,9.05,2.77
		c0.04,0.01,0.08,0.01,0.12,0.01c0.06,0,0.11-0.01,0.17-0.02C9.13,2.71,8.95,2.56,8.87,2.37C8.84,2.3,8.83,2.22,8.83,2.14
		c0,0,0-0.01,0-0.01c0.09,0.05,0.19,0.08,0.29,0.08C8.95,2.1,8.83,1.9,8.83,1.68c0-0.12,0.03-0.22,0.09-0.32
		C9.24,1.75,9.71,2,10.24,2.03c-0.01-0.05-0.02-0.09-0.02-0.14c0-0.35,0.29-0.63,0.64-0.63c0.18,0,0.35,0.08,0.47,0.2
		c0.15-0.03,0.28-0.08,0.41-0.15c-0.05,0.15-0.15,0.27-0.28,0.35c0.13-0.02,0.25-0.05,0.37-0.1C11.74,1.67,11.63,1.78,11.5,1.87z"/>
</g>
<g>
	<g>
		<path class="st0" d="M17.95,1.78C17.88,1.73,17.79,1.7,17.7,1.7c-0.09,0-0.18,0.03-0.25,0.08c-0.08,0.05-0.13,0.13-0.17,0.22
			c-0.04,0.09-0.06,0.2-0.06,0.32c0,0.18,0.05,0.33,0.14,0.44c0.09,0.11,0.21,0.17,0.35,0.17c0.14,0,0.26-0.06,0.35-0.17
			c0.09-0.11,0.14-0.26,0.14-0.44c0-0.12-0.02-0.23-0.06-0.32C18.09,1.91,18.03,1.84,17.95,1.78z"/>
	</g>
	<g>
		<path class="st0" d="M19.83,0.25h-4.04c-0.34,0-0.62,0.28-0.62,0.62v3.75c0,0.34,0.28,0.62,0.62,0.62h4.04
			c0.34,0,0.62-0.28,0.62-0.62V0.88C20.45,0.53,20.17,0.25,19.83,0.25z M17.05,3.4c-0.19-0.1-0.34-0.25-0.44-0.44
			c-0.11-0.19-0.16-0.4-0.16-0.63c0-0.24,0.05-0.45,0.16-0.64c0.11-0.19,0.25-0.33,0.44-0.44c0.19-0.1,0.41-0.16,0.65-0.16
			c0.25,0,0.46,0.05,0.65,0.16c0.19,0.1,0.34,0.25,0.44,0.43c0.11,0.19,0.16,0.4,0.16,0.64c0,0.24-0.05,0.45-0.16,0.63
			c-0.11,0.19-0.25,0.33-0.45,0.44c-0.19,0.1-0.41,0.16-0.65,0.16C17.45,3.56,17.24,3.5,17.05,3.4z M19.15,3.86
			c-0.12,0.11-0.25,0.2-0.39,0.28C18.44,4.31,18.08,4.4,17.7,4.4V3.79c0.28,0,0.54-0.06,0.76-0.19c0.11-0.06,0.21-0.13,0.29-0.21
			l0.42,0.42C19.17,3.83,19.16,3.84,19.15,3.86z"/>
	</g>
</g>
<g>
	<path class="st1" d="M26.14,2.26c0-0.51-0.2-0.99-0.56-1.36c-0.37-0.36-0.85-0.57-1.36-0.57c-1.06,0-1.92,0.86-1.92,1.92
		c0,0.48,0.17,0.91,0.46,1.24l1.32,1.74c0.08,0.13,0.21,0.13,0.29,0l1.32-1.74C25.97,3.17,26.14,2.74,26.14,2.26 M24.22,1.23
		c0.28,0,0.54,0.11,0.73,0.31c0.2,0.19,0.3,0.46,0.3,0.73c0,0.58-0.47,1.04-1.04,1.04c-0.58,0-1.04-0.47-1.04-1.04
		C23.18,1.7,23.64,1.23,24.22,1.23"/>
	<path class="st1" d="M24.22,2.73c0.25,0,0.46-0.21,0.46-0.46c0-0.25-0.2-0.46-0.46-0.46c-0.25,0-0.46,0.2-0.46,0.46
		C23.76,2.53,23.97,2.73,24.22,2.73"/>
</g>
</svg>
